<svg xmlns="http://www.w3.org/2000/svg" width="121.65" height="132.43" viewBox="0 0 121.65 132.43">
  <defs>
    <style>
      .cls-1 {
        fill: #fff;
      }
    </style>
  </defs>
  <title>Front1</title>
  <g id="Front">
    <path id="STUDENT-ROBOTICS" class="cls-1" d="M670.87,162.53a11.28,11.28,0,0,1-3.38-.46,7.87,7.87,0,0,1-2.76-1.58,1.76,1.76,0,0,1-.71-1.36,1.41,1.41,0,0,1,.44-1,1.48,1.48,0,0,1,2-.15,7.73,7.73,0,0,0,2.06,1.24,6.46,6.46,0,0,0,2.37.39,4.82,4.82,0,0,0,2.54-.65,1.87,1.87,0,0,0,1.07-1.59,2,2,0,0,0-1.06-1.82,8.92,8.92,0,0,0-3.34-1q-5.77-.83-5.77-5.26a4.74,4.74,0,0,1,.86-2.82,5.49,5.49,0,0,1,2.38-1.83,8.53,8.53,0,0,1,3.34-.63,9.73,9.73,0,0,1,3.13.49,7.37,7.37,0,0,1,2.43,1.29,1.71,1.71,0,0,1,.77,1.36,1.54,1.54,0,0,1-1.5,1.5,1.18,1.18,0,0,1-.72-.24,6.87,6.87,0,0,0-1.91-1,6.43,6.43,0,0,0-2.2-.45,4.59,4.59,0,0,0-2.57.61,1.84,1.84,0,0,0-.91,1.58,1.86,1.86,0,0,0,.94,1.68,9.16,9.16,0,0,0,2.94.92,15.19,15.19,0,0,1,3.62,1,4.48,4.48,0,0,1,2,1.65,4.92,4.92,0,0,1,.69,2.77,4.5,4.5,0,0,1-.94,2.84,5.93,5.93,0,0,1-2.49,1.88A8.44,8.44,0,0,1,670.87,162.53ZM692,144.24a1.63,1.63,0,0,1,1.16.41,1.38,1.38,0,0,1,.45,1.08,1.36,1.36,0,0,1-.45,1.07,1.67,1.67,0,0,1-1.16.4h-4.14v13.5a1.42,1.42,0,0,1-.5,1.12,1.79,1.79,0,0,1-1.24.45,1.69,1.69,0,0,1-1.21-.45,1.46,1.46,0,0,1-.47-1.12V147.2h-4.14a1.66,1.66,0,0,1-1.16-.41,1.41,1.41,0,0,1-.45-1.08,1.38,1.38,0,0,1,.46-1.06,1.64,1.64,0,0,1,1.15-.41Zm16.63,0a1.49,1.49,0,0,1,1.11.44,1.56,1.56,0,0,1,.42,1.13v9.33a7.58,7.58,0,0,1-.93,3.79,6.45,6.45,0,0,1-2.58,2.57,7.6,7.6,0,0,1-3.79.93,7.68,7.68,0,0,1-3.81-.93,6.5,6.5,0,0,1-2.6-2.57,7.68,7.68,0,0,1-.92-3.79v-9.33a1.48,1.48,0,0,1,.48-1.12,1.68,1.68,0,0,1,1.21-.45,1.53,1.53,0,0,1,1.1.45,1.48,1.48,0,0,1,.48,1.12v9.33a4.33,4.33,0,0,0,.55,2.2,3.78,3.78,0,0,0,1.49,1.48,4.05,4.05,0,0,0,2,.52,4.46,4.46,0,0,0,2.12-.52,3.94,3.94,0,0,0,1.58-1.48,4.16,4.16,0,0,0,.59-2.2v-9.33a1.59,1.59,0,0,1,.4-1.13A1.38,1.38,0,0,1,708.58,144.21Zm12.54,0a7.53,7.53,0,0,1,4.26,1.19,7.71,7.71,0,0,1,2.71,3.25,11.6,11.6,0,0,1,0,9.15,7.63,7.63,0,0,1-2.71,3.24,7.45,7.45,0,0,1-4.26,1.2h-6.3a1.58,1.58,0,0,1-1.14-.45,1.49,1.49,0,0,1-.46-1.12V145.81a1.49,1.49,0,0,1,.46-1.12,1.58,1.58,0,0,1,1.14-.45Zm-.26,15.07a4,4,0,0,0,3.56-1.71,7.49,7.49,0,0,0,1.18-4.35,7.41,7.41,0,0,0-1.2-4.34,4,4,0,0,0-3.54-1.71h-4.35v12.11Zm20.79,0a1.58,1.58,0,0,1,1.15.45,1.41,1.41,0,0,1,.46,1,1.34,1.34,0,0,1-.46,1.06,1.69,1.69,0,0,1-1.15.41h-8.83a1.56,1.56,0,0,1-1.14-.45,1.49,1.49,0,0,1-.46-1.12V145.81a1.49,1.49,0,0,1,.46-1.12,1.56,1.56,0,0,1,1.14-.45h8.83a1.65,1.65,0,0,1,1.15.42,1.43,1.43,0,0,1,.46,1.1,1.33,1.33,0,0,1-.45,1,1.65,1.65,0,0,1-1.16.4h-7.14v4.38h6a1.64,1.64,0,0,1,1.14.42,1.43,1.43,0,0,1,.46,1.1,1.34,1.34,0,0,1-.44,1,1.67,1.67,0,0,1-1.16.4h-6v4.77Zm17.79-15.07a1.36,1.36,0,0,1,1,.41,1.44,1.44,0,0,1,.39,1v15a1.49,1.49,0,0,1-.46,1.12,1.58,1.58,0,0,1-1.14.45,2.58,2.58,0,0,1-.73-.11,1,1,0,0,1-.51-.33l-9.67-12v11a1.41,1.41,0,0,1-.41,1,1.47,1.47,0,0,1-1.07.41,1.39,1.39,0,0,1-1-.41,1.44,1.44,0,0,1-.39-1v-15a1.49,1.49,0,0,1,.46-1.12,1.56,1.56,0,0,1,1.14-.45,2.08,2.08,0,0,1,.78.15,1.26,1.26,0,0,1,.57.41l9.59,12V145.68a1.41,1.41,0,0,1,.41-1A1.38,1.38,0,0,1,759.44,144.24Zm16.65,0a1.6,1.6,0,0,1,1.16.41,1.38,1.38,0,0,1,.45,1.08,1.36,1.36,0,0,1-.45,1.07,1.64,1.64,0,0,1-1.16.4H772v13.5a1.45,1.45,0,0,1-.5,1.12,1.8,1.8,0,0,1-1.24.45,1.68,1.68,0,0,1-1.21-.45,1.47,1.47,0,0,1-.48-1.12V147.2h-4.14a1.68,1.68,0,0,1-1.16-.41,1.44,1.44,0,0,1-.44-1.08,1.34,1.34,0,0,1,.46-1.06,1.63,1.63,0,0,1,1.14-.41ZM674.77,182.15a1.55,1.55,0,0,1,.54.54,1.41,1.41,0,0,1,.2.7,1.32,1.32,0,0,1-.32.85,1.5,1.5,0,0,1-1.21.46,2.4,2.4,0,0,1-1.16-.28c-1.27-.7-1.9-2.14-1.9-4.3a1.86,1.86,0,0,0-.62-1.47,2.63,2.63,0,0,0-1.78-.54h-4.93v5a1.63,1.63,0,0,1-.38,1.13,1.27,1.27,0,0,1-1,.44,2.06,2.06,0,0,1-1.33-.45,1.38,1.38,0,0,1-.57-1.12v-14.9a1.5,1.5,0,0,1,.46-1.12,1.58,1.58,0,0,1,1.15-.45h7.59a5,5,0,0,1,2.58.72,5.45,5.45,0,0,1,1.94,2,5.59,5.59,0,0,1,.72,2.83,5,5,0,0,1-.71,2.51,5.5,5.5,0,0,1-1.85,1.95,3.9,3.9,0,0,1,1.82,3,3.68,3.68,0,0,1,.08.8,8,8,0,0,0,.21,1.14A.84.84,0,0,0,674.77,182.15Zm-5.4-6.7a1.33,1.33,0,0,0,.92-.43,3.51,3.51,0,0,0,.74-1.18,4.31,4.31,0,0,0,.29-1.58,3.12,3.12,0,0,0-.29-1.33,2.8,2.8,0,0,0-.74-1,1.47,1.47,0,0,0-.92-.36h-5.78v5.84Zm24.9.21a9.66,9.66,0,0,1-1.16,4.68,8.71,8.71,0,0,1-7.8,4.6,8.68,8.68,0,0,1-7.79-4.6,10.1,10.1,0,0,1,0-9.36,8.86,8.86,0,0,1,15.59,0A9.66,9.66,0,0,1,694.27,175.66Zm-3.43,0a6.77,6.77,0,0,0-.71-3.13,5.56,5.56,0,0,0-2-2.23,5.07,5.07,0,0,0-2.84-.82,5.14,5.14,0,0,0-2.86.81,5.36,5.36,0,0,0-2,2.23,7.39,7.39,0,0,0,0,6.28,5.36,5.36,0,0,0,2,2.23,5.14,5.14,0,0,0,2.86.81,5.07,5.07,0,0,0,2.84-.82,5.56,5.56,0,0,0,2-2.23A6.77,6.77,0,0,0,690.84,175.66Zm16.68-1a5.18,5.18,0,0,1,2.28,1.65,4.44,4.44,0,0,1,.89,2.86q0,3.06-1.8,4.28a7.46,7.46,0,0,1-4.26,1.21h-6.57a1.56,1.56,0,0,1-1.14-.45,1.5,1.5,0,0,1-.46-1.12v-14.9a1.5,1.5,0,0,1,.46-1.12,1.56,1.56,0,0,1,1.14-.45h6.64q5,0,5,4.59a3.74,3.74,0,0,1-.57,2.05A3.79,3.79,0,0,1,707.52,174.68Zm-1.23-2.88a2.12,2.12,0,0,0-.54-1.59,2.1,2.1,0,0,0-1.52-.53h-4.35v4h4.43a2,2,0,0,0,1.38-.51A1.75,1.75,0,0,0,706.29,171.8Zm-1.66,9.91a2.73,2.73,0,0,0,1.93-.64,2.42,2.42,0,0,0,.7-1.88c0-1-.27-1.68-.82-2a4,4,0,0,0-2-.47h-4.56v5Zm25.22-6.05a9.66,9.66,0,0,1-1.16,4.68,8.86,8.86,0,0,1-3.21,3.36,8.84,8.84,0,0,1-12.38-3.36,10.1,10.1,0,0,1,0-9.36,9,9,0,0,1,12.38-3.36,8.86,8.86,0,0,1,3.21,3.36A9.66,9.66,0,0,1,729.85,175.66Zm-3.43,0a6.89,6.89,0,0,0-.71-3.13,5.71,5.71,0,0,0-2-2.23,5.39,5.39,0,0,0-5.7,0,5.36,5.36,0,0,0-1.95,2.23,7.39,7.39,0,0,0,0,6.28A5.36,5.36,0,0,0,718,181a5.39,5.39,0,0,0,5.7,0,5.71,5.71,0,0,0,2-2.23A6.89,6.89,0,0,0,726.42,175.66Zm17.21-9a1.68,1.68,0,0,1,1.16.41,1.42,1.42,0,0,1,.45,1.09,1.37,1.37,0,0,1-.45,1.07,1.72,1.72,0,0,1-1.16.4h-4.14v13.5a1.47,1.47,0,0,1-.5,1.12,1.79,1.79,0,0,1-1.24.45,1.69,1.69,0,0,1-1.21-.45,1.48,1.48,0,0,1-.48-1.12v-13.5h-4.13a1.62,1.62,0,0,1-1.16-.42,1.38,1.38,0,0,1-.45-1.08,1.36,1.36,0,0,1,.46-1.06,1.69,1.69,0,0,1,1.15-.41Zm6.82,16.47a1.43,1.43,0,0,1-.5,1.12,1.68,1.68,0,0,1-1.16.45,1.61,1.61,0,0,1-1.17-.45,1.5,1.5,0,0,1-.46-1.12v-14.9a1.51,1.51,0,0,1,.47-1.12,1.7,1.7,0,0,1,1.22-.45,1.6,1.6,0,0,1,1.13.45,1.47,1.47,0,0,1,.47,1.12Zm16-15.59a1.37,1.37,0,0,1,.81,1.31,1.76,1.76,0,0,1-.39,1.06,1.31,1.31,0,0,1-1.08.54,2,2,0,0,1-.9-.23,7.06,7.06,0,0,0-6,.17,5.22,5.22,0,0,0-2.11,2.13,6.61,6.61,0,0,0-.73,3.16,6,6,0,0,0,1.67,4.61,6.91,6.91,0,0,0,7.18,1,2.15,2.15,0,0,1,.84-.21,1.44,1.44,0,0,1,1.16.57,1.63,1.63,0,0,1,.4,1.06,1.42,1.42,0,0,1-.21.75,1.34,1.34,0,0,1-.61.51,9.83,9.83,0,0,1-4.37,1,10.62,10.62,0,0,1-4.75-1.07,8.4,8.4,0,0,1-3.45-3.16,9.41,9.41,0,0,1-1.29-5.05,9.16,9.16,0,0,1,1.23-4.72,8.53,8.53,0,0,1,3.38-3.25,10,10,0,0,1,4.88-1.18A9.59,9.59,0,0,1,766.48,167.52Zm8.69,17.42a11.2,11.2,0,0,1-3.37-.47A7.88,7.88,0,0,1,769,182.9a1.81,1.81,0,0,1-.71-1.37,1.43,1.43,0,0,1,.45-1,1.47,1.47,0,0,1,1.08-.45,1.43,1.43,0,0,1,.9.31,7.68,7.68,0,0,0,2,1.24,6.77,6.77,0,0,0,2.37.38,4.85,4.85,0,0,0,2.55-.64,1.86,1.86,0,0,0,1.06-1.6,2.05,2.05,0,0,0-1-1.82,9.37,9.37,0,0,0-3.35-1q-5.77-.82-5.77-5.25a4.63,4.63,0,0,1,.87-2.82,5.46,5.46,0,0,1,2.37-1.83,8.41,8.41,0,0,1,3.35-.64,9.9,9.9,0,0,1,3.12.49,7.71,7.71,0,0,1,2.44,1.29,1.71,1.71,0,0,1,.76,1.37,1.46,1.46,0,0,1-.44,1A1.44,1.44,0,0,1,780,171a1.2,1.2,0,0,1-.71-.23,7,7,0,0,0-1.91-1,6.48,6.48,0,0,0-2.2-.45,4.65,4.65,0,0,0-2.57.6,1.9,1.9,0,0,0,0,3.26,8.9,8.9,0,0,0,2.93.93,16,16,0,0,1,3.63,1,4.72,4.72,0,0,1,2,1.65,5,5,0,0,1,.69,2.77,4.6,4.6,0,0,1-.94,2.85,6,6,0,0,1-2.49,1.88A8.48,8.48,0,0,1,775.17,184.94Z" transform="translate(-660.3 -52.51)"/>
    <path id="Combined-Shape" class="cls-1" d="M753.6,120a41.57,41.57,0,0,1-64.68.35c16.66-17.28,30.43-13.07,30.43-19.2,0-6.39-23.76-10.6-23.76-15s14-7.77,25.84-7.8,25.85,3.39,25.85,7.8-23.76,8.64-23.76,15c0,6.09,13.58,2,30.08,18.85Zm3.46-5q-13.27-11.13-24.71-13.8c3.79-3,25.08-10.81,25.08-15s-18.31-14-35.84-14.12h-.31c-17.53.12-35.84,10-35.84,14.12s21.29,11.92,25.08,15q-11.62,2.72-25.13,14.15a41.57,41.57,0,1,1,71.67-.35Z" transform="translate(-660.3 -52.51)"/>
  </g>
</svg>
