<?xml version="1.0" encoding="UTF-8" standalone="no"?>
<!-- Created with Inkscape (http://www.inkscape.org/) -->

<svg
   version="1.1"
   id="svg46"
   width="1625.2"
   height="8927.2402"
   viewBox="0 0 1625.2 8927.2402"
   sodipodi:docname="Beachflag.svg"
   inkscape:version="1.2.1 (9c6d41e410, 2022-07-14)"
   xmlns:inkscape="http://www.inkscape.org/namespaces/inkscape"
   xmlns:sodipodi="http://sodipodi.sourceforge.net/DTD/sodipodi-0.dtd"
   xmlns="http://www.w3.org/2000/svg"
   xmlns:svg="http://www.w3.org/2000/svg">
  <defs
     id="defs50">
    <clipPath
       clipPathUnits="userSpaceOnUse"
       id="clipPath62">
      <path
         d="M 0,0 H 1218.898 V 6695.433 H 0 Z"
         id="path60" />
    </clipPath>
    <clipPath
       clipPathUnits="userSpaceOnUse"
       id="clipPath138">
      <path
         d="M 0,0 H 1218.898 V 6695.433 H 0 Z"
         id="path136" />
    </clipPath>
    <clipPath
       clipPathUnits="userSpaceOnUse"
       id="clipPath154">
      <path
         d="M 0,0 H 1218.898 V 6695.433 H 0 Z"
         id="path152" />
    </clipPath>
    <clipPath
       clipPathUnits="userSpaceOnUse"
       id="clipPath162">
      <path
         d="M 0,0 H 1218.898 V 6695.433 H 0 Z"
         id="path160" />
    </clipPath>
    <clipPath
       clipPathUnits="userSpaceOnUse"
       id="clipPath176">
      <path
         d="M 0,0 H 1218.898 V 6695.433 H 0 Z"
         id="path174" />
    </clipPath>
    <clipPath
       clipPathUnits="userSpaceOnUse"
       id="clipPath62-9">
      <path
         d="M 0,0 H 1218.898 V 6695.433 H 0 Z"
         id="path60-0" />
    </clipPath>
  </defs>
  <sodipodi:namedview
     id="namedview48"
     pagecolor="#3270ed"
     bordercolor="#000000"
     borderopacity="0.25"
     inkscape:showpageshadow="2"
     inkscape:pageopacity="0"
     inkscape:pagecheckerboard="0"
     inkscape:deskcolor="#d1d1d1"
     showgrid="false"
     inkscape:zoom="0.047887139"
     inkscape:cx="1868.9778"
     inkscape:cy="2589.4217"
     inkscape:window-width="1920"
     inkscape:window-height="1009"
     inkscape:window-x="1912"
     inkscape:window-y="-8"
     inkscape:window-maximized="1"
     inkscape:current-layer="g54">
    <inkscape:page
       x="0"
       y="0"
       id="page52"
       width="1625.2"
       height="8927.2402" />
  </sodipodi:namedview>
  <g
     id="g54"
     inkscape:groupmode="layer"
     inkscape:label="Page 1"
     transform="matrix(1.3333333,0,0,-1.3333333,0,8927.24)">
    <g
       id="g148">
      <g
         id="g150"
         clip-path="url(#clipPath154)" />
    </g>
    <g
       id="g156">
      <g
         id="g158"
         clip-path="url(#clipPath162)" />
    </g>
    <rect
       style="fill:#3270ed;stroke-width:1.33229;fill-opacity:1"
       id="rect214"
       width="1409.5643"
       height="6938.1885"
       x="-78.309128"
       y="-6805.063"
       transform="scale(1,-1)" />
  </g>
  <g
     inkscape:groupmode="layer"
     id="layer2"
     inkscape:label="Design 1"
     style="display:inline">
    <g
       id="Symbol-and-Text---White"
       stroke="none"
       stroke-width="1"
       fill="none"
       fill-rule="evenodd"
       transform="translate(16.454071,6337.9666)"
       style="display:inline">
      <path
         d="m 1029.3726,1948.8539 c 0,31.0972 -3.8871,58.7386 -11.6614,82.9252 -7.7743,24.1866 -20.94727,46.8612 -39.51887,68.0245 -10.36576,11.6613 -21.81107,17.4919 -34.33634,17.4919 -9.93365,0 -18.6797,-3.671 -26.23796,-11.0134 -7.55825,-7.3424 -11.33747,-16.1963 -11.33747,-26.562 0,-8.2062 2.59142,-15.5484 7.77428,-22.0269 14.25277,-17.2763 24.6183,-34.1203 31.09696,-50.5326 6.47848,-16.4123 9.71781,-35.8476 9.71781,-58.3067 0,-24.1866 -5.3987,-45.0255 -16.19629,-62.5176 -10.79777,-17.492 -24.18642,-26.2381 -40.16687,-26.2381 -19.43562,0 -34.66014,8.638 -45.67358,25.9141 -11.01361,17.2763 -19.3276,44.7016 -24.94234,82.2773 -13.82089,94.5868 -57.87443,141.8795 -132.16174,141.8795 -27.20991,0 -50.85626,-7.1262 -70.93978,-21.3791 -20.08353,-14.2528 -35.41589,-33.6882 -45.99763,-58.3067 -10.58156,-24.6185 -15.87224,-52.0439 -15.87224,-82.2771 0,-27.2099 4.10289,-52.7999 12.30905,-76.7705 8.20616,-23.9706 19.00375,-43.9459 32.39258,-59.9264 9.93384,-12.5252 21.37915,-18.7877 34.33629,-18.7877 9.93366,0 18.6797,3.6712 26.23796,11.0134 7.55826,7.3425 11.33748,15.9805 11.33748,25.9141 0,6.4787 -1.94353,12.3093 -5.83076,17.4921 -9.06991,11.2295 -17.3839,26.8857 -24.94234,46.9692 -7.55826,20.0836 -11.33729,38.1154 -11.33729,54.0958 0,27.2099 5.07466,48.2648 15.22452,63.1655 10.14969,14.9007 23.43051,22.3509 39.84283,22.3509 18.57187,0 32.60842,-7.6662 42.11039,-22.9988 9.50178,-15.3325 17.27606,-39.4108 23.32267,-72.2354 6.47848,-37.1437 14.79265,-66.8367 24.94234,-89.0798 10.14968,-22.2429 23.97039,-38.9789 41.46248,-50.2085 17.4921,-11.2295 40.70657,-16.844 69.64416,-16.844 27.20991,0 51.0721,7.6661 71.58768,22.9986 20.51545,15.3327 36.27962,35.7398 47.29302,61.2222 11.0136,25.4822 16.5204,52.9076 16.5204,82.277 z M 569.39762,1430.5723 c 0,-11.6613 3.45517,-21.1631 10.36553,-28.5054 6.91053,-7.3424 15.98044,-11.0136 27.2099,-11.0136 11.22946,0 20.19136,3.6712 26.88587,11.0136 6.6945,7.3423 10.04167,16.8441 10.04167,28.5054 v 101.7129 h 339.47434 c 11.2295,0 20.62337,4.103 28.18167,12.3092 7.5583,8.2062 11.3373,18.3557 11.3373,30.4491 0,12.0932 -3.779,22.0268 -11.3373,29.8011 -7.5583,7.7743 -16.95217,11.6614 -28.18167,11.6614 H 643.90059 v 101.7126 c 0,11.6614 -3.45518,21.1632 -10.36572,28.5056 -6.91035,7.3424 -15.98026,11.0134 -27.20972,11.0134 -10.79759,0 -19.65147,-3.779 -26.562,-11.3373 -6.91036,-7.5584 -10.36553,-16.9522 -10.36553,-28.1817 z m -0.64791,-408.7945 c 0,-11.2295 3.67121,-20.2994 11.01344,-27.20973 7.34241,-6.9106 16.84419,-10.3657 28.50552,-10.3657 H 842.7912 c 35.84794,0 67.59244,7.5582 95.23422,22.67473 27.64178,15.1167 49.23661,36.2797 64.78518,63.4896 15.5485,27.2099 23.3226,58.3065 23.3226,93.2907 0,34.9842 -7.7741,66.1888 -23.3226,93.6147 -15.54857,27.4258 -37.1434,48.6967 -64.78518,63.8132 -27.64178,15.1167 -59.38628,22.675 -95.23422,22.675 H 608.26867 c -11.22946,0 -20.62323,-3.8871 -28.18148,-11.6614 -7.55844,-7.7743 -11.33748,-17.7079 -11.33748,-29.8011 0,-10.3657 3.77904,-19.4356 11.33748,-27.2097 7.55825,-7.7743 16.95202,-11.6614 28.18148,-11.6614 H 842.7912 c 20.73125,0 39.19492,-4.5349 55.39121,-13.605 16.19647,-9.0699 28.61354,-21.271 37.25158,-36.6035 8.63803,-15.3327 12.95696,-31.8527 12.95696,-49.5608 0,-18.5717 -4.31893,-35.9556 -12.95696,-52.1521 -8.63804,-16.1963 -21.05511,-29.1532 -37.25158,-38.8711 -16.19629,-9.7178 -34.65996,-14.5766 -55.39121,-14.5766 H 608.26867 c -11.66133,0 -21.16311,-3.2393 -28.50552,-9.7178 -7.34223,-6.4787 -11.01344,-15.3325 -11.01344,-26.562 z m 0.64791,-308.37762 c 0,-40.59874 10.04148,-75.47455 30.12501,-104.62816 20.08352,-29.15343 47.29306,-51.39615 81.62935,-66.72869 34.33647,-15.33254 72.66728,-22.99881 114.99388,-22.99881 42.32642,0 80.6574,7.66627 114.99369,22.99881 34.33629,15.33254 61.54588,37.57526 81.62938,66.72869 20.08347,29.15361 30.12497,64.02942 30.12497,104.62816 v 154.8367 c 0,11.22947 -3.779,20.62323 -11.3373,28.18149 -7.5583,7.55844 -16.95217,11.33748 -28.18167,11.33748 H 608.91658 c -11.22946,0 -20.62323,-3.77904 -28.18167,-11.33748 -7.55826,-7.55826 -11.33729,-16.95202 -11.33729,-28.18149 z m 378.99333,6.47848 c 0,-38.87124 -14.36042,-68.02449 -43.08216,-87.45993 -28.72155,-19.43562 -65.10883,-29.15343 -109.16293,-29.15343 -44.05428,0 -80.44156,9.82564 -109.16312,29.47729 -28.72156,19.65165 -43.08215,48.6967 -43.08215,87.13607 v 106.89555 h 304.49036 z m 0,-511.15526 c 0,-11.22946 3.77922,-20.62305 11.33747,-28.18149 7.55826,-7.55844 16.30431,-11.33747 26.23801,-11.33747 10.7975,0 19.65137,3.77903 26.56197,11.33747 6.9103,7.55844 10.3655,16.95203 10.3655,28.18149 v 217.03043 c 0,11.22965 -3.779,20.62323 -11.3373,28.18167 -7.5583,7.55826 -16.95217,11.33729 -28.18167,11.33729 H 608.91658 c -11.22946,0 -20.62323,-3.77903 -28.18167,-11.33729 -7.55826,-7.55844 -11.33729,-16.95202 -11.33729,-28.18167 V 208.7234 c 0,-11.22946 3.56319,-20.62305 10.68957,-28.18149 7.12638,-7.55844 16.30412,-11.33747 27.53358,-11.33747 10.79759,0 19.54364,3.67102 26.23815,11.01361 6.6945,7.34241 10.04167,16.84401 10.04167,28.50535 V 384.29134 H 754.03547 V 237.87683 c 0,-11.22964 3.56319,-20.62323 10.68957,-28.18148 7.12638,-7.55844 16.30412,-11.33748 27.53358,-11.33748 10.79759,0 19.54364,3.67102 26.23815,11.01343 6.69451,7.3426 10.04167,16.8442 10.04167,28.50553 V 384.29134 H 948.39095 Z M 569.39762,-228.5767 c 0,-10.36553 3.45517,-18.78754 10.36553,-25.2662 6.91053,-6.47848 15.54838,-9.71781 25.9141,-9.71781 h 377.69768 c 11.2295,0 20.62337,3.77922 28.18167,11.33747 7.5583,7.55844 11.3373,16.95203 11.3373,28.18167 0,6.04679 -0.9718,11.9852 -2.9153,17.81577 -1.9435,5.83076 -4.643,10.04186 -8.0981,12.6331 L 709.98155,44.169066 h 276.63278 c 10.3657,0 19.00347,3.34698 25.91407,10.04167 6.9103,6.69469 10.3655,15.44037 10.3655,26.23796 0,10.36572 -3.4552,18.78772 -10.3655,25.266384 -6.9106,6.47848 -15.54837,9.71763 -25.91407,9.71763 H 608.91658 c -11.22946,0 -20.62323,-3.77904 -28.18167,-11.33729 -7.55826,-7.558444 -11.33729,-16.952034 -11.33729,-28.181674 0,-6.47848 1.29562,-12.84895 3.88705,-19.11158 2.59142,-6.26263 6.0466,-10.90542 10.36571,-13.92872 L 884.25369,-192.94479 H 605.67725 c -10.36572,0 -19.00357,-3.34698 -25.9141,-10.04167 -6.91036,-6.6947 -10.36553,-15.22453 -10.36553,-25.59024 z m 0,-409.44239 c 0,-11.66134 3.45517,-21.16294 10.36553,-28.50553 6.91053,-7.34241 15.98044,-11.01343 27.2099,-11.01343 11.22946,0 20.19136,3.67102 26.88587,11.01343 6.6945,7.34259 10.04167,16.84419 10.04167,28.50553 v 101.71269 h 339.47434 c 11.2295,0 20.62337,4.10308 28.18167,12.30924 7.5583,8.20616 11.3373,18.35566 11.3373,30.44906 0,12.09339 -3.779,22.02705 -11.3373,29.80115 -7.5583,7.77428 -16.95217,11.66133 -28.18167,11.66133 H 643.90059 v 101.71288 c 0,11.66134 -3.45518,21.16294 -10.36572,28.50535 -6.91035,7.34259 -15.98026,11.01361 -27.20972,11.01361 -10.79759,0 -19.65147,-3.77903 -26.562,-11.33747 -6.91036,-7.55826 -10.36553,-16.95203 -10.36553,-28.18149 z m 390.00694,-603.15011 c 3.45518,-5.6147 7.99013,-10.0417 13.60487,-13.281 5.6147,-3.2392 11.4453,-4.8588 17.4919,-4.8588 7.7743,0 14.90067,2.5914 21.37917,7.7743 7.7742,6.4784 11.6613,16.4121 11.6613,29.8011 0,10.3655 -2.3754,19.8673 -7.1264,28.5055 -17.70787,31.0972 -53.77132,46.6454 -108.19113,46.6454 -15.54858,0 -27.85763,5.0746 -36.92772,15.2243 -9.06991,10.1499 -13.60486,24.7263 -13.60486,43.7301 v 121.14827 h 125.68324 c 11.6615,0 21.16307,3.13132 28.50557,9.39395 7.3424,6.26264 11.0134,14.57663 11.0134,24.94234 0,12.52509 -3.779,23.43032 -11.3373,32.71644 -7.5583,9.28594 -16.95217,13.92872 -28.18167,13.92872 H 608.91658 c -11.22946,0 -20.62323,-3.77903 -28.18167,-11.33729 -7.55826,-7.55844 -11.33729,-16.95202 -11.33729,-28.18149 v -186.58134 c 0,-22.4591 6.0466,-43.622 18.13981,-63.4895 12.09339,-19.8677 28.72137,-35.7398 49.88468,-47.6171 21.1633,-11.8776 44.91748,-17.816 71.26364,-17.816 21.59517,0 42.65009,5.8306 63.16567,17.4919 20.5154,11.6613 36.81952,26.7779 48.91273,45.3497 19.00375,-27.2101 44.48561,-42.1104 76.4465,-44.7018 6.91054,-1.2956 13.60486,-1.9435 20.08352,-1.9435 13.38902,-1.7277 22.99863,-3.4552 28.82939,-5.1829 5.83076,-1.7277 10.2577,-5.6145 13.281,-11.6613 z M 790.963,-1108.3596 c 0,-7.7742 -3.6712,-15.3323 -11.01343,-22.6747 -7.34241,-7.3426 -17.16805,-13.389 -29.47729,-18.1398 -12.30924,-4.751 -25.59006,-7.1264 -39.84301,-7.1264 -12.09321,0 -23.21466,2.3754 -33.36434,7.1264 -10.14969,4.7508 -18.24783,10.7972 -24.29444,18.1398 -6.0466,7.3424 -9.0699,14.9005 -9.0699,22.6747 v 141.87957 H 790.963 Z m 5.18286,-612.22 c 42.75829,0 81.95303,9.5016 117.58512,28.5053 35.63191,19.004 63.81325,45.2417 84.54465,78.7141 20.73137,33.4725 31.09697,71.1554 31.09697,113.0502 0,41.8945 -10.3656,79.5778 -31.09697,113.0501 -20.7314,33.4726 -48.91274,59.6025 -84.54465,78.3902 -35.63209,18.7878 -74.82683,28.1815 -117.58512,28.1815 -42.75848,0 -81.95321,-9.3937 -117.58513,-28.1815 -35.63209,-18.7877 -63.81339,-44.9176 -84.54482,-78.3902 -20.73124,-33.4723 -31.09677,-71.1556 -31.09677,-113.0501 0,-41.8948 10.36553,-79.5777 31.09677,-113.0502 20.73143,-33.4724 48.91273,-59.7101 84.54482,-78.7141 35.63192,-19.0037 74.82665,-28.5053 117.58513,-28.5053 z m 0,84.2206 c -28.93759,0 -55.17537,5.8307 -78.71407,17.4921 -23.5387,11.6613 -42.21822,27.8576 -56.03929,48.5889 -13.82089,20.7312 -20.73125,44.0537 -20.73125,69.968 0,26.3461 6.80234,49.7766 20.40739,70.292 13.60504,20.5154 32.28456,36.4955 56.03929,47.941 23.75455,11.4455 50.10034,17.168 79.03793,17.168 28.9374,0 55.28319,-5.7225 79.03792,-17.168 23.75473,-11.4455 42.43425,-27.4256 56.03911,-47.941 13.60505,-20.5154 20.40739,-43.9459 20.40739,-70.292 0,-25.9143 -6.91036,-49.2368 -20.73125,-69.968 -13.82089,-20.7313 -32.50041,-36.9276 -56.03929,-48.5889 -23.5387,-11.6614 -49.77648,-17.4921 -78.71388,-17.4921 z m -24.61848,-410.0903 c 9.07009,-22.8908 22.8908,-41.5703 41.46249,-56.0391 18.57187,-14.469 42.54226,-21.703 71.91172,-21.703 51.39651,0 87.24394,14.6844 107.54344,44.0539 20.29937,29.3695 30.44887,64.3531 30.44887,104.952 v 161.3152 c 0,11.2293 -3.779,20.623 -11.3373,28.1815 -7.5583,7.5584 -16.95217,11.3375 -28.18167,11.3375 H 608.91658 c -11.22946,0 -20.62323,-3.7791 -28.18167,-11.3375 -7.55826,-7.5585 -11.33729,-16.9522 -11.33729,-28.1815 v -163.2587 c 0,-82.0616 38.43881,-123.092 115.31755,-123.092 19.4358,0 36.60367,4.6431 51.50434,13.9289 14.90067,9.2857 26.66984,22.5667 35.30787,39.8428 z m -72.55945,30.449 c -17.70794,0 -30.98875,4.427 -39.84282,13.2811 -8.85406,8.854 -13.281,21.2711 -13.281,37.2515 v 106.8956 h 101.06498 v -108.8393 c 0,-12.9569 -4.31911,-24.2944 -12.95715,-34.012 -8.63803,-9.7179 -20.29918,-14.5769 -34.98401,-14.5769 z m 249.42302,40.8148 c 0,-20.2995 -5.39871,-36.1716 -16.19629,-47.6171 -10.79759,-11.4455 -26.56182,-17.168 -47.29307,-17.168 -25.48241,0 -42.11039,6.6943 -49.88467,20.0833 -7.77429,13.389 -11.66134,29.8012 -11.66134,49.2368 v 112.0784 h 125.03537 z m -152.24509,-619.9944 c 42.75829,0 81.95303,9.5016 117.58512,28.5054 35.63191,19.0039 63.81325,45.2417 84.54465,78.714 20.73137,33.4726 31.09697,71.1556 31.09697,113.0502 0,41.8946 -10.3656,79.5779 -31.09697,113.0502 -20.7314,33.4726 -48.91274,59.6025 -84.54465,78.3902 -35.63209,18.7878 -74.82683,28.1815 -117.58512,28.1815 -42.75848,0 -81.95321,-9.3937 -117.58513,-28.1815 -35.63209,-18.7877 -63.81339,-44.9176 -84.54482,-78.3902 -20.73124,-33.4723 -31.09677,-71.1556 -31.09677,-113.0502 0,-41.8946 10.36553,-79.5776 31.09677,-113.0502 20.73143,-33.4723 48.91273,-59.7101 84.54482,-78.714 35.63192,-19.0038 74.82665,-28.5054 117.58513,-28.5054 z m 0,84.2206 c -28.93759,0 -55.17537,5.8308 -78.71407,17.4921 -23.5387,11.6613 -42.21822,27.8576 -56.03929,48.5889 -13.82089,20.7312 -20.73125,44.0537 -20.73125,69.968 0,26.3462 6.80234,49.7765 20.40739,70.2921 13.60504,20.5154 32.28456,36.4955 56.03929,47.941 23.75455,11.4455 50.10034,17.168 79.03793,17.168 28.9374,0 55.28319,-5.7225 79.03792,-17.168 23.75473,-11.4455 42.43425,-27.4256 56.03911,-47.941 13.60505,-20.5156 20.40739,-43.9459 20.40739,-70.2921 0,-25.9143 -6.91036,-49.2368 -20.73125,-69.968 -13.82089,-20.7313 -32.50041,-36.9276 -56.03929,-48.5889 -23.5387,-11.6613 -49.77648,-17.4921 -78.71388,-17.4921 z m -226.74824,-423.0473 c 0,-11.6614 3.45517,-21.1633 10.36553,-28.5055 6.91053,-7.3423 15.98044,-11.0135 27.2099,-11.0135 11.22946,0 20.19136,3.6712 26.88587,11.0135 6.6945,7.3422 10.04167,16.8441 10.04167,28.5055 v 101.7127 h 339.47434 c 11.2295,0 20.62337,4.1031 28.18167,12.3092 7.5583,8.2062 11.3373,18.3557 11.3373,30.4491 0,12.0934 -3.779,22.0268 -11.3373,29.8011 -7.5583,7.7743 -16.95217,11.6614 -28.18167,11.6614 H 643.90059 v 101.7128 c 0,11.6614 -3.45518,21.1632 -10.36572,28.5055 -6.91035,7.3422 -15.98026,11.0136 -27.20972,11.0136 -10.79759,0 -19.65147,-3.7791 -26.562,-11.3375 -6.91036,-7.5584 -10.36553,-16.9522 -10.36553,-28.1816 z m 413.97731,-167.7937 c 11.2295,0 20.62337,4.1029 28.18167,12.3093 7.5583,8.2061 11.3373,17.7077 11.3373,28.5053 0,11.6613 -3.779,21.2711 -11.3373,28.8294 -7.5583,7.5584 -16.95217,11.3375 -28.18167,11.3375 H 608.91658 c -11.22946,0 -20.62323,-3.8871 -28.18167,-11.6614 -7.55826,-7.7742 -11.33729,-17.7079 -11.33729,-29.8011 0,-10.7976 3.77903,-20.0835 11.33729,-27.8576 7.55844,-7.7743 16.95221,-11.6614 28.18167,-11.6614 z m -391.95045,-393.894 c 6.91054,-13.389 17.92397,-20.0835 33.04048,-20.0835 9.0701,0 17.92397,3.2393 26.56201,9.7178 9.06991,6.9106 13.60486,15.7644 13.60486,26.562 0,7.3422 -1.94353,14.6847 -5.83058,22.0269 -9.93384,21.1633 -14.90066,44.0537 -14.90066,68.6724 0,30.2332 6.37046,56.579 19.11157,79.0379 12.74112,22.4589 30.6649,39.7348 53.77173,51.8282 23.10683,12.0932 49.56063,18.1398 79.36197,18.1398 50.96445,0 89.6193,-13.7127 115.96546,-41.1386 26.34615,-27.4259 39.51896,-63.3813 39.51896,-107.8673 0,-26.3462 -4.96683,-49.2368 -14.90067,-68.6724 -3.45518,-7.7741 -5.18267,-14.6847 -5.18267,-20.7313 0,-11.2296 4.7508,-20.7312 14.25276,-28.5055 8.20616,-6.4785 17.06004,-9.7176 26.56183,-9.7176 6.9105,0 13.173,1.7277 18.7877,5.1827 5.6147,3.4551 9.93367,8.4221 12.95717,14.9006 16.8442,33.6886 25.2662,69.536 25.2662,107.5435 0,42.3264 -8.9619,81.1973 -26.8859,116.6133 -17.92397,35.4159 -44.37776,63.7054 -79.36195,84.8685 -34.98419,21.1633 -77.31006,31.7449 -126.97889,31.7449 -44.05428,0 -83.57288,-10.0417 -118.55707,-30.1252 -34.98419,-20.0833 -62.30156,-47.8329 -81.95321,-83.249 -19.65165,-35.4159 -29.4773,-75.3665 -29.4773,-119.8525 0,-38.4394 8.42201,-74.0711 25.2662,-106.8956 z m 437.94812,-213.7913 c 0,31.0972 -3.8871,58.7386 -11.6614,82.9252 -7.7743,24.1866 -20.94727,46.8612 -39.51887,68.0245 -10.36576,11.6613 -21.81107,17.4919 -34.33634,17.4919 -9.93365,0 -18.6797,-3.6712 -26.23796,-11.0134 -7.55825,-7.3423 -11.33747,-16.1963 -11.33747,-26.562 0,-8.2062 2.59142,-15.5484 7.77428,-22.0269 14.25277,-17.2762 24.6183,-34.1201 31.09696,-50.5326 6.47848,-16.4123 9.71781,-35.8476 9.71781,-58.3067 0,-24.1866 -5.3987,-45.0256 -16.19629,-62.5175 -10.79777,-17.4921 -24.18642,-26.2381 -40.16687,-26.2381 -19.43562,0 -34.66014,8.638 -45.67358,25.9141 -11.01361,17.2762 -19.3276,44.7015 -24.94234,82.2772 -13.82089,94.5868 -57.87443,141.8795 -132.16174,141.8795 -27.20991,0 -50.85626,-7.1264 -70.93978,-21.3791 -20.08353,-14.2528 -35.41589,-33.6882 -45.99763,-58.3067 -10.58156,-24.6187 -15.87224,-52.0441 -15.87224,-82.2771 0,-27.2101 4.10289,-52.7999 12.30905,-76.7705 8.20616,-23.9707 19.00375,-43.9459 32.39258,-59.9263 9.93384,-12.5253 21.37915,-18.7877 34.33629,-18.7877 9.93366,0 18.6797,3.6714 26.23796,11.0136 7.55826,7.3422 11.33748,15.9804 11.33748,25.9139 0,6.4787 -1.94353,12.3092 -5.83076,17.4921 -9.06991,11.2296 -17.3839,26.8859 -24.94234,46.9692 -7.55826,20.0835 -11.33729,38.1153 -11.33729,54.0957 0,27.2097 5.07466,48.2648 15.22452,63.1655 10.14969,14.9007 23.43051,22.3509 39.84283,22.3509 18.57187,0 32.60842,-7.6661 42.11039,-22.9988 9.50178,-15.3325 17.27606,-39.4108 23.32267,-72.2354 6.47848,-37.1437 14.79265,-66.8364 24.94234,-89.0797 10.14968,-22.2431 23.97039,-38.9791 41.46248,-50.2084 17.4921,-11.2294 40.70657,-16.8442 69.64416,-16.8442 27.20991,0 51.0721,7.6661 71.58768,22.9987 20.51545,15.3327 36.27962,35.7397 47.29302,61.2221 11.0136,25.4823 16.5204,52.9076 16.5204,82.277 z"
         id="STUDENT-ROBOTICS"
         fill="#ffffff"
         style="stroke-width:2.59141" />
    </g>
    <g
       id="Symbol"
       stroke="none"
       stroke-width="1"
       fill="none"
       fill-rule="evenodd"
       transform="matrix(1.2720073,0,0,1.2720073,329.23718,1276.2633)">
      <path
         d="M 677.02569,617.02111 C 647.86936,653.56793 611.78587,684.96457 570,709.08965 c -117.57241,67.88047 -262.42759,67.88047 -380,0 C 149.36918,685.63144 114.12985,655.29811 85.407993,620.03996 237.45689,462.35413 363.12698,500.77008 363.12698,444.72918 c 0,-58.40687 -216.99267,-96.85099 -216.99267,-137.37364 0,-40.41177 127.88133,-71.09181 236.54807,-71.25942 108.66671,0.16761 236.54802,30.84765 236.54802,71.25942 0,40.52265 -216.99268,78.96677 -216.99268,137.37364 0,55.6804 124.05847,18.11529 274.78795,172.29195 z m 31.57148,-46.17064 C 627.79949,503.08549 552.57476,461.04506 482.92298,444.72918 c 34.56671,-27.89165 229.03772,-98.84427 229.03772,-136.825 0,-37.84011 -167.95212,-128.40681 -328.38423,-129.07691 -0.298,-0.004 -0.59603,-0.003 -0.89409,-0.003 -0.2981,-6.2e-4 -0.59613,-9.3e-4 -0.89415,-9.3e-4 -160.4321,0.67384 -328.384228,91.24054 -328.384228,129.08065 0,37.98073 194.471018,108.93335 229.037718,136.825 C 211.75955,461.28643 135.33833,504.33496 53.178046,573.87479 18.942376,516.16059 -1.4631037e-6,449.42886 0,380 -2.8609475e-6,244.23908 72.427587,118.79081 190,50.910347 c 117.57241,-67.880463 262.42759,-67.880463 380,0 C 687.57241,118.79081 760,244.23908 760,380 c 0,68.2194 -18.28817,133.83483 -51.40283,190.85047 z"
         id="Combined-Shape"
         fill="#ffffff"
         fill-rule="nonzero" />
    </g>
  </g>
</svg>
