<svg xmlns="http://www.w3.org/2000/svg" width="709.95" height="720.48" viewBox="0 0 709.95 720.48">
  <defs>
    <style>
      .cls-1 {
        font-size: 29.46px;
        font-family: Oswald-Regular, Oswald;
      }

      .cls-1, .cls-2, .cls-3, .cls-4, .cls-5 {
        fill: #fff;
      }

      .cls-2, .cls-3 {
        stroke: #fff;
      }

      .cls-3 {
        stroke-miterlimit: 10;
      }

      .cls-5 {
        font-size: 93.57px;
        font-family: Quicksand-Regular, Quicksand;
      }

      .cls-6 {
        letter-spacing: -0.01em;
      }

      .cls-7 {
        letter-spacing: -0.02em;
      }
    </style>
  </defs>
  <title>Back1</title>
  <g id="Back2">
    <text class="cls-1" transform="translate(239.72 339.99)">Proudly Supported By</text>
    <g id="layer1">
      <path id="path184" class="cls-2" d="M378.28,557.25V402.72" transform="translate(-65.97 -25.58)"/>
      <path class="cls-3" d="M239.9,402.62c-42.44,0-76.8,34.54-76.8,77.18S197.46,557,239.9,557s76.82-34.56,76.82-77.21A76.8,76.8,0,0,0,239.9,402.62Zm44.25,113.46s-3.54-16-9.26-25.48c-3.06-5.17-7.86-9.41-14.27-9.31-4.5.11-8.39,2.6-13.29,9.45-2.92,4.09-7.47,14.55-7.47,14.55s-4.49-10.46-7.42-14.55c-4.9-6.85-8.79-9.34-13.27-9.45-6.41-.1-11.22,4.14-14.31,9.31-5.71,9.52-9.23,25.48-9.23,25.48h-5.22l27.82-91.74L239.71,496l.19.19.18-.19,21.47-71.63,27.82,91.74Z" transform="translate(-65.97 -25.58)"/>
      <g id="g3108">
        <g id="text190">
          <path id="path3377" class="cls-3" d="M461.2,442.11a9.51,9.51,0,0,1,3.91-4.87,11,11,0,0,1,6-1.59,7,7,0,0,1,5.58,2.45c1.41,1.62,2.12,4.55,2.12,8.77V463h-2.17V447q0-5.53-1.52-7.49a4.9,4.9,0,0,0-4.06-1.95,10.05,10.05,0,0,0-6.48,2.26c-2.05,1.64-3.07,4.32-3.07,8.06V463h-2.2V447c0-3.56-.49-6-1.47-7.39a4.78,4.78,0,0,0-4.1-2.05,10,10,0,0,0-6.49,2.29q-3.08,2.44-3.07,8V463H442v-26.7h2.2v5a9.17,9.17,0,0,1,3.62-4.15,11.54,11.54,0,0,1,6.08-1.5,7.53,7.53,0,0,1,4.5,1.57C459.5,438,460.43,439.66,461.2,442.11Z" transform="translate(-65.97 -25.58)"/>
        </g>
        <g id="text194">
          <path id="path3380" class="cls-3" d="M502.72,440.87a8,8,0,0,0-12.87,0c-1.59,2.16-2.38,5.09-2.38,8.77s.78,6.76,2.36,8.92a8,8,0,0,0,12.89,0c1.59-2.19,2.38-5.17,2.38-8.92A14.57,14.57,0,0,0,502.72,440.87Zm-6.46-5.22a9.65,9.65,0,0,1,8.06,3.81q3,3.84,3,10.18,0,6.56-3,10.34a9.64,9.64,0,0,1-8.06,3.82,9.81,9.81,0,0,1-8.13-3.79q-3-3.79-2.95-10.37,0-6.42,3-10.2A9.73,9.73,0,0,1,496.26,435.65Z" transform="translate(-65.97 -25.58)"/>
        </g>
        <g id="text198">
          <path id="path3383" class="cls-3" d="M517.76,428.71v7.58h9v1.86h-9v16a8.41,8.41,0,0,0,.79,4.27,5.19,5.19,0,0,0,4.72,2.67h3.53V463h-3.41a8.37,8.37,0,0,1-5.55-1.91q-2.3-1.9-2.29-6.89v-16h-3.2v-1.86h3.2v-7.58Z" transform="translate(-65.97 -25.58)"/>
        </g>
        <g id="text202">
          <path id="path3386" class="cls-3" d="M549.05,440.87a8,8,0,0,0-12.88,0c-1.58,2.16-2.38,5.09-2.38,8.77s.79,6.76,2.36,8.92a8,8,0,0,0,12.9,0c1.58-2.19,2.38-5.17,2.38-8.92A14.64,14.64,0,0,0,549.05,440.87Zm-6.46-5.22a9.64,9.64,0,0,1,8,3.81q3,3.84,3,10.18,0,6.56-3,10.34a9.62,9.62,0,0,1-8,3.82,9.79,9.79,0,0,1-8.13-3.79q-3-3.79-3-10.37,0-6.42,3-10.2A9.76,9.76,0,0,1,542.59,435.65Z" transform="translate(-65.97 -25.58)"/>
        </g>
        <g id="text206">
          <path id="path3389" class="cls-3" d="M576.27,438.17a6.55,6.55,0,0,0-1.43-.45,12.73,12.73,0,0,0-2.05-.14,8.61,8.61,0,0,0-6.72,3Q564,443,564,448.92V463h-2.15v-26.7H564v5a10.52,10.52,0,0,1,3-3.63,10.12,10.12,0,0,1,6.3-2,15.34,15.34,0,0,1,1.62.07,5.32,5.32,0,0,1,1.38.17v2.28Z" transform="translate(-65.97 -25.58)"/>
        </g>
        <g id="text210">
          <path id="path3392" class="cls-3" d="M595.37,440.87a8,8,0,0,0-12.87,0c-1.59,2.16-2.38,5.09-2.38,8.77s.78,6.76,2.36,8.92a8,8,0,0,0,12.89,0c1.59-2.19,2.39-5.17,2.39-8.92A14.57,14.57,0,0,0,595.37,440.87Zm-6.46-5.22a9.65,9.65,0,0,1,8.06,3.81q3,3.84,3,10.18,0,6.56-3,10.34a9.64,9.64,0,0,1-8.06,3.82,9.81,9.81,0,0,1-8.13-3.79q-3-3.79-2.95-10.37,0-6.42,3-10.2A9.74,9.74,0,0,1,588.91,435.65Z" transform="translate(-65.97 -25.58)"/>
        </g>
        <g id="text214">
          <path id="path3395" class="cls-3" d="M608.1,425.9h2.2V463h-2.2Z" transform="translate(-65.97 -25.58)"/>
        </g>
        <g id="text218">
          <path id="path3398" class="cls-3" d="M631.08,447.92q-5.3,0-7.62,1.88a6.67,6.67,0,0,0-2.34,5.51q0,3.53,1.93,5a7.34,7.34,0,0,0,4.58,1.47,7.49,7.49,0,0,0,7.19-4.24,17.31,17.31,0,0,0,2.22-8v-1.65Zm8.18-.16V463h-2.17v-7.25c-1.22,3.54-2.85,5.8-4.86,6.77a10.93,10.93,0,0,1-4.79,1.17,8.86,8.86,0,0,1-6.27-2.12q-2.29-2.15-2.29-6.3a8.16,8.16,0,0,1,3-6.62q3-2.5,9.75-2.51H637v-.42a8.47,8.47,0,0,0-2-5.84q-2-2.3-6.63-2.29a13.53,13.53,0,0,0-4.67.86,18.57,18.57,0,0,0-4,2.21v-2.36a17,17,0,0,1,4-1.86,18.26,18.26,0,0,1,5.12-.78,10.88,10.88,0,0,1,7.77,2.86C638.38,440.14,639.26,443.23,639.26,447.76Z" transform="translate(-65.97 -25.58)"/>
        </g>
        <g id="text222">
          <path id="path3401" class="cls-3" d="M453.47,482.85v1.86h-3.1a5.07,5.07,0,0,0-3.71,1.26c-1.05,1-1.58,2.67-1.58,4.91v2.36h7.2v1.86h-7.2v24.84h-2.21V495.1h-4.2v-1.86h4.2v-1.86q0-4.45,2-6.48a7.37,7.37,0,0,1,5.53-2Z" transform="translate(-65.97 -25.58)"/>
        </g>
        <g id="text226">
          <path id="path3404" class="cls-3" d="M475.58,497.82a8,8,0,0,0-12.87,0q-2.38,3.24-2.39,8.77t2.36,8.91a8,8,0,0,0,12.9,0q2.39-3.29,2.38-8.91A14.58,14.58,0,0,0,475.58,497.82Zm-6.46-5.22a9.65,9.65,0,0,1,8.06,3.81q3,3.84,3,10.18,0,6.56-3,10.35a9.65,9.65,0,0,1-8.06,3.81A9.78,9.78,0,0,1,461,517q-3-3.8-2.95-10.37,0-6.4,3-10.2A9.73,9.73,0,0,1,469.12,492.6Z" transform="translate(-65.97 -25.58)"/>
        </g>
        <g id="text230">
          <path id="path3407" class="cls-3" d="M488.31,509.36V493.24h2.19v16q0,5.2,1.67,7.32a5.88,5.88,0,0,0,4.91,2.12,9.68,9.68,0,0,0,6.49-2.29q2.71-2.31,2.71-8V493.24h2.2v26.7h-2.2v-5a9.15,9.15,0,0,1-3.07,3.72,10.74,10.74,0,0,1-6.22,1.93,8,8,0,0,1-6.32-2.69C489.1,516.11,488.31,513.26,488.31,509.36Z" transform="translate(-65.97 -25.58)"/>
        </g>
        <g id="text234">
          <path id="path3410" class="cls-3" d="M537.08,503.83v16.11h-2.19V504c0-3.47-.56-5.9-1.67-7.32a5.88,5.88,0,0,0-4.91-2.12,9.63,9.63,0,0,0-6.48,2.29c-1.82,1.54-2.72,4.22-2.72,8v15.09h-2.19v-26.7h2.19v5a9.15,9.15,0,0,1,3.07-3.72,10.74,10.74,0,0,1,6.22-1.93,8,8,0,0,1,6.32,2.69Q537.07,498,537.08,503.83Z" transform="translate(-65.97 -25.58)"/>
        </g>
        <g id="text238">
          <path id="path3413" class="cls-3" d="M565,499.34V482.85h2.14v37.09H565v-6.06a11.4,11.4,0,0,1-3.27,4.77,8.71,8.71,0,0,1-5.07,2,9.76,9.76,0,0,1-7.89-3.86q-3.15-3.87-3.15-10.16t3.15-10.15a9.76,9.76,0,0,1,7.89-3.86,8.71,8.71,0,0,1,5.07,2A11.36,11.36,0,0,1,565,499.34Zm-14.3-2q-2.77,2.79-2.77,9.29t2.77,9.3a7.35,7.35,0,0,0,11.53,0q2.75-2.79,2.74-9.3t-2.74-9.29a7.35,7.35,0,0,0-11.53,0Z" transform="translate(-65.97 -25.58)"/>
        </g>
        <g id="text242">
          <path id="path3416" class="cls-3" d="M584.81,504.87q-5.29,0-7.63,1.89a6.64,6.64,0,0,0-2.34,5.5c0,2.36.65,4,1.93,5a7.37,7.37,0,0,0,4.58,1.48,7.5,7.5,0,0,0,7.2-4.25,17.26,17.26,0,0,0,2.21-8v-1.65Zm8.17-.16v15.23h-2.17v-7.25c-1.22,3.55-2.84,5.8-4.86,6.77a10.89,10.89,0,0,1-4.79,1.17,8.9,8.9,0,0,1-6.27-2.12q-2.29-2.14-2.29-6.29a8.2,8.2,0,0,1,3-6.63q3-2.5,9.75-2.5h5.43v-.43a8.47,8.47,0,0,0-2-5.84c-1.34-1.53-3.54-2.29-6.63-2.29a13.81,13.81,0,0,0-4.67.86,18.57,18.57,0,0,0-4,2.21v-2.35a16.54,16.54,0,0,1,4-1.86,18,18,0,0,1,5.13-.79,10.91,10.91,0,0,1,7.77,2.86Q593,497.92,593,504.71Z" transform="translate(-65.97 -25.58)"/>
        </g>
        <g id="text246">
          <path id="path3419" class="cls-3" d="M602.31,485.66v7.58h9v1.86h-9v16a8.28,8.28,0,0,0,.79,4.27,5.19,5.19,0,0,0,4.72,2.67h3.53v1.86h-3.41a8.42,8.42,0,0,1-5.56-1.91c-1.52-1.27-2.29-3.57-2.29-6.89v-16H596.9v-1.86h3.19v-7.58Z" transform="translate(-65.97 -25.58)"/>
        </g>
        <g id="text250">
          <path id="path3422" class="cls-3" d="M617.67,493.24h2.19v26.7h-2.19Zm0-10.39h2.19v3h-2.19Z" transform="translate(-65.97 -25.58)"/>
        </g>
        <g id="text254">
          <path id="path3425" class="cls-3" d="M645.9,497.82a8,8,0,0,0-12.88,0q-2.38,3.24-2.38,8.77t2.36,8.91a8,8,0,0,0,12.9,0c1.58-2.19,2.38-5.16,2.38-8.91A14.65,14.65,0,0,0,645.9,497.82Zm-6.46-5.22a9.64,9.64,0,0,1,8,3.81q3,3.84,3,10.18,0,6.56-3,10.35a9.64,9.64,0,0,1-8,3.81,9.76,9.76,0,0,1-8.13-3.79q-3-3.8-3-10.37,0-6.4,3-10.2A9.76,9.76,0,0,1,639.44,492.6Z" transform="translate(-65.97 -25.58)"/>
        </g>
        <g id="text258">
          <path id="path3428" class="cls-3" d="M678.79,503.83v16.11H676.6V504c0-3.47-.56-5.9-1.67-7.32a5.88,5.88,0,0,0-4.91-2.12,9.63,9.63,0,0,0-6.48,2.29q-2.71,2.31-2.72,8v15.09h-2.19v-26.7h2.19v5a9.15,9.15,0,0,1,3.07-3.72,10.75,10.75,0,0,1,6.23-1.93,8,8,0,0,1,6.31,2.69Q678.79,498,678.79,503.83Z" transform="translate(-65.97 -25.58)"/>
        </g>
      </g>
    </g>
    <g>
      <path class="cls-4" d="M177.84,678q7.47,3.75,11.11,5.93a20.54,20.54,0,0,1,6.35,6.14Q198,694,198,700.83a19.57,19.57,0,0,1-7.26,15.64,24.68,24.68,0,0,1-16.35,6.13,29.89,29.89,0,0,1-10.09-1.48,81,81,0,0,1-9.78-4.47l-.31-15.95a31.46,31.46,0,0,0,6.94,12.3q4.69,5.1,12.49,5.1t11.12-4.54a16,16,0,0,0,3.41-9.78q0-6.81-3.41-9.4t-14.64-8.11q-8.13-4.07-11.85-8.49a16.23,16.23,0,0,1-3.75-10.84q0-9,6.79-13.94a25.3,25.3,0,0,1,15.33-5q9.08,0,15.27,4.13l.53,14.05a19.45,19.45,0,0,0-5.77-9.36,15.85,15.85,0,0,0-11.53-4.47q-6.09,0-9,3.58a12.09,12.09,0,0,0-2.89,7.73A9.41,9.41,0,0,0,166.2,671q2.88,2.61,11.64,7Z" transform="translate(-65.97 -25.58)"/>
      <path class="cls-4" d="M225.67,671.18a21.75,21.75,0,0,1,20.78,13.34A31.44,31.44,0,0,1,249,697a27.5,27.5,0,0,1-3,12.27,24.56,24.56,0,0,1-8.33,9.71,21.21,21.21,0,0,1-12.17,3.62q-11.53,0-17.47-7.84a29,29,0,0,1-3-30.19,24,24,0,0,1,8.33-9.71,21.64,21.64,0,0,1,12.39-3.68Zm-1,3.88q-6.63.32-9.94,6.77t-3,15.71q.33,9,4.23,15.12t10.2,5.75q6.61-.31,10-6.55t3-15.6a38.41,38.41,0,0,0-2-10.76,19,19,0,0,0-4.75-7.61,10.53,10.53,0,0,0-7.8-2.83Z" transform="translate(-65.97 -25.58)"/>
      <path class="cls-4" d="M314.47,662.63v9.82h14.74l-3.73,4.48H314.26V707q0,11.1,9.72,11.09a8.64,8.64,0,0,0,3.95-.65,18,18,0,0,0,2.88-2.14q0,2.25-3.31,4.78A12.09,12.09,0,0,1,320,722.6a14.56,14.56,0,0,1-10.75-4.1q-4.12-4.11-4.12-11.37V676.94h-4.6l13.92-14.31Z" transform="translate(-65.97 -25.58)"/>
      <path class="cls-4" d="M362.9,671.16a17.11,17.11,0,0,1,11.38,3.9q4.65,3.88,4.64,10.94v31.6a3.77,3.77,0,0,0,.54,2.35,10.2,10.2,0,0,0,2.24,1.71H367q2.9-1.6,2.89-4.07V689.47a13.82,13.82,0,0,0-2.62-8.78q-2.62-3.32-8.81-3.31a15.18,15.18,0,0,0-11.65,5.56v34.65a3.65,3.65,0,0,0,.64,2.24,7.66,7.66,0,0,0,2.35,1.83H334.67c1.86-1,2.78-2.36,2.78-4.06V654.85a3.47,3.47,0,0,0-.9-2.77,10.68,10.68,0,0,0-2.84-1.5L346.77,648v30.77q8.76-7.62,16.13-7.62Z" transform="translate(-65.97 -25.58)"/>
      <path class="cls-4" d="M490,671.18A17.17,17.17,0,0,1,501,675q4.86,3.86,4.87,10.79v31.81a3.65,3.65,0,0,0,.69,2.29,7.41,7.41,0,0,0,2.08,1.76H493.76c2-1.2,3-2.56,3-4V689a13,13,0,0,0-2.66-8.49c-1.79-2.17-4.63-3.26-8.55-3.26q-6.73,0-11.54,6.73a4.33,4.33,0,0,1,.22,1.6v32a3.69,3.69,0,0,0,.69,2.29,7.55,7.55,0,0,0,2.08,1.76H462.11q2.77-1.6,2.77-4V688.56q0-11.31-11.1-11.32-6.31,0-10.79,5.45v34.93a3.36,3.36,0,0,0,.64,2.24,10.71,10.71,0,0,0,2.35,1.81H431q2.78-1.6,2.78-4V678a3.67,3.67,0,0,0-1.06-3,7.31,7.31,0,0,0-2.78-1.28l13-2.56v7.3a53.36,53.36,0,0,1,7.21-5.13,16.19,16.19,0,0,1,8.39-2.17,17.36,17.36,0,0,1,8.87,2.44,12.3,12.3,0,0,1,5.68,6.88,26.11,26.11,0,0,1,7.53-6.62,18.06,18.06,0,0,1,9.34-2.7Z" transform="translate(-65.97 -25.58)"/>
      <path class="cls-4" d="M575.66,662.63v9.82H590.4l-3.73,4.48H575.44V707q0,11.1,9.72,11.09a8.61,8.61,0,0,0,4-.65,17.58,17.58,0,0,0,2.89-2.14q0,2.25-3.31,4.78a12.09,12.09,0,0,1-7.48,2.51,14.56,14.56,0,0,1-10.75-4.1q-4.12-4.11-4.13-11.37V676.94h-4.59l13.92-14.31Z" transform="translate(-65.97 -25.58)"/>
      <path class="cls-4" d="M615.54,671.18a22,22,0,0,1,12.92,3.74,22.23,22.23,0,0,1,7.85,9.6A31.44,31.44,0,0,1,638.82,697a27.75,27.75,0,0,1-3,12.27A24.8,24.8,0,0,1,627.5,719a21.24,21.24,0,0,1-12.18,3.62q-11.54,0-17.47-7.84a29,29,0,0,1-3-30.19,24.09,24.09,0,0,1,8.33-9.71,21.67,21.67,0,0,1,12.4-3.68Zm-1,3.88c-4.41.21-7.73,2.47-9.93,6.77s-3.21,9.53-3,15.71,1.61,11.07,4.21,15.12,6,6,10.21,5.75q6.61-.31,10-6.55t3-15.6a38.41,38.41,0,0,0-2-10.76,19,19,0,0,0-4.75-7.61,10.53,10.53,0,0,0-7.8-2.83Z" transform="translate(-65.97 -25.58)"/>
      <path class="cls-4" d="M669.07,671.18a17.56,17.56,0,0,1,7.69,1.81,14.71,14.71,0,0,1,5.93,5.08,13.91,13.91,0,0,1,2.19,7.95v31.6a3.41,3.41,0,0,0,.48,2,14.16,14.16,0,0,0,2.29,2H673a4.54,4.54,0,0,0,2.78-4.06V689.8q0-12.4-11.33-12.41a12.25,12.25,0,0,0-5.93,1.61,16.17,16.17,0,0,0-4.86,4v34.65a3.64,3.64,0,0,0,.7,2.3,7.27,7.27,0,0,0,2.08,1.76H641.7a4.52,4.52,0,0,0,2.67-4V678c0-2.13-1.17-3.63-3.53-4.49l12.85-2.34v7.61a28.08,28.08,0,0,1,6.78-5.19,17.13,17.13,0,0,1,8.6-2.42Z" transform="translate(-65.97 -25.58)"/>
      <path class="cls-4" d="M557.18,685.32a22.26,22.26,0,0,0-5-8.11,21.36,21.36,0,0,0-6.62-4.54,19,19,0,0,0-15.86.51,19.18,19.18,0,0,0-6,4.52v-6.52L510.9,674c2.35.71,3.53,2.21,3.53,4.48V742a4.13,4.13,0,0,1-2.78,4.06h14.87a4.26,4.26,0,0,1-2.77-4.08V682.3a14.84,14.84,0,0,1,4.59-3.72,12.8,12.8,0,0,1,6.19-1.5,14,14,0,0,1,10,4.48q4.54,4.47,4.54,15.44,0,10.13-4.22,15.76a13.44,13.44,0,0,1-11.37,5.65c-3.49,0-5.1-.72-8.11-3.29l2.45,6.57a25.92,25.92,0,0,0,6.94.91q11.21,0,17.78-8.11a27.77,27.77,0,0,0,6.57-17.92,31.54,31.54,0,0,0-1.92-11.25Z" transform="translate(-65.97 -25.58)"/>
      <path class="cls-4" d="M280.86,715a12.56,12.56,0,0,1-6.09,1.39,9.94,9.94,0,0,1-7.85-3.64c-2.11-2.42-3.15-5.8-3.15-10.15V671.18l-13,2.56c2.42.79,3.63,2.2,3.63,4.27v24.54q0,10.56,5.14,15.3a16.13,16.13,0,0,0,11.13,4.75A19.57,19.57,0,0,0,283.3,718l1.88-6.24a18.42,18.42,0,0,1-4.32,3.26Z" transform="translate(-65.97 -25.58)"/>
      <path class="cls-4" d="M295.17,713.11V671.18l-12.82,2.57a6.56,6.56,0,0,1,2.72,1.28,3.73,3.73,0,0,1,1,3v32.57l.17,4.61a.12.12,0,0,1,.05-.05,9.64,9.64,0,0,0,.85,4.68,8,8,0,0,0,3,2.77l9.29-3.41q-4.28-.63-4.27-6.08Z" transform="translate(-65.97 -25.58)"/>
      <path class="cls-4" d="M424.82,717.54a8.89,8.89,0,0,1-.48-3.41V685.57q0-8.31-5.14-11.35a22.46,22.46,0,0,0-11.66-3,30.75,30.75,0,0,0-16.88,5.31l.22,13.18a29.49,29.49,0,0,1,5.77-10.57,12.33,12.33,0,0,1,9.61-3.89c3.13,0,5.45.92,6.95,2.73a10,10,0,0,1,2.24,6.56c0,2.7-.15,4.2-.43,4.48a8.61,8.61,0,0,1-4.06,2.46q-2.67.85-9,2.72a38.51,38.51,0,0,0-8.7,3.36q-7.16,4.28-7.16,12.06a14.39,14.39,0,0,0,3.26,8.71q3.26,4.31,9.56,4.31a21.17,21.17,0,0,0,13.66-5.06l1.95-5.6a16.2,16.2,0,0,1-11.23,4.61,7.75,7.75,0,0,1-5.87-2.34,8.9,8.9,0,0,1-2.25-6.46,8,8,0,0,1,2.25-5.94,19.16,19.16,0,0,1,6.62-3.92,93.38,93.38,0,0,0,11.43-4V711s.08,3.71.11,3.69c.06,2.52.35,4.21.85,5.08a11,11,0,0,0,2.89,2.9l8.24-3.67c-1.49-.29-2.4-.79-2.72-1.5Z" transform="translate(-65.97 -25.58)"/>
      <path class="cls-4" d="M368.41,632.52v17.34c0,2.83,1,7.18,6.77,7.18,5.49,0,7.21-3.48,7.21-7.18l-.16-17.34a1.9,1.9,0,0,0-1.06-1.85h4.54a1.93,1.93,0,0,0-1.1,1.85l-.13,17.18c0,6.72-4.35,9.22-9.47,9.22-4.51,0-10.53-2.21-10.53-9.14V632.52a2.13,2.13,0,0,0-1.27-1.85h6.55a2.14,2.14,0,0,0-1.35,1.85Z" transform="translate(-65.97 -25.58)"/>
      <path class="cls-4" d="M410.31,632.52a2,2,0,0,0-1.07-1.85h4.26a1.93,1.93,0,0,0-1.1,1.85v26.81s-19.64-23.7-19.64-24.1v21.48a1.92,1.92,0,0,0,1.15,1.85h-4.35a2.06,2.06,0,0,0,1.07-1.85V634.08c0-1.19,0-1.27-.49-1.93a5.29,5.29,0,0,0-1.89-1.48h5.86l16.2,20V632.52Z" transform="translate(-65.97 -25.58)"/>
      <path class="cls-4" d="M423.58,630.67a2,2,0,0,0-1.06,1.85v24.19a2.07,2.07,0,0,0,1.06,1.85h-6.06a2,2,0,0,0,1.1-1.85V632.52a1.93,1.93,0,0,0-1.1-1.85Z" transform="translate(-65.97 -25.58)"/>
      <path class="cls-4" d="M447.09,632.64c.37-1,.29-1.55-.7-2h4.51c-1.07.7-1,.91-1.48,2-.66,1.6-10.21,27-10.21,27s-10.53-25.46-11.23-27a3.44,3.44,0,0,0-2.13-2h7.46c-1.06.42-1.06,1.4-.78,2.42.09.13,7.34,19,7.34,19s7.22-19.3,7.22-19.47Z" transform="translate(-65.97 -25.58)"/>
      <path class="cls-4" d="M468.06,634.31a4,4,0,0,0-3.45-1.43l-7.05-.08v9.27h6.69a1.92,1.92,0,0,0,1.43-1.15v4.43a1.94,1.94,0,0,0-1.43-1.15h-6.69v12.1a42.47,42.47,0,0,0,4.76.25c4.42,0,6,0,7.5-2.58l-.86,4.59H452.48a1.91,1.91,0,0,0,1.23-1.85V632.52a2,2,0,0,0-1.15-1.85H468l.08,3.64Z" transform="translate(-65.97 -25.58)"/>
      <path class="cls-4" d="M483.14,644.41a6.45,6.45,0,0,1,4,3.08s4.34,7.5,6.15,9.42a7.73,7.73,0,0,0,2.62,1.65l-4.18.07a4.24,4.24,0,0,1-3.36-1.92c-2.1-3.08-3.57-5.33-5-7.63-1.07-1.64-1.93-3.4-4.06-3.4H476.9v11a2.13,2.13,0,0,0,1.16,1.85h-6.12a2.07,2.07,0,0,0,1.11-1.85V632.52a2,2,0,0,0-1.11-1.85h7.71c8.21,0,10,4.27,10,6.85,0,4.43-3.94,6.68-6.48,6.89Zm-6.24-12v11.11s1.32.08,2.39.08c3.12,0,6.19-1.68,6.19-6a5.17,5.17,0,0,0-5.49-5.34c-1.85,0-3.09.13-3.09.13Z" transform="translate(-65.97 -25.58)"/>
      <path class="cls-4" d="M512.74,650.56c0,5.12-4.67,8.36-9.06,8.36a14.78,14.78,0,0,1-7.62-2.29l-.13-6.15c.86,2.95,3.08,6.72,7.46,6.72a5.27,5.27,0,0,0,5.58-5.49c0-3.94-3-4.72-6.93-6.73s-6-4.06-6-7.42c0-4.92,4.59-7.26,8.48-7.26a11.05,11.05,0,0,1,5.86,1.56l.21,5.41c-.49-2-2.79-5.33-6.64-5.33a4.22,4.22,0,0,0-4.55,4.35c0,2.58,1.63,3.57,5.58,5.5s7.74,3.28,7.74,8.77Z" transform="translate(-65.97 -25.58)"/>
      <path class="cls-4" d="M521.43,630.67a2,2,0,0,0-1.06,1.85v24.19a2.07,2.07,0,0,0,1.06,1.85h-6.06a2,2,0,0,0,1.1-1.85V632.52a1.93,1.93,0,0,0-1.1-1.85Z" transform="translate(-65.97 -25.58)"/>
      <path class="cls-4" d="M536.55,632.64v24.07a2,2,0,0,0,1.07,1.85h-6.07a1.93,1.93,0,0,0,1.07-1.85V632.64c-3.07,0-6.73.28-6.73.28a2.85,2.85,0,0,0-2.13,1.6v-3.85h21.57l0,3.85a3,3,0,0,0-2.13-1.6s-3.69-.28-6.69-.28Z" transform="translate(-65.97 -25.58)"/>
      <path class="cls-4" d="M569.43,630.67a4.52,4.52,0,0,0-2.42,2.26l-6.64,12.42v11.36c0,.9.77,1.47,1.51,1.85h-7c.66-.38,1.51-.87,1.51-1.85v-11.2l-7.82-12.87a5,5,0,0,0-2.3-2h7.91c-.94.42-1.72.62-.66,2.55l5.75,10.12,5.57-10.7c.58-1.1.29-1.64-.85-2Z" transform="translate(-65.97 -25.58)"/>
      <path class="cls-4" d="M594.7,658.92c-6.85-.16-12.9-6.27-12.72-14.72.18-6.64,5-14.18,13.42-13.9,5.84.13,12.66,5.21,12.48,14.57s-7.28,14.26-13.18,14ZM586.28,644c0,9,4.44,13,8.79,13,5.22,0,8.48-4.67,8.48-12.06.08-7.91-3.26-13-8.55-13s-8.72,4.47-8.72,12Z" transform="translate(-65.97 -25.58)"/>
      <path class="cls-4" d="M616.78,658.56h-6.23a1.85,1.85,0,0,0,1.14-1.85V632.52a2,2,0,0,0-1.14-1.85H626.9v3.74c-.57-1-1.48-1.56-3.49-1.56-1-.08-7.83-.16-7.83-.16l.06,9.4h6.77a1.94,1.94,0,0,0,1.43-1.15v4.43a1.94,1.94,0,0,0-1.43-1.15h-6.77l-.09,12.49a1.92,1.92,0,0,0,1.24,1.85Z" transform="translate(-65.97 -25.58)"/>
    </g>
    <g id="Symbol-and-Text---White">
      <path id="STUDENT-ROBOTICS" class="cls-4" d="M219.85,106.85a26,26,0,0,1-7.92-1.11,18.33,18.33,0,0,1-6.49-3.78,4.32,4.32,0,0,1-1.67-3.27,3.5,3.5,0,0,1,1-2.51,3.4,3.4,0,0,1,2.53-1.08,3.31,3.31,0,0,1,2.11.74,18.21,18.21,0,0,0,4.82,3,15.11,15.11,0,0,0,5.57.93,11.11,11.11,0,0,0,6-1.55,4.48,4.48,0,0,0,2.51-3.83A4.92,4.92,0,0,0,225.85,90c-1.65-1-4.27-1.85-7.86-2.38q-13.55-2-13.54-12.62a11.37,11.37,0,0,1,2-6.77,12.94,12.94,0,0,1,5.56-4.4,19.71,19.71,0,0,1,7.86-1.51,22.57,22.57,0,0,1,7.33,1.17,17.9,17.9,0,0,1,5.72,3.1,4.14,4.14,0,0,1,1.79,3.28,3.49,3.49,0,0,1-1.05,2.5,3.35,3.35,0,0,1-2.47,1.08,2.7,2.7,0,0,1-1.67-.55,16.57,16.57,0,0,0-4.49-2.39,14.86,14.86,0,0,0-5.16-1.08,10.62,10.62,0,0,0-6,1.46,4.61,4.61,0,0,0,.06,7.82,20.76,20.76,0,0,0,6.9,2.23,35.32,35.32,0,0,1,8.5,2.38,10.86,10.86,0,0,1,4.79,4,12.07,12.07,0,0,1,1.61,6.64,11.14,11.14,0,0,1-2.19,6.84,14.16,14.16,0,0,1-5.85,4.51A19.59,19.59,0,0,1,219.85,106.85Zm49.47-43.91a3.82,3.82,0,0,1,2.73,1,3.4,3.4,0,0,1,1.05,2.6,3.3,3.3,0,0,1-1.05,2.56,3.89,3.89,0,0,1-2.73,1h-9.71v32.41a3.52,3.52,0,0,1-1.17,2.69,4.13,4.13,0,0,1-2.91,1.08,3.91,3.91,0,0,1-2.84-1.08,3.61,3.61,0,0,1-1.12-2.69V70.05h-9.71a3.81,3.81,0,0,1-2.72-1,3.4,3.4,0,0,1-1-2.6,3.27,3.27,0,0,1,1.08-2.53,3.85,3.85,0,0,1,2.69-1Zm39-.06a3.41,3.41,0,0,1,2.6,1,3.81,3.81,0,0,1,1,2.72V89a18.57,18.57,0,0,1-2.17,9.09,15.53,15.53,0,0,1-6.06,6.18,17.56,17.56,0,0,1-8.9,2.23,17.76,17.76,0,0,1-8.94-2.23,15.48,15.48,0,0,1-6.09-6.18A18.57,18.57,0,0,1,277.61,89V66.65A3.58,3.58,0,0,1,278.73,64a3.91,3.91,0,0,1,2.84-1.08,3.74,3.74,0,0,1,3.71,3.77V89a10.61,10.61,0,0,0,1.3,5.29,9.1,9.1,0,0,0,3.49,3.55,9.48,9.48,0,0,0,4.74,1.24,10.32,10.32,0,0,0,5-1.24,9.47,9.47,0,0,0,3.72-3.55A10.16,10.16,0,0,0,304.89,89V66.65a4,4,0,0,1,.93-2.72A3.19,3.19,0,0,1,308.35,62.88Zm29.44.06a17.21,17.21,0,0,1,10,2.87,18.31,18.31,0,0,1,6.37,7.8,28.6,28.6,0,0,1,0,22,18.31,18.31,0,0,1-6.37,7.8,17.21,17.21,0,0,1-10,2.87H323a3.69,3.69,0,0,1-3.77-3.77V66.71A3.69,3.69,0,0,1,323,62.94Zm-.62,36.18q5.56,0,8.35-4.11a18.21,18.21,0,0,0,2.78-10.43,18,18,0,0,0-2.81-10.42,9.44,9.44,0,0,0-8.32-4.11H327V99.12Zm48.8,0a3.66,3.66,0,0,1,2.69,1.08,3.45,3.45,0,0,1,1.08,2.51,3.27,3.27,0,0,1-1.08,2.53,3.84,3.84,0,0,1-2.69,1H365.25a3.69,3.69,0,0,1-3.77-3.77V66.71a3.69,3.69,0,0,1,3.77-3.77H386a3.77,3.77,0,0,1,2.69,1,3.46,3.46,0,0,1,1.08,2.63,3.23,3.23,0,0,1-1.05,2.5,3.88,3.88,0,0,1-2.72,1H369.21V80.56h14a3.74,3.74,0,0,1,2.69,1A3.44,3.44,0,0,1,387,84.21a3.25,3.25,0,0,1-1,2.51,3.88,3.88,0,0,1-2.72,1h-14V99.12Zm41.75-36.18a3.15,3.15,0,0,1,2.41,1,3.46,3.46,0,0,1,.93,2.47v36.06a3.71,3.71,0,0,1-3.78,3.77,5.27,5.27,0,0,1-1.7-.28,2.34,2.34,0,0,1-1.2-.77l-22.7-28.82v26.41a3.4,3.4,0,0,1-1,2.47,3.32,3.32,0,0,1-2.5,1,3.17,3.17,0,0,1-2.42-1,3.5,3.5,0,0,1-.92-2.47V66.71a3.69,3.69,0,0,1,3.77-3.77,4.63,4.63,0,0,1,1.82.37,3,3,0,0,1,1.33,1L424.32,93V66.4a3.44,3.44,0,0,1,.95-2.47A3.27,3.27,0,0,1,427.72,62.94Zm39.09,0a3.81,3.81,0,0,1,2.72,1,3.4,3.4,0,0,1,1.05,2.6,3.3,3.3,0,0,1-1.05,2.56,3.88,3.88,0,0,1-2.72,1H457.1v32.41a3.52,3.52,0,0,1-1.18,2.69,4.13,4.13,0,0,1-2.91,1.08,3.91,3.91,0,0,1-2.84-1.08,3.61,3.61,0,0,1-1.12-2.69V70.05h-9.71a3.81,3.81,0,0,1-2.72-1,3.4,3.4,0,0,1-1.05-2.6,3.27,3.27,0,0,1,1.08-2.53,3.85,3.85,0,0,1,2.69-1Zm57.58,37.23a3.65,3.65,0,0,1,1.26,1.3,3.3,3.3,0,0,1,.47,1.67,3.22,3.22,0,0,1-.74,2,3.51,3.51,0,0,1-2.85,1.11,5.47,5.47,0,0,1-2.72-.68q-4.45-2.53-4.45-10.33a4.49,4.49,0,0,0-1.46-3.52,6,6,0,0,0-4.17-1.3H498.16v12a4.09,4.09,0,0,1-.89,2.72,3,3,0,0,1-2.39,1,4.81,4.81,0,0,1-3.12-1.08,3.33,3.33,0,0,1-1.33-2.69V66.71a3.69,3.69,0,0,1,3.77-3.77H512a11.52,11.52,0,0,1,6.06,1.73,12.75,12.75,0,0,1,4.54,4.76,13.61,13.61,0,0,1,1.7,6.81,12,12,0,0,1-1.67,6,13.34,13.34,0,0,1-4.33,4.67,9.46,9.46,0,0,1,4.27,7.29,9.91,9.91,0,0,1,.19,1.92,19.58,19.58,0,0,0,.49,2.75A2.06,2.06,0,0,0,524.39,100.17ZM511.71,84.09a3.07,3.07,0,0,0,2.16-1,7.92,7.92,0,0,0,1.73-2.82,10.3,10.3,0,0,0,.68-3.8,7.29,7.29,0,0,0-.68-3.18,6.42,6.42,0,0,0-1.73-2.32,3.36,3.36,0,0,0-2.16-.87H498.16v14Zm58.44.49a23.4,23.4,0,0,1-2.72,11.23,20.85,20.85,0,0,1-7.51,8.07,21.1,21.1,0,0,1-21.59,0,20.63,20.63,0,0,1-7.48-8.07,24.77,24.77,0,0,1,0-22.45,20.63,20.63,0,0,1,7.48-8.07,21.1,21.1,0,0,1,21.59,0,20.85,20.85,0,0,1,7.51,8.07A23.39,23.39,0,0,1,570.15,84.58Zm-8,0a16.6,16.6,0,0,0-1.67-7.51,13.43,13.43,0,0,0-4.64-5.35,11.73,11.73,0,0,0-6.68-2,11.87,11.87,0,0,0-6.71,2A13.09,13.09,0,0,0,537.84,77a18.18,18.18,0,0,0,0,15.09,13.09,13.09,0,0,0,4.57,5.35,11.87,11.87,0,0,0,6.71,2,11.73,11.73,0,0,0,6.68-2,13.43,13.43,0,0,0,4.64-5.35A16.62,16.62,0,0,0,562.11,84.58Zm39.15-2.35a12.48,12.48,0,0,1,5.35,4,10.87,10.87,0,0,1,2.07,6.87c0,4.9-1.4,8.33-4.2,10.26a17.15,17.15,0,0,1-10,2.91h-15.4a3.69,3.69,0,0,1-3.77-3.77V66.71a3.69,3.69,0,0,1,3.77-3.77h15.58q11.76,0,11.76,11a8.86,8.86,0,0,1-5.14,8.28Zm-2.9-6.92a5.21,5.21,0,0,0-1.27-3.81,4.84,4.84,0,0,0-3.56-1.26h-10.2v9.64h10.39A4.73,4.73,0,0,0,597,78.65,4.25,4.25,0,0,0,598.36,75.31Zm-3.9,23.81A6.39,6.39,0,0,0,599,97.57a5.9,5.9,0,0,0,1.63-4.51c0-2.43-.63-4-1.91-4.76a9.16,9.16,0,0,0-4.7-1.12h-10.7V99.12Zm59.19-14.54a23.51,23.51,0,0,1-2.72,11.23,20.88,20.88,0,0,1-7.52,8.07,21.09,21.09,0,0,1-21.58,0,20.66,20.66,0,0,1-7.49-8.07,24.77,24.77,0,0,1,0-22.45,20.66,20.66,0,0,1,7.49-8.07,21.09,21.09,0,0,1,21.58,0,20.88,20.88,0,0,1,7.52,8.07A23.5,23.5,0,0,1,653.65,84.58Zm-8,0a16.73,16.73,0,0,0-1.67-7.51,13.51,13.51,0,0,0-4.64-5.35,12.39,12.39,0,0,0-13.39,0A13.11,13.11,0,0,0,621.33,77a18.18,18.18,0,0,0,0,15.09,13.11,13.11,0,0,0,4.58,5.35,12.39,12.39,0,0,0,13.39,0,13.51,13.51,0,0,0,4.64-5.35A16.75,16.75,0,0,0,645.61,84.58ZM686,62.94a3.83,3.83,0,0,1,2.73,1,3.4,3.4,0,0,1,1,2.6,3.3,3.3,0,0,1-1,2.56,3.91,3.91,0,0,1-2.73,1h-9.71v32.41a3.52,3.52,0,0,1-1.17,2.69,4.13,4.13,0,0,1-2.91,1.08,3.91,3.91,0,0,1-2.84-1.08,3.61,3.61,0,0,1-1.12-2.69V70.05h-9.71a3.81,3.81,0,0,1-2.72-1,3.4,3.4,0,0,1-1-2.6,3.27,3.27,0,0,1,1.08-2.53,3.85,3.85,0,0,1,2.69-1Zm16,39.52a3.52,3.52,0,0,1-1.17,2.69,3.91,3.91,0,0,1-2.72,1.08,3.75,3.75,0,0,1-2.76-1.08,3.66,3.66,0,0,1-1.08-2.69V66.71A3.58,3.58,0,0,1,695.4,64a3.91,3.91,0,0,1,2.84-1.08A3.68,3.68,0,0,1,700.9,64,3.61,3.61,0,0,1,702,66.71ZM739.62,65a3.32,3.32,0,0,1,1.91,3.16,4.22,4.22,0,0,1-.92,2.53,3.05,3.05,0,0,1-2.54,1.3,4.47,4.47,0,0,1-2.1-.56,15.23,15.23,0,0,0-6.56-1.42,15,15,0,0,0-7.54,1.83,12.25,12.25,0,0,0-5,5.13,16,16,0,0,0-1.73,7.57q0,7.31,3.92,11.08A15.92,15.92,0,0,0,736,98a5,5,0,0,1,2-.5,3.38,3.38,0,0,1,2.72,1.36,4,4,0,0,1,.93,2.54,3.33,3.33,0,0,1-.5,1.79,3.19,3.19,0,0,1-1.42,1.24,22.64,22.64,0,0,1-10.27,2.41,24.3,24.3,0,0,1-11.13-2.57,19.73,19.73,0,0,1-8.1-7.57,23,23,0,0,1-3-12.13A22.38,22.38,0,0,1,710,73.27a20.49,20.49,0,0,1,8-7.83,23.22,23.22,0,0,1,11.44-2.81A22,22,0,0,1,739.62,65ZM760,106.85a26,26,0,0,1-7.92-1.11,18.33,18.33,0,0,1-6.49-3.78A4.32,4.32,0,0,1,744,98.69a3.5,3.5,0,0,1,1-2.51,3.4,3.4,0,0,1,2.53-1.08,3.31,3.31,0,0,1,2.11.74,18.21,18.21,0,0,0,4.82,3,15.11,15.11,0,0,0,5.57.93,11.11,11.11,0,0,0,6-1.55,4.48,4.48,0,0,0,2.51-3.83A4.92,4.92,0,0,0,766,90c-1.65-1-4.27-1.85-7.86-2.38q-13.54-2-13.54-12.62a11.37,11.37,0,0,1,2-6.77,12.94,12.94,0,0,1,5.56-4.4,19.71,19.71,0,0,1,7.86-1.51,22.57,22.57,0,0,1,7.33,1.17,17.9,17.9,0,0,1,5.72,3.1,4.14,4.14,0,0,1,1.79,3.28,3.49,3.49,0,0,1-1,2.5,3.35,3.35,0,0,1-2.47,1.08,2.7,2.7,0,0,1-1.67-.55,16.57,16.57,0,0,0-4.49-2.39,14.86,14.86,0,0,0-5.16-1.08,10.62,10.62,0,0,0-6,1.46,4.61,4.61,0,0,0,.06,7.82,20.76,20.76,0,0,0,6.9,2.23,35.32,35.32,0,0,1,8.5,2.38,10.86,10.86,0,0,1,4.79,4,12.07,12.07,0,0,1,1.61,6.64,11.14,11.14,0,0,1-2.19,6.84,14.16,14.16,0,0,1-5.85,4.51A19.59,19.59,0,0,1,760,106.85Z" transform="translate(-65.97 -25.58)"/>
      <path id="Combined-Shape" class="cls-4" d="M171.74,122a59.38,59.38,0,0,1-92.39.5c23.79-24.67,43.46-18.66,43.46-27.42C122.81,86,88.88,80,88.88,73.62s19.93-11.09,36.91-11.13,36.91,4.83,36.91,11.13S128.76,86,128.76,95.09c0,8.7,19.4,2.83,43,26.92Zm4.93-7.22q-18.94-15.87-35.29-19.7c5.41-4.36,35.82-15.45,35.82-21.38S151.05,53.7,126,53.54h-.44c-25,.16-51.19,14.27-51.19,20.17s30.41,17,35.81,21.38Q93.6,99,74.31,115.3a59.38,59.38,0,1,1,102.36-.51Z" transform="translate(-65.97 -25.58)"/>
    </g>
    <text class="cls-5" transform="translate(84.43 239.91)"><tspan class="cls-6">V</tspan><tspan x="61.19" y="0">O</tspan><tspan class="cls-7" x="132.86" y="0">L</tspan><tspan x="180.77" y="0">UNTEER</tspan></text>
  </g>
</svg>
