<?xml version="1.0" encoding="UTF-8"?>
<svg width="1085px" height="635px" viewBox="0 0 1085 635" version="1.1" xmlns="http://www.w3.org/2000/svg" xmlns:xlink="http://www.w3.org/1999/xlink">
    <!-- Generator: Sketch 53.2 (72643) - https://sketchapp.com -->
    <title>Business Card - Back - Version B</title>
    <desc>Created with Sketch.</desc>
    <g id="Business-Card---Back---Version-B" stroke="none" stroke-width="1" fill="none" fill-rule="evenodd">
        <rect fill="#FFFFFF" x="0" y="0" width="1085" height="635"></rect>
        <rect id="Rectangle" fill="#3270ED" x="0" y="0" width="1085" height="635"></rect>
        <g id="logo-text-white" transform="translate(46.000000, 235.000000)" fill="#FFFFFF" fill-rule="nonzero">
            <path d="M215.512195,113.25 C211.356077,113.25 207.661805,112.731255 204.429268,111.69375 C201.196732,110.656245 198.166274,108.898276 195.337805,106.419792 C193.77926,105.036451 193,103.509036 193,101.8375 C193,100.511799 193.490646,99.344623 194.471951,98.3359375 C195.453257,97.327252 196.636578,96.8229167 198.021951,96.8229167 C199.118704,96.8229167 200.099995,97.1687465 200.965854,97.8604167 C203.274808,99.7625093 205.526005,101.145829 207.719512,102.010417 C209.913019,102.875004 212.510554,103.307292 215.512195,103.307292 C218.744732,103.307292 221.529866,102.586813 223.867683,101.145833 C226.2055,99.7048541 227.37439,97.918066 227.37439,95.7854167 C227.37439,93.1916539 226.21993,91.1599031 223.910976,89.6901042 C221.602021,88.2203052 217.93661,87.1107675 212.914634,86.3614583 C200.273107,84.5170047 193.952439,78.6378968 193.952439,68.7239583 C193.952439,65.09269 194.904869,61.9369927 196.809756,59.2567708 C198.714643,56.576549 201.312178,54.5303891 204.602439,53.1182292 C207.892699,51.7060692 211.55811,51 215.59878,51 C219.235384,51 222.655472,51.5475638 225.859146,52.6427083 C229.062821,53.7378529 231.732509,55.1788103 233.868293,56.965625 C235.542285,58.2913259 236.379268,59.8187414 236.379268,61.5479167 C236.379268,62.8736176 235.888623,64.0407937 234.907317,65.0494792 C233.926012,66.0581647 232.771552,66.5625 231.443902,66.5625 C230.578044,66.5625 229.798784,66.3031278 229.106098,65.784375 C227.605277,64.5739521 225.512818,63.4644147 222.828659,62.4557292 C220.144499,61.4470437 217.734564,60.9427083 215.59878,60.9427083 C211.962177,60.9427083 209.148181,61.6199586 207.156707,62.9744792 C205.165234,64.3289997 204.169512,66.1013779 204.169512,68.2916667 C204.169512,70.7701511 205.194096,72.6433964 207.243293,73.9114583 C209.29249,75.1795202 212.510547,76.2170099 216.897561,77.0239583 C221.861813,77.8885458 225.83027,78.9980836 228.803049,80.3526042 C231.775828,81.7071247 234.012594,83.5515507 235.513415,85.8859375 C237.014235,88.2203243 237.764634,91.3183836 237.764634,95.1802083 C237.764634,98.8114767 236.740051,101.995993 234.690854,104.733854 C232.641657,107.471715 229.914244,109.575514 226.508537,111.045312 C223.102829,112.515111 219.437418,113.25 215.512195,113.25 Z M284.780488,51.8645833 C286.339032,51.8645833 287.608938,52.3256898 288.590244,53.2479167 C289.571549,54.1701435 290.062195,55.3805481 290.062195,56.8791667 C290.062195,58.3777853 289.571549,59.5737803 288.590244,60.4671875 C287.608938,61.3605947 286.339032,61.8072917 284.780488,61.8072917 L271.186585,61.8072917 L271.186585,107.111458 C271.186585,108.610077 270.638217,109.86371 269.541463,110.872396 C268.44471,111.881081 267.088219,112.385417 265.471951,112.385417 C263.855683,112.385417 262.528054,111.881081 261.489024,110.872396 C260.449995,109.86371 259.930488,108.610077 259.930488,107.111458 L259.930488,61.8072917 L246.336585,61.8072917 C244.778041,61.8072917 243.508135,61.3461852 242.526829,60.4239583 C241.545524,59.5017315 241.054878,58.2913269 241.054878,56.7927083 C241.054878,55.3517287 241.559954,54.1701435 242.570122,53.2479167 C243.58029,52.3256898 244.835765,51.8645833 246.336585,51.8645833 L284.780488,51.8645833 Z M339.415854,51.778125 C340.916674,51.778125 342.128857,52.2680505 343.052439,53.2479167 C343.976021,54.2277828 344.437805,55.4958254 344.437805,57.0520833 L344.437805,88.35 C344.437805,93.1340519 343.427653,97.3704677 341.407317,101.059375 C339.386982,104.748282 336.558555,107.630198 332.921951,109.705208 C329.285347,111.780219 325.129292,112.817708 320.453659,112.817708 C315.778025,112.817708 311.607539,111.780219 307.942073,109.705208 C304.276608,107.630198 301.43375,104.748282 299.413415,101.059375 C297.393079,97.3704677 296.382927,93.1340519 296.382927,88.35 L296.382927,57.0520833 C296.382927,55.5534647 296.902434,54.2998313 297.941463,53.2911458 C298.980493,52.2824603 300.308122,51.778125 301.92439,51.778125 C303.309763,51.778125 304.521946,52.2824603 305.560976,53.2911458 C306.600005,54.2998313 307.119512,55.5534647 307.119512,57.0520833 L307.119512,88.35 C307.119512,91.1166805 307.725604,93.5807184 308.937805,95.7421875 C310.150006,97.9036566 311.780681,99.5607581 313.829878,100.713542 C315.879075,101.866325 318.08698,102.442708 320.453659,102.442708 C322.935785,102.442708 325.259136,101.866325 327.42378,100.713542 C329.588425,99.5607581 331.320115,97.9036566 332.618902,95.7421875 C333.91769,93.5807184 334.567073,91.1166805 334.567073,88.35 L334.567073,57.0520833 C334.567073,55.4958254 334.999996,54.2277828 335.865854,53.2479167 C336.731712,52.2680505 337.915033,51.778125 339.415854,51.778125 Z M380.630488,51.8645833 C386.056529,51.8645833 390.717662,53.204674 394.614024,55.8848958 C398.510387,58.5651177 401.483119,62.1963313 403.532317,66.7786458 C405.581516,71.3609603 406.606098,76.4763606 406.606098,82.125 C406.606098,87.7736394 405.581516,92.8890397 403.532317,97.4713542 C401.483119,102.053669 398.510387,105.684882 394.614024,108.365104 C390.717662,111.045326 386.056529,112.385417 380.630488,112.385417 L359.936585,112.385417 C358.435767,112.385417 357.180289,111.881081 356.170122,110.872396 C355.159955,109.86371 354.654878,108.610077 354.654878,107.111458 L354.654878,57.1385417 C354.654878,55.6399231 355.159955,54.3862897 356.170122,53.3776042 C357.180289,52.3689187 358.435767,51.8645833 359.936585,51.8645833 L380.630488,51.8645833 Z M379.764634,102.442708 C384.95978,102.442708 388.856084,100.526235 391.453659,96.6932292 C394.051233,92.8602238 395.35,88.0041961 395.35,82.125 C395.35,76.2458039 394.036801,71.3897762 391.410366,67.5567708 C388.78393,63.7237655 384.902059,61.8072917 379.764634,61.8072917 L365.478049,61.8072917 L365.478049,102.442708 L379.764634,102.442708 Z M448.080488,102.442708 C449.581307,102.442708 450.836784,102.947044 451.846951,103.955729 C452.857118,104.964415 453.362195,106.131591 453.362195,107.457292 C453.362195,108.898271 452.857118,110.079856 451.846951,111.002083 C450.836784,111.92431 449.581307,112.385417 448.080488,112.385417 L419.07439,112.385417 C417.573571,112.385417 416.318094,111.881081 415.307927,110.872396 C414.29776,109.86371 413.792683,108.610077 413.792683,107.111458 L413.792683,57.1385417 C413.792683,55.6399231 414.29776,54.3862897 415.307927,53.3776042 C416.318094,52.3689187 417.573571,51.8645833 419.07439,51.8645833 L448.080488,51.8645833 C449.581307,51.8645833 450.836784,52.3400993 451.846951,53.2911458 C452.857118,54.2421923 453.362195,55.4670064 453.362195,56.965625 C453.362195,58.4066046 452.87155,59.5737803 451.890244,60.4671875 C450.908937,61.3605947 449.639031,61.8072917 448.080488,61.8072917 L424.615854,61.8072917 L424.615854,76.5052083 L444.184146,76.5052083 C445.684965,76.5052083 446.940443,76.9807243 447.95061,77.9317708 C448.960777,78.8828173 449.465854,80.1076314 449.465854,81.60625 C449.465854,83.0472293 448.975209,84.2144053 447.993902,85.1078125 C447.012596,86.0012197 445.74269,86.4479167 444.184146,86.4479167 L424.615854,86.4479167 L424.615854,102.442708 L448.080488,102.442708 Z M506.52561,51.8645833 C507.910983,51.8645833 509.036582,52.3256898 509.902439,53.2479167 C510.768296,54.1701435 511.20122,55.3229097 511.20122,56.70625 L511.20122,107.111458 C511.20122,108.610077 510.696143,109.86371 509.685976,110.872396 C508.675808,111.881081 507.420331,112.385417 505.919512,112.385417 C505.111376,112.385417 504.317686,112.255731 503.538415,111.996354 C502.759143,111.736978 502.196345,111.376738 501.85,110.915625 L470.073171,70.6260417 L470.073171,107.54375 C470.073171,108.92709 469.625819,110.079856 468.731098,111.002083 C467.836376,111.92431 466.667488,112.385417 465.22439,112.385417 C463.839017,112.385417 462.713418,111.92431 461.847561,111.002083 C460.981704,110.079856 460.54878,108.92709 460.54878,107.54375 L460.54878,57.1385417 C460.54878,55.6399231 461.053857,54.3862897 462.064024,53.3776042 C463.074192,52.3689187 464.329669,51.8645833 465.830488,51.8645833 C466.696345,51.8645833 467.54776,52.0374983 468.384756,52.3833333 C469.221753,52.7291684 469.842275,53.1902749 470.246341,53.7666667 L501.763415,93.8833333 L501.763415,56.70625 C501.763415,55.3229097 502.210767,54.1701435 503.105488,53.2479167 C504.000209,52.3256898 505.140237,51.8645833 506.52561,51.8645833 Z M561.247561,51.8645833 C562.806104,51.8645833 564.07601,52.3256898 565.057317,53.2479167 C566.038624,54.1701435 566.529268,55.3805481 566.529268,56.8791667 C566.529268,58.3777853 566.038624,59.5737803 565.057317,60.4671875 C564.07601,61.3605947 562.806104,61.8072917 561.247561,61.8072917 L547.653659,61.8072917 L547.653659,107.111458 C547.653659,108.610077 547.105289,109.86371 546.008537,110.872396 C544.911784,111.881081 543.555293,112.385417 541.939024,112.385417 C540.322756,112.385417 538.995129,111.881081 537.956098,110.872396 C536.917066,109.86371 536.397561,108.610077 536.397561,107.111458 L536.397561,61.8072917 L522.803659,61.8072917 C521.245115,61.8072917 519.975209,61.3461852 518.993902,60.4239583 C518.012596,59.5017315 517.521951,58.2913269 517.521951,56.7927083 C517.521951,55.3517287 518.027028,54.1701435 519.037195,53.2479167 C520.047362,52.3256898 521.30284,51.8645833 522.803659,51.8645833 L561.247561,51.8645833 Z M641.858537,103.9125 C642.608948,104.373613 643.200606,104.978816 643.633537,105.728125 C644.066467,106.477434 644.282927,107.255552 644.282927,108.0625 C644.282927,109.100005 643.936589,110.051037 643.243902,110.915625 C642.378045,111.95313 641.050415,112.471875 639.260976,112.471875 C637.875603,112.471875 636.605697,112.154864 635.45122,111.520833 C631.295101,109.157627 629.217073,104.344828 629.217073,97.0822917 C629.217073,95.0072813 628.538829,93.3645896 627.182317,92.1541667 C625.825805,90.9437438 623.877655,90.3385417 621.337805,90.3385417 L605.146341,90.3385417 L605.146341,107.111458 C605.146341,108.667716 604.72785,109.935759 603.890854,110.915625 C603.053857,111.895491 601.94269,112.385417 600.557317,112.385417 C598.883324,112.385417 597.425819,111.881081 596.184756,110.872396 C594.943693,109.86371 594.323171,108.610077 594.323171,107.111458 L594.323171,57.1385417 C594.323171,55.6399231 594.828247,54.3862897 595.838415,53.3776042 C596.848582,52.3689187 598.104059,51.8645833 599.604878,51.8645833 L624.541463,51.8645833 C627.543104,51.8645833 630.37153,52.6715197 633.026829,54.2854167 C635.682129,55.8993136 637.803446,58.1183885 639.390854,60.9427083 C640.978261,63.7670282 641.771951,66.937135 641.771951,70.453125 C641.771951,73.3350839 640.99269,76.1449517 639.434146,78.8828125 C637.875603,81.6206733 635.855296,83.7965197 633.373171,85.4104167 C637.009773,87.9465405 639.00122,91.3472009 639.347561,95.6125 C639.520732,96.5347268 639.607317,97.4281205 639.607317,98.2927083 C639.838213,100.079523 640.069105,101.361975 640.3,102.140104 C640.530895,102.918233 641.050401,103.509026 641.858537,103.9125 Z M624.108537,81.4333333 C625.147568,81.4333333 626.157718,80.9434078 627.139024,79.9635417 C628.120331,78.9836755 628.928453,77.6724041 629.563415,76.0296875 C630.198376,74.3869709 630.515854,72.6145927 630.515854,70.7125 C630.515854,69.098603 630.198376,67.6144164 629.563415,66.2598958 C628.928453,64.9053753 628.120331,63.8246568 627.139024,63.0177083 C626.157718,62.2107599 625.147568,61.8072917 624.108537,61.8072917 L605.146341,61.8072917 L605.146341,81.4333333 L624.108537,81.4333333 Z M705.931707,82.125 C705.931707,87.8312784 704.661801,93.0619553 702.121951,97.8171875 C699.582101,102.57242 696.075428,106.333319 691.601829,109.1 C687.12823,111.866681 682.091899,113.25 676.492683,113.25 C670.893467,113.25 665.857136,111.866681 661.383537,109.1 C656.909937,106.333319 653.417697,102.57242 650.906707,97.8171875 C648.395718,93.0619553 647.140244,87.8312784 647.140244,82.125 C647.140244,76.4187216 648.395718,71.1880447 650.906707,66.4328125 C653.417697,61.6775803 656.909937,57.9166805 661.383537,55.15 C665.857136,52.3833195 670.893467,51 676.492683,51 C682.091899,51 687.12823,52.3833195 691.601829,55.15 C696.075428,57.9166805 699.582101,61.6775803 702.121951,66.4328125 C704.661801,71.1880447 705.931707,76.4187216 705.931707,82.125 Z M694.67561,82.125 C694.67561,78.2631753 693.896348,74.7616477 692.337805,71.6203125 C690.779261,68.4789773 688.614648,65.9861203 685.843902,64.1416667 C683.073157,62.297213 679.956115,61.375 676.492683,61.375 C672.971526,61.375 669.840056,62.2828035 667.098171,64.0984375 C664.356286,65.9140715 662.220537,68.4069288 660.690854,71.5770833 C659.161171,74.7472379 658.396341,78.2631753 658.396341,82.125 C658.396341,85.9868247 659.161171,89.5027618 660.690854,92.6729167 C662.220537,95.8430716 664.356286,98.3359285 667.098171,100.151562 C669.840056,101.967196 672.971526,102.875 676.492683,102.875 C679.956115,102.875 683.073157,101.952787 685.843902,100.108333 C688.614648,98.2638797 690.779261,95.7710227 692.337805,92.6296875 C693.896348,89.4883523 694.67561,85.9868247 694.67561,82.125 Z M749.484146,78.8395833 C752.543512,80.0500062 755.040031,81.8944322 756.97378,84.3729167 C758.90753,86.8514011 759.87439,90.0503276 759.87439,93.9697917 C759.87439,100.828854 757.911808,105.612834 753.986585,108.321875 C750.061362,111.030916 745.385798,112.385417 739.959756,112.385417 L718.4,112.385417 C716.899181,112.385417 715.643704,111.881081 714.633537,110.872396 C713.623369,109.86371 713.118293,108.610077 713.118293,107.111458 L713.118293,57.1385417 C713.118293,55.6399231 713.623369,54.3862897 714.633537,53.3776042 C715.643704,52.3689187 716.899181,51.8645833 718.4,51.8645833 L740.219512,51.8645833 C751.187048,51.8645833 756.670732,56.9943931 756.670732,67.2541667 C756.670732,69.8479295 756.050209,72.1390525 754.809146,74.1276042 C753.568084,76.1161559 751.793101,77.6867998 749.484146,78.8395833 Z M745.414634,69.15625 C745.414634,66.7930436 744.822972,65.0206657 743.639634,63.8390625 C742.456296,62.6574593 740.79676,62.0666667 738.660976,62.0666667 L724.37439,62.0666667 L724.37439,75.5541667 L738.920732,75.5541667 C740.652446,75.5541667 742.167676,74.9777835 743.466463,73.825 C744.765251,72.6722165 745.414634,71.115982 745.414634,69.15625 Z M739.959756,102.442708 C742.672777,102.442708 744.794098,101.722229 746.32378,100.28125 C747.853463,98.8402707 748.618293,96.7364722 748.618293,93.9697917 C748.618293,90.5690804 747.723585,88.3500052 745.934146,87.3125 C744.144707,86.2749948 741.951233,85.75625 739.353659,85.75625 L724.37439,85.75625 L724.37439,102.442708 L739.959756,102.442708 Z M822.821951,82.125 C822.821951,87.8312784 821.552045,93.0619553 819.012195,97.8171875 C816.472345,102.57242 812.965672,106.333319 808.492073,109.1 C804.018474,111.866681 798.982143,113.25 793.382927,113.25 C787.783711,113.25 782.74738,111.866681 778.27378,109.1 C773.800181,106.333319 770.307941,102.57242 767.796951,97.8171875 C765.285962,93.0619553 764.030488,87.8312784 764.030488,82.125 C764.030488,76.4187216 765.285962,71.1880447 767.796951,66.4328125 C770.307941,61.6775803 773.800181,57.9166805 778.27378,55.15 C782.74738,52.3833195 787.783711,51 793.382927,51 C798.982143,51 804.018474,52.3833195 808.492073,55.15 C812.965672,57.9166805 816.472345,61.6775803 819.012195,66.4328125 C821.552045,71.1880447 822.821951,76.4187216 822.821951,82.125 Z M811.565854,82.125 C811.565854,78.2631753 810.786592,74.7616477 809.228049,71.6203125 C807.669505,68.4789773 805.504892,65.9861203 802.734146,64.1416667 C799.963401,62.297213 796.846359,61.375 793.382927,61.375 C789.86177,61.375 786.7303,62.2828035 783.988415,64.0984375 C781.24653,65.9140715 779.11078,68.4069288 777.581098,71.5770833 C776.051415,74.7472379 775.286585,78.2631753 775.286585,82.125 C775.286585,85.9868247 776.051415,89.5027618 777.581098,92.6729167 C779.11078,95.8430716 781.24653,98.3359285 783.988415,100.151562 C786.7303,101.967196 789.86177,102.875 793.382927,102.875 C796.846359,102.875 799.963401,101.952787 802.734146,100.108333 C805.504892,98.2638797 807.669505,95.7710227 809.228049,92.6296875 C810.786592,89.4883523 811.565854,85.9868247 811.565854,82.125 Z M868.106098,51.8645833 C869.664641,51.8645833 870.934547,52.3256898 871.915854,53.2479167 C872.89716,54.1701435 873.387805,55.3805481 873.387805,56.8791667 C873.387805,58.3777853 872.89716,59.5737803 871.915854,60.4671875 C870.934547,61.3605947 869.664641,61.8072917 868.106098,61.8072917 L854.512195,61.8072917 L854.512195,107.111458 C854.512195,108.610077 853.963826,109.86371 852.867073,110.872396 C851.770321,111.881081 850.413829,112.385417 848.797561,112.385417 C847.181293,112.385417 845.853665,111.881081 844.814634,110.872396 C843.775606,109.86371 843.256098,108.610077 843.256098,107.111458 L843.256098,61.8072917 L829.662195,61.8072917 C828.103652,61.8072917 826.833746,61.3461852 825.852439,60.4239583 C824.871132,59.5017315 824.380488,58.2913269 824.380488,56.7927083 C824.380488,55.3517287 824.885564,54.1701435 825.895732,53.2479167 C826.905899,52.3256898 828.161376,51.8645833 829.662195,51.8645833 L868.106098,51.8645833 Z M890.531707,107.111458 C890.531707,108.610077 889.983338,109.86371 888.886585,110.872396 C887.789833,111.881081 886.519927,112.385417 885.076829,112.385417 C883.518286,112.385417 882.233948,111.881081 881.22378,110.872396 C880.213613,109.86371 879.708537,108.610077 879.708537,107.111458 L879.708537,57.1385417 C879.708537,55.6399231 880.228042,54.3862897 881.267073,53.3776042 C882.306104,52.3689187 883.633732,51.8645833 885.25,51.8645833 C886.693098,51.8645833 887.934139,52.3689187 888.973171,53.3776042 C890.012202,54.3862897 890.531707,55.6399231 890.531707,57.1385417 L890.531707,107.111458 Z M943.17561,54.8041667 C944.965049,55.7263935 945.859756,57.1961706 945.859756,59.2135417 C945.859756,60.4239642 945.426833,61.6055498 944.560976,62.7583333 C943.637394,63.9687562 942.454073,64.5739583 941.010976,64.5739583 C940.029669,64.5739583 939.04838,64.3145858 938.067073,63.7958333 C935.238603,62.4701324 932.179286,61.8072917 928.889024,61.8072917 C924.848352,61.8072917 921.327251,62.6574569 918.32561,64.3578125 C915.323969,66.0581681 913.015049,68.4501583 911.39878,71.5338542 C909.782512,74.6175501 908.97439,78.147897 908.97439,82.125 C908.97439,88.9264229 910.807094,94.0850517 914.472561,97.6010417 C918.138028,101.117032 922.943467,102.875 928.889024,102.875 C932.410181,102.875 935.469498,102.212159 938.067073,100.886458 C939.106104,100.425345 940.029669,100.194792 940.837805,100.194792 C942.338627,100.194792 943.60853,100.828813 944.647561,102.096875 C945.513418,103.192019 945.946341,104.373605 945.946341,105.641667 C945.946341,106.563893 945.715449,107.399649 945.253659,108.148958 C944.791868,108.898267 944.128052,109.474651 943.262195,109.878125 C938.759732,112.126053 933.968725,113.25 928.889024,113.25 C923.232084,113.25 918.037014,112.054005 913.303659,109.661979 C908.570303,107.269953 904.789446,103.739607 901.960976,99.0708333 C899.132505,94.4020598 897.718293,88.7535055 897.718293,82.125 C897.718293,76.2458039 899.060352,70.9718985 901.744512,66.303125 C904.428672,61.6343515 908.137376,57.9887283 912.870732,55.3661458 C917.604087,52.7435634 922.943467,51.4322917 928.889024,51.4322917 C934.026449,51.4322917 938.788596,52.5562386 943.17561,54.8041667 Z M971.74878,113.25 C967.592662,113.25 963.89839,112.731255 960.665854,111.69375 C957.433317,110.656245 954.402861,108.898276 951.57439,106.419792 C950.015847,105.036451 949.236585,103.509036 949.236585,101.8375 C949.236585,100.511799 949.72723,99.344623 950.708537,98.3359375 C951.689843,97.327252 952.873164,96.8229167 954.258537,96.8229167 C955.355289,96.8229167 956.336582,97.1687465 957.202439,97.8604167 C959.511394,99.7625093 961.762592,101.145829 963.956098,102.010417 C966.149603,102.875004 968.747139,103.307292 971.74878,103.307292 C974.981317,103.307292 977.766453,102.586813 980.104268,101.145833 C982.442084,99.7048541 983.610976,97.918066 983.610976,95.7854167 C983.610976,93.1916539 982.456516,91.1599031 980.147561,89.6901042 C977.838606,88.2203052 974.173195,87.1107675 969.15122,86.3614583 C956.509694,84.5170047 950.189024,78.6378968 950.189024,68.7239583 C950.189024,65.09269 951.141453,61.9369927 953.046341,59.2567708 C954.95123,56.576549 957.548763,54.5303891 960.839024,53.1182292 C964.129286,51.7060692 967.794694,51 971.835366,51 C975.471969,51 978.892056,51.5475638 982.095732,52.6427083 C985.299408,53.7378529 987.969094,55.1788103 990.104878,56.965625 C991.778871,58.2913259 992.615854,59.8187414 992.615854,61.5479167 C992.615854,62.8736176 992.125209,64.0407937 991.143902,65.0494792 C990.162596,66.0581647 989.008136,66.5625 987.680488,66.5625 C986.814631,66.5625 986.035369,66.3031278 985.342683,65.784375 C983.841861,64.5739521 981.749404,63.4644147 979.065244,62.4557292 C976.381084,61.4470437 973.97115,60.9427083 971.835366,60.9427083 C968.198763,60.9427083 965.384766,61.6199586 963.393293,62.9744792 C961.401819,64.3289997 960.406098,66.1013779 960.406098,68.2916667 C960.406098,70.7701511 961.43068,72.6433964 963.479878,73.9114583 C965.529077,75.1795202 968.747133,76.2170099 973.134146,77.0239583 C978.098397,77.8885458 982.066854,78.9980836 985.039634,80.3526042 C988.012415,81.7071247 990.249181,83.5515507 991.75,85.8859375 C993.250819,88.2203243 994.00122,91.3183836 994.00122,95.1802083 C994.00122,98.8114767 992.976638,101.995993 990.927439,104.733854 C988.87824,107.471715 986.150829,109.575514 982.745122,111.045312 C979.339415,112.515111 975.674003,113.25 971.74878,113.25 Z" id="STUDENT-ROBOTICS"></path>
            <path d="M148.071962,134.797895 C141.698097,142.768741 133.812756,149.616733 124.682927,154.880109 C98.9649058,169.706631 67.2789967,169.706631 41.5609753,154.880109 C32.6991776,149.771254 25.0098685,143.169458 18.7372074,135.496996 C52.0436103,101.004834 79.5788098,109.407834 79.5788098,97.1614714 C79.5788098,84.4031119 32.0716538,76.0054036 32.0716538,67.1536611 C32.0716538,58.3404309 59.9787012,51.6461154 83.7445876,51.588031 C107.510474,51.6461154 135.417521,58.3404309 135.417521,67.1536611 C135.417521,76.0054036 87.9103654,84.4031119 87.9103654,97.1614714 C87.9103654,109.324391 115.071611,101.118386 148.071958,134.797899 L148.071962,134.797895 Z M154.984386,124.7125 C137.294463,109.909272 120.824715,100.725595 105.575143,97.1614714 C113.142983,91.0688367 155.719374,75.5699929 155.719374,67.2735065 C155.719374,59.0258657 119.109995,39.3111302 84.0559057,39.0792756 L84.0559057,39.0772127 C83.9521483,39.0772127 83.8483751,39.0773853 83.7445876,39.0777294 C83.6407998,39.0773853 83.5370269,39.0772127 83.4332692,39.0772127 L83.4332692,39.0792756 C48.3791797,39.3111302 11.7698015,59.0258657 11.7698015,67.2735065 C11.7698015,75.5699929 54.3461926,91.0688367 61.9140323,97.1614714 C46.4253761,100.781474 29.6779844,110.198618 11.6718572,125.412902 C4.15809606,112.791662 -3.20605697e-07,98.1914236 0,83 C-6.25809331e-07,53.3469562 15.8429536,25.9464136 41.5609753,11.1198916 C67.2789967,-3.70663053 98.9649058,-3.70663053 124.682927,11.1198916 C150.400949,25.9464136 166.243903,53.3469562 166.243902,83 C166.243903,97.9112201 162.237783,112.252862 154.984386,124.7125 Z" id="Combined-Shape"></path>
        </g>
        <text id="studentrobotics.org" font-family="OpenSans, Open Sans" font-size="32" font-weight="normal" letter-spacing="0.02666665" fill="#FFFFFF">
            <tspan x="396" y="588">studentrobotics.org</tspan>
        </text>
        <path d="M1502,964.830746 C1432.90675,1051.21899 1347.42896,1125.43771 1248.46083,1182.48232 C969.675236,1343.17256 626.197222,1343.17256 347.411631,1182.48232 C251.348972,1127.11241 167.996193,1055.56197 100,972.407626 C461.044307,598.580643 759.528268,689.652581 759.528268,556.926174 C759.528268,418.65073 244.54656,327.636142 244.54656,231.700718 C244.54656,136.182693 547.061383,63.6295207 804.685662,63 C1062.30994,63.6295207 1364.82476,136.182693 1364.82476,231.700718 C1364.82476,327.636142 849.843056,418.65073 849.843056,556.926174 C849.843056,688.748224 1144.27333,599.811322 1501.99996,964.830791 L1502,964.830746 Z M1575.8848,856.404711 C1384.02855,695.875847 1205.40572,596.286413 1040.01633,557.636416 C1122.09341,491.566793 1583.85611,323.494552 1583.85611,233.525966 C1583.85611,144.08707 1186.80871,-69.7030556 806.629213,-72.2173287 L806.629213,-72.2396991 C805.503912,-72.2396991 804.378438,-72.2378277 803.25281,-72.2340962 C802.127178,-72.2378277 801.001708,-72.2396991 799.876403,-72.2396991 L799.876403,-72.2173287 C419.696905,-69.7030556 22.6495066,144.08707 22.6495066,233.525966 C22.6495066,323.494552 484.412205,491.566793 566.489292,557.636416 C398.506907,596.892372 216.872894,699.013567 21.5872503,864 C-59.9033253,727.13301 -105.000003,568.805402 -105,404.066881 C-105.000007,82.5039582 66.8249211,-214.632439 345.749996,-375.413902 C624.675069,-536.195366 968.324931,-536.195366 1247.25,-375.413902 C1526.17508,-214.632439 1698.00001,82.5039582 1698,404.066881 C1698,565.766825 1654.55159,721.290166 1575.8848,856.404711 Z" id="Combined-Shape" fill-opacity="0.18435861" fill="#FFFFFF" fill-rule="nonzero"></path>
    </g>
</svg>