<?xml version="1.0" encoding="UTF-8" standalone="no"?>
<!-- Created with Inkscape (http://www.inkscape.org/) -->

<svg
   xmlns:dc="http://purl.org/dc/elements/1.1/"
   xmlns:cc="http://creativecommons.org/ns#"
   xmlns:rdf="http://www.w3.org/1999/02/22-rdf-syntax-ns#"
   xmlns:svg="http://www.w3.org/2000/svg"
   xmlns="http://www.w3.org/2000/svg"
   xmlns:sodipodi="http://sodipodi.sourceforge.net/DTD/sodipodi-0.dtd"
   xmlns:inkscape="http://www.inkscape.org/namespaces/inkscape"
   width="150cm"
   height="30cm"
   viewBox="0 0 1500 299.99999"
   version="1.1"
   id="svg8"
   inkscape:version="0.92.3 (2405546, 2018-03-11)"
   sodipodi:docname="Plain.svg"
   inkscape:export-filename="C:\Users\Tyler\Documents\srobo\tablecloths\Plain.png"
   inkscape:export-xdpi="100"
   inkscape:export-ydpi="100">
  <defs
     id="defs2" />
  <sodipodi:namedview
     id="base"
     pagecolor="#0000ff"
     bordercolor="#666666"
     borderopacity="1.0"
     inkscape:pageopacity="0"
     inkscape:pageshadow="2"
     inkscape:zoom="0.12374369"
     inkscape:cx="1668.6238"
     inkscape:cy="308.02237"
     inkscape:document-units="mm"
     inkscape:current-layer="layer1"
     showgrid="false"
     units="cm"
     inkscape:pagecheckerboard="true"
     inkscape:window-width="1600"
     inkscape:window-height="837"
     inkscape:window-x="-8"
     inkscape:window-y="-8"
     inkscape:window-maximized="1" />
  <metadata
     id="metadata5">
    <rdf:RDF>
      <cc:Work
         rdf:about="">
        <dc:format>image/svg+xml</dc:format>
        <dc:type
           rdf:resource="http://purl.org/dc/dcmitype/StillImage" />
        <dc:title></dc:title>
      </cc:Work>
    </rdf:RDF>
  </metadata>
  <g
     inkscape:label="Layer 1"
     inkscape:groupmode="layer"
     id="layer1"
     transform="translate(0,2.9999847)">
    <g
       id="Symbol-and-Text---White"
       style="fill:none;fill-rule:evenodd;stroke:none;stroke-width:1"
       transform="matrix(0.50527049,0,0,0.50527049,25.000006,25.735097)">
      <path
         id="STUDENT-ROBOTICS"
         d="m 622,328.5 c -12.00006,0 -22.66662,-1.49998 -32,-4.5 -9.33338,-3.00002 -18.08329,-8.0833 -26.25,-15.25 -4.50002,-4.00002 -6.75,-8.41664 -6.75,-13.25 0,-3.83335 1.41665,-7.20832 4.25,-10.125 2.83335,-2.91668 6.24998,-4.375 10.25,-4.375 3.16668,0 5.99999,0.99999 8.5,3 6.6667,5.50003 13.16664,9.49999 19.5,12 6.33336,2.50001 13.83329,3.75 22.5,3.75 9.33338,0 17.37497,-2.08331 24.125,-6.25 6.75003,-4.16669 10.125,-9.3333 10.125,-15.5 0,-7.50004 -3.3333,-13.37498 -10,-17.625 -6.6667,-4.25002 -17.24993,-7.45832 -31.75,-9.625 -36.50018,-5.33336 -54.75,-22.33319 -54.75,-51 0,-10.50005 2.74997,-19.62496 8.25,-27.375 5.50003,-7.75004 12.99995,-13.66665 22.5,-17.75 9.50005,-4.08335 20.08327,-6.125 31.75,-6.125 10.50005,0 20.37495,1.58332 29.625,4.75 9.25005,3.16668 16.9583,7.33331 23.125,12.5 4.83336,3.83335 7.25,8.24997 7.25,13.25 0,3.83335 -1.41665,7.20832 -4.25,10.125 -2.83335,2.91668 -6.16665,4.375 -10,4.375 -2.50001,0 -4.74999,-0.74999 -6.75,-2.25 -4.33335,-3.50002 -10.37496,-6.70832 -18.125,-9.625 -7.75004,-2.91668 -14.7083,-4.375 -20.875,-4.375 -10.50005,0 -18.62497,1.95831 -24.375,5.875 -5.75003,3.91669 -8.625,9.04164 -8.625,15.375 0,7.1667 2.9583,12.58331 8.875,16.25 5.9167,3.66668 15.20827,6.66665 27.875,9 14.3334,2.50001 25.79162,5.70831 34.375,9.625 8.58338,3.91669 15.04165,9.24997 19.375,16 4.33335,6.75003 6.5,15.70828 6.5,26.875 0,10.50005 -2.9583,19.70829 -8.875,27.625 -5.9167,7.91671 -13.79162,13.99998 -23.625,18.25 -9.83338,4.25002 -20.41661,6.375 -31.75,6.375 z M 822,151 c 4.50002,0 8.16665,1.33332 11,4 2.83335,2.66668 4.25,6.16664 4.25,10.5 0,4.33335 -1.41665,7.79165 -4.25,10.375 -2.83335,2.58335 -6.49998,3.875 -11,3.875 h -39.25 v 131 c 0,4.33335 -1.58332,7.95832 -4.75,10.875 -3.16668,2.91668 -7.08331,4.375 -11.75,4.375 -4.66669,0 -8.49999,-1.45832 -11.5,-4.375 -3.00001,-2.91668 -4.5,-6.54165 -4.5,-10.875 v -131 H 711 c -4.50002,0 -8.16665,-1.33332 -11,-4 -2.83335,-2.66668 -4.25,-6.16665 -4.25,-10.5 0,-4.16669 1.45832,-7.58332 4.375,-10.25 2.91668,-2.66668 6.54165,-4 10.875,-4 z m 157.75,-0.25 c 4.33335,0 7.83332,1.41665 10.5,4.25 2.66668,2.83335 4,6.49998 4,11 v 90.5 c 0,13.8334 -2.91664,26.08328 -8.75,36.75 -5.83336,10.66672 -13.99995,18.99997 -24.5,25 -10.50005,6.00003 -22.49993,9 -36,9 -13.50007,0 -25.54161,-2.99997 -36.125,-9 -10.58339,-6.00003 -18.79164,-14.33328 -24.625,-25 -5.83336,-10.66672 -8.75,-22.9166 -8.75,-36.75 V 166 c 0,-4.33336 1.49999,-7.95832 4.5,-10.875 3.00001,-2.91668 6.83331,-4.375 11.5,-4.375 4.00002,0 7.49999,1.45832 10.5,4.375 3.00001,2.91668 4.5,6.54164 4.5,10.875 v 90.5 c 0,8.00004 1.74998,15.12497 5.25,21.375 3.50002,6.25003 8.2083,11.04165 14.125,14.375 5.9167,3.33335 12.29163,5 19.125,5 7.1667,0 13.87497,-1.66665 20.125,-5 6.25003,-3.33335 11.24998,-8.12497 15,-14.375 3.75002,-6.25003 5.625,-13.37496 5.625,-21.375 V 166 c 0,-4.50002 1.24999,-8.16665 3.75,-11 2.50001,-2.83335 5.91665,-4.25 10.25,-4.25 z m 119,0.25 c 15.6667,0 29.1249,3.87496 40.375,11.625 11.2501,7.75004 19.8333,18.24993 25.75,31.5 5.9167,13.25007 8.875,28.04158 8.875,44.375 0,16.33341 -2.9583,31.12493 -8.875,44.375 -5.9167,13.25007 -14.4999,23.74996 -25.75,31.5 C 1127.8749,322.12504 1114.4167,326 1098.75,326 H 1039 c -4.3334,0 -7.9583,-1.45832 -10.875,-4.375 -2.9167,-2.91668 -4.375,-6.54165 -4.375,-10.875 v -144.5 c 0,-4.33336 1.4583,-7.95832 4.375,-10.875 2.9167,-2.91668 6.5416,-4.375 10.875,-4.375 z m -2.5,146.25 c 15.0001,0 26.25,-5.54161 33.75,-16.625 7.5,-11.08339 11.25,-25.12491 11.25,-42.125 0,-17.00009 -3.7916,-31.04161 -11.375,-42.125 -7.5834,-11.08339 -18.7916,-16.625 -33.625,-16.625 H 1055 v 117.5 z m 197.25,0 c 4.3334,0 7.9583,1.45832 10.875,4.375 2.9167,2.91668 4.375,6.29165 4.375,10.125 0,4.16669 -1.4583,7.58332 -4.375,10.25 -2.9167,2.66668 -6.5416,4 -10.875,4 h -83.75 c -4.3334,0 -7.9583,-1.45832 -10.875,-4.375 -2.9167,-2.91668 -4.375,-6.54165 -4.375,-10.875 v -144.5 c 0,-4.33336 1.4583,-7.95832 4.375,-10.875 2.9167,-2.91668 6.5416,-4.375 10.875,-4.375 h 83.75 c 4.3334,0 7.9583,1.37499 10.875,4.125 2.9167,2.75001 4.375,6.29164 4.375,10.625 0,4.16669 -1.4166,7.54165 -4.25,10.125 -2.8334,2.58335 -6.5,3.875 -11,3.875 h -67.75 v 42.5 h 56.5 c 4.3334,0 7.9583,1.37499 10.875,4.125 2.9167,2.75001 4.375,6.29164 4.375,10.625 0,4.16669 -1.4166,7.54165 -4.25,10.125 -2.8334,2.58335 -6.5,3.875 -11,3.875 h -56.5 v 46.25 z M 1462.25,151 c 4,0 7.25,1.33332 9.75,4 2.5,2.66668 3.75,5.99998 3.75,10 v 145.75 c 0,4.33335 -1.4583,7.95832 -4.375,10.875 -2.9167,2.91668 -6.5416,4.375 -10.875,4.375 -2.3334,0 -4.625,-0.375 -6.875,-1.125 -2.25,-0.75 -3.875,-1.79166 -4.875,-3.125 L 1357,205.25 V 312 c 0,4.00002 -1.2916,7.33332 -3.875,10 -2.5834,2.66668 -5.9583,4 -10.125,4 -4,0 -7.25,-1.33332 -9.75,-4 -2.5,-2.66668 -3.75,-5.99998 -3.75,-10 V 166.25 c 0,-4.33336 1.4583,-7.95832 4.375,-10.875 2.9167,-2.91668 6.5416,-4.375 10.875,-4.375 2.5,0 4.9583,0.5 7.375,1.5 2.4167,1 4.2083,2.33332 5.375,4 l 91,116 V 165 c 0,-4.00002 1.2916,-7.33332 3.875,-10 2.5834,-2.66668 5.875,-4 9.875,-4 z m 158,0 c 4.5,0 8.1666,1.33332 11,4 2.8334,2.66668 4.25,6.16664 4.25,10.5 0,4.33335 -1.4166,7.79165 -4.25,10.375 -2.8334,2.58335 -6.5,3.875 -11,3.875 H 1581 v 131 c 0,4.33335 -1.5833,7.95832 -4.75,10.875 -3.1667,2.91668 -7.0833,4.375 -11.75,4.375 -4.6667,0 -8.5,-1.45832 -11.5,-4.375 -3,-2.91668 -4.5,-6.54165 -4.5,-10.875 v -131 h -39.25 c -4.5,0 -8.1666,-1.33332 -11,-4 -2.8334,-2.66668 -4.25,-6.16665 -4.25,-10.5 0,-4.16669 1.4583,-7.58332 4.375,-10.25 2.9167,-2.66668 6.5416,-4 10.875,-4 z M 1853,301.5 c 2.1667,1.33334 3.875,3.08332 5.125,5.25 1.25,2.16668 1.875,4.41665 1.875,6.75 0,3.00002 -1,5.74999 -3,8.25 -2.5,3.00002 -6.3333,4.5 -11.5,4.5 -4,0 -7.6666,-0.91666 -11,-2.75 -12.0001,-6.83337 -18,-20.74989 -18,-41.75 0,-6.00003 -1.9583,-10.74998 -5.875,-14.25 -3.9167,-3.50002 -9.5416,-5.25 -16.875,-5.25 H 1747 v 48.5 c 0,4.50002 -1.2083,8.16665 -3.625,11 -2.4167,2.83335 -5.625,4.25 -9.625,4.25 -4.8334,0 -9.0416,-1.45832 -12.625,-4.375 -3.5834,-2.91668 -5.375,-6.54165 -5.375,-10.875 v -144.5 c 0,-4.33336 1.4583,-7.95832 4.375,-10.875 2.9167,-2.91668 6.5416,-4.375 10.875,-4.375 h 72 c 8.6667,0 16.8333,2.33331 24.5,7 7.6667,4.66669 13.7916,11.08329 18.375,19.25 4.5834,8.16671 6.875,17.33328 6.875,27.5 0,8.33337 -2.25,16.45829 -6.75,24.375 -4.5,7.91671 -10.3333,14.20831 -17.5,18.875 10.5001,7.33337 16.25,17.1666 17.25,29.5 0.5,2.66668 0.75,5.24999 0.75,7.75 0.6667,5.16669 1.3333,8.87499 2,11.125 0.6667,2.25001 2.1666,3.95833 4.5,5.125 z m -51.25,-65 c 3,0 5.9166,-1.41665 8.75,-4.25 2.8334,-2.83335 5.1667,-6.62498 7,-11.375 1.8333,-4.75002 2.75,-9.87497 2.75,-15.375 0,-4.66669 -0.9167,-8.95831 -2.75,-12.875 -1.8333,-3.91669 -4.1666,-7.04166 -7,-9.375 -2.8334,-2.33335 -5.75,-3.5 -8.75,-3.5 H 1747 v 56.75 z m 236.25,2 c 0,16.50008 -3.6666,31.62493 -11,45.375 -7.3334,13.75007 -17.4583,24.62496 -30.375,32.625 -12.9167,8.00004 -27.4582,12 -43.625,12 -16.1667,0 -30.7083,-3.99996 -43.625,-12 -12.9167,-8.00004 -23,-18.87493 -30.25,-32.625 -7.25,-13.75007 -10.875,-28.87492 -10.875,-45.375 0,-16.50008 3.625,-31.62493 10.875,-45.375 7.25,-13.75007 17.3333,-24.62496 30.25,-32.625 12.9167,-8.00004 27.4583,-12 43.625,-12 16.1668,0 30.7083,3.99996 43.625,12 12.9167,8.00004 23.0416,18.87493 30.375,32.625 7.3334,13.75007 11,28.87492 11,45.375 z m -32.5,0 c 0,-11.16672 -2.25,-21.29162 -6.75,-30.375 -4.5,-9.08338 -10.75,-16.29164 -18.75,-21.625 -8,-5.33336 -16.9999,-8 -27,-8 -10.1667,0 -19.2083,2.62497 -27.125,7.875 -7.9167,5.25003 -14.0833,12.45829 -18.5,21.625 -4.4167,9.16671 -6.625,19.33328 -6.625,30.5 0,11.16672 2.2083,21.33329 6.625,30.5 4.4167,9.16671 10.5833,16.37497 18.5,21.625 7.9167,5.25003 16.9583,7.875 27.125,7.875 10.0001,0 19,-2.66664 27,-8 8,-5.33336 14.25,-12.54162 18.75,-21.625 4.5,-9.08338 6.75,-19.20828 6.75,-30.375 z m 158.25,-9.5 c 8.8334,3.50002 16.0416,8.8333 21.625,16 5.5834,7.1667 8.375,16.41661 8.375,27.75 0,19.83343 -5.6666,33.66663 -17,41.5 -11.3334,7.83337 -24.8333,11.75 -40.5,11.75 H 2074 c -4.3333,0 -7.9583,-1.45832 -10.875,-4.375 -2.9167,-2.91668 -4.375,-6.54165 -4.375,-10.875 v -144.5 c 0,-4.33336 1.4583,-7.95832 4.375,-10.875 2.9167,-2.91668 6.5417,-4.375 10.875,-4.375 h 63 c 31.6668,0 47.5,14.83318 47.5,44.5 0,7.50004 -1.7917,14.12497 -5.375,19.875 -3.5833,5.75003 -8.7083,10.29165 -15.375,13.625 z M 2152,201 c 0,-6.83337 -1.7083,-11.95832 -5.125,-15.375 -3.4167,-3.41668 -8.2083,-5.125 -14.375,-5.125 h -41.25 v 39 h 42 c 5,0 9.375,-1.66665 13.125,-5 3.75,-3.33335 5.625,-7.83331 5.625,-13.5 z m -15.75,96.25 c 7.8334,0 13.9583,-2.08331 18.375,-6.25 4.4167,-4.16669 6.625,-10.24996 6.625,-18.25 0,-9.83338 -2.5833,-16.24998 -7.75,-19.25 -5.1667,-3.00002 -11.5,-4.5 -19,-4.5 h -43.25 v 48.25 z M 2375.5,238.5 c 0,16.50008 -3.6666,31.62493 -11,45.375 -7.3334,13.75007 -17.4583,24.62496 -30.375,32.625 -12.9167,8.00004 -27.4583,12 -43.625,12 -16.1667,0 -30.7083,-3.99996 -43.625,-12 -12.9167,-8.00004 -23,-18.87493 -30.25,-32.625 -7.25,-13.75007 -10.875,-28.87492 -10.875,-45.375 0,-16.50008 3.625,-31.62493 10.875,-45.375 7.25,-13.75007 17.3333,-24.62496 30.25,-32.625 12.9167,-8.00004 27.4583,-12 43.625,-12 16.1667,0 30.7083,3.99996 43.625,12 12.9167,8.00004 23.0416,18.87493 30.375,32.625 7.3334,13.75007 11,28.87492 11,45.375 z m -32.5,0 c 0,-11.16672 -2.25,-21.29162 -6.75,-30.375 -4.5,-9.08338 -10.75,-16.29164 -18.75,-21.625 -8,-5.33336 -16.9999,-8 -27,-8 -10.1667,0 -19.2083,2.62497 -27.125,7.875 -7.9167,5.25003 -14.0833,12.45829 -18.5,21.625 -4.4167,9.16671 -6.625,19.33328 -6.625,30.5 0,11.16672 2.2083,21.33329 6.625,30.5 4.4167,9.16671 10.5833,16.37497 18.5,21.625 7.9167,5.25003 16.9583,7.875 27.125,7.875 10.0001,0 19,-2.66664 27,-8 8,-5.33336 14.25,-12.54162 18.75,-21.625 4.5,-9.08338 6.75,-19.20828 6.75,-30.375 z M 2506.25,151 c 4.5,0 8.1667,1.33332 11,4 2.8333,2.66668 4.25,6.16664 4.25,10.5 0,4.33335 -1.4167,7.79165 -4.25,10.375 -2.8333,2.58335 -6.5,3.875 -11,3.875 H 2467 v 131 c 0,4.33335 -1.5833,7.95832 -4.75,10.875 -3.1667,2.91668 -7.0833,4.375 -11.75,4.375 -4.6667,0 -8.5,-1.45832 -11.5,-4.375 -3,-2.91668 -4.5,-6.54165 -4.5,-10.875 v -131 h -39.25 c -4.5,0 -8.1667,-1.33332 -11,-4 -2.8333,-2.66668 -4.25,-6.16665 -4.25,-10.5 0,-4.16669 1.4583,-7.58332 4.375,-10.25 2.9167,-2.66668 6.5417,-4 10.875,-4 z M 2571,310.75 c 0,4.33335 -1.5833,7.95832 -4.75,10.875 -3.1667,2.91668 -6.8333,4.375 -11,4.375 -4.5,0 -8.2083,-1.45832 -11.125,-4.375 -2.9167,-2.91668 -4.375,-6.54165 -4.375,-10.875 v -144.5 c 0,-4.33336 1.5,-7.95832 4.5,-10.875 3,-2.91668 6.8333,-4.375 11.5,-4.375 4.1667,0 7.75,1.45832 10.75,4.375 3,2.91668 4.5,6.54164 4.5,10.875 z M 2723,159.5 c 5.1667,2.66668 7.75,6.91664 7.75,12.75 0,3.50002 -1.25,6.91665 -3.75,10.25 -2.6667,3.50002 -6.0833,5.25 -10.25,5.25 -2.8333,0 -5.6667,-0.74999 -8.5,-2.25 -8.1667,-3.83335 -16.9999,-5.75 -26.5,-5.75 -11.6667,0 -21.8333,2.45831 -30.5,7.375 -8.6667,4.91669 -15.3333,11.83329 -20,20.75 -4.6667,8.91671 -7,19.12494 -7,30.625 0,19.66676 5.2916,34.58328 15.875,44.75 10.5834,10.16672 24.4583,15.25 41.625,15.25 10.1667,0 19,-1.91665 26.5,-5.75 3,-1.33334 5.6667,-2 8,-2 4.3334,0 8,1.83332 11,5.5 2.5,3.16668 3.75,6.58332 3.75,10.25 0,2.66668 -0.6667,5.08332 -2,7.25 -1.3333,2.16668 -3.25,3.83333 -5.75,5 -13.0001,6.50003 -26.8333,9.75 -41.5,9.75 -16.3334,0 -31.3333,-3.4583 -45,-10.375 -13.6667,-6.9167 -24.5833,-17.12493 -32.75,-30.625 -8.1667,-13.50007 -12.25,-29.83324 -12.25,-49 0,-17.00009 3.875,-32.24993 11.625,-45.75 7.75,-13.50007 18.4583,-24.04163 32.125,-31.625 13.6667,-7.58337 29.0833,-11.375 46.25,-11.375 14.8334,0 28.5833,3.24997 41.25,9.75 z m 82.5,169 c -12.0001,0 -22.6666,-1.49998 -32,-4.5 -9.3334,-3.00002 -18.0833,-8.0833 -26.25,-15.25 -4.5,-4.00002 -6.75,-8.41664 -6.75,-13.25 0,-3.83335 1.4167,-7.20832 4.25,-10.125 2.8333,-2.91668 6.25,-4.375 10.25,-4.375 3.1667,0 6,0.99999 8.5,3 6.6667,5.50003 13.1666,9.49999 19.5,12 6.3334,2.50001 13.8333,3.75 22.5,3.75 9.3334,0 17.375,-2.08331 24.125,-6.25 6.75,-4.16669 10.125,-9.3333 10.125,-15.5 0,-7.50004 -3.3333,-13.37498 -10,-17.625 -6.6667,-4.25002 -17.2499,-7.45832 -31.75,-9.625 -36.5002,-5.33336 -54.75,-22.33319 -54.75,-51 0,-10.50005 2.75,-19.62496 8.25,-27.375 5.5,-7.75004 13,-13.66665 22.5,-17.75 9.5001,-4.08335 20.0833,-6.125 31.75,-6.125 10.5001,0 20.375,1.58332 29.625,4.75 9.2501,3.16668 16.9583,7.33331 23.125,12.5 4.8334,3.83335 7.25,8.24997 7.25,13.25 0,3.83335 -1.4167,7.20832 -4.25,10.125 -2.8333,2.91668 -6.1667,4.375 -10,4.375 -2.5,0 -4.75,-0.74999 -6.75,-2.25 -4.3334,-3.50002 -10.375,-6.70832 -18.125,-9.625 -7.75,-2.91668 -14.7083,-4.375 -20.875,-4.375 -10.5,0 -18.625,1.95831 -24.375,5.875 -5.75,3.91669 -8.625,9.04164 -8.625,15.375 0,7.1667 2.9583,12.58331 8.875,16.25 5.9167,3.66668 15.2083,6.66665 27.875,9 14.3334,2.50001 25.7916,5.70831 34.375,9.625 8.5834,3.91669 15.0417,9.24997 19.375,16 4.3333,6.75003 6.5,15.70828 6.5,26.875 0,10.50005 -2.9583,19.70829 -8.875,27.625 -5.9167,7.91671 -13.7916,13.99998 -23.625,18.25 -9.8334,4.25002 -20.4166,6.375 -31.75,6.375 z"
         inkscape:connector-curvature="0"
         style="fill:#ffffff" />
      <path
         id="Combined-Shape"
         d="M 427.53172,389.77705 C 409.12831,412.82528 386.36077,432.6267 360,447.8461 c -74.25626,42.87187 -165.74374,42.87187 -240,0 C 94.413118,433.0735 72.211592,413.98397 54.100388,391.79854 150.26676,292.06217 229.7698,316.36 229.7698,280.94883 c 0,-36.89164 -137.168546,-61.17417 -137.168546,-86.76957 0,-25.48404 80.576686,-44.8411 149.196496,-45.00905 68.61982,0.16795 149.1965,19.52501 149.1965,45.00905 0,25.5954 -137.16855,49.87793 -137.16855,86.76957 0,35.16989 78.42332,11.44168 173.70601,108.82823 z m 19.95841,-29.16259 c -51.07654,-42.80452 -98.63004,-69.35973 -142.66049,-79.66563 21.8508,-17.61725 144.78264,-62.43319 144.78264,-86.42303 0,-23.8486 -105.70314,-80.85506 -206.91565,-81.52548 v -0.006 c -0.29958,0 -0.59921,5e-4 -0.89888,0.001 -0.29967,-9.9e-4 -0.59929,-0.001 -0.89887,-0.001 v 0.006 C 139.68636,113.67074 33.98323,170.6772 33.98323,194.5258 c 0,23.98984 122.93183,68.80578 144.78264,86.42303 C 134.0451,291.41631 85.689955,318.64661 33.700433,362.63972 12.00577,326.14457 -9.2569245e-7,283.92701 0,240 -1.8069142e-6,154.25626 45.743739,75.025774 120,32.153903 c 74.25626,-42.871871 165.74374,-42.871871 240,0 C 434.25626,75.025774 480,154.25626 480,240 c 0,43.11678 -11.56696,84.58659 -32.50987,120.61446 z"
         inkscape:connector-curvature="0"
         style="fill:#ffffff;fill-rule:nonzero" />
    </g>
  </g>
</svg>
