<?xml version="1.0" encoding="utf-8"?>
<!-- Generator: Adobe Illustrator 22.1.0, SVG Export Plug-In . SVG Version: 6.00 Build 0)  -->
<svg version="1.1" xmlns="http://www.w3.org/2000/svg" xmlns:xlink="http://www.w3.org/1999/xlink" x="0px" y="0px"
	 viewBox="0 0 841.9 1190.6" style="enable-background:new 0 0 841.9 1190.6;" xml:space="preserve">
<style type="text/css">
	.st0{fill:#3270ED;}
	.st1{fill:#FFFFFF;}
	.st2{fill:#FFFFFF;stroke:#FFFFFF;}
	.st3{fill:#FFFFFF;stroke:#FFFFFF;stroke-miterlimit:10;}
	.st4{display:none;}
	.st5{display:inline;fill:#FFFFFF;}
</style>
<g id="Background">
	<rect class="st0" width="841.9" height="1190.6"/>
</g>
<g id="Back1">
</g>
<g id="Back2">
	<g>
		<path class="st1" d="M307.5,341.7h5.9c2.1,0,3.6,0.6,4.5,1.7c0.9,1.1,1.4,2.8,1.4,4.9c0,1.9-0.5,3.5-1.5,4.5
			c-1,1.1-2.5,1.6-4.4,1.6h-2.6v11.1h-3.3V341.7z M312.4,352.1c1,0,1.7-0.1,2.3-0.3c0.5-0.2,0.9-0.6,1.2-1.1
			c0.2-0.5,0.4-1.3,0.4-2.3c0-1.2-0.1-2.1-0.3-2.7c-0.2-0.6-0.5-1-1-1.2c-0.5-0.2-1.3-0.4-2.5-0.4h-1.6v8H312.4z"/>
		<path class="st1" d="M321.5,348.5h3.2v2.4c0.6-1,1.2-1.6,1.8-2c0.6-0.4,1.3-0.6,2-0.6c0.2,0,0.3,0,0.5,0v3.5
			c-0.6-0.2-1.2-0.4-1.7-0.4c-0.5,0-1,0.1-1.4,0.4c-0.4,0.2-0.8,0.7-1.2,1.3v12.4h-3.2V348.5z"/>
		<path class="st1" d="M331.7,364.2c-0.8-1.1-1.1-2.6-1.1-4.7v-4.9c0-2,0.4-3.6,1.1-4.7s2-1.6,3.8-1.6c1.8,0,3.1,0.5,3.8,1.6
			c0.8,1.1,1.1,2.6,1.1,4.7v4.9c0,2-0.4,3.6-1.1,4.7c-0.8,1.1-2,1.6-3.8,1.6C333.8,365.8,332.5,365.3,331.7,364.2z M336.8,363
			c0.3-0.3,0.4-0.7,0.5-1.2c0.1-0.5,0.1-1.2,0.1-2v-5.3c0-0.8,0-1.5-0.1-2c-0.1-0.5-0.2-0.9-0.5-1.3c-0.3-0.3-0.7-0.5-1.2-0.5
			c-0.6,0-1,0.2-1.3,0.5c-0.3,0.3-0.4,0.8-0.5,1.3c-0.1,0.5-0.1,1.2-0.1,2v5.3c0,0.8,0,1.5,0.1,2c0.1,0.5,0.2,0.9,0.5,1.2
			c0.3,0.3,0.7,0.5,1.3,0.5C336.1,363.5,336.5,363.3,336.8,363z"/>
		<path class="st1" d="M343.9,364.8c-0.4-0.7-0.6-1.5-0.6-2.5v-13.8h3.2v12.8c0,0.6,0.1,1.1,0.3,1.5c0.2,0.3,0.5,0.5,1.1,0.5
			c0.6,0,1.4-0.4,2.2-1.1v-13.7h3.2v17H350v-1.7c-1.4,1.3-2.7,1.9-4.2,1.9C344.9,365.8,344.3,365.5,343.9,364.8z"/>
		<path class="st1" d="M357.1,364.2c-0.7-1.1-1-2.8-1-5.3v-3.3c0-2.3,0.3-4,0.9-5.3c0.6-1.3,1.7-1.9,3.3-1.9c1,0,1.9,0.4,2.8,1.3
			v-7.9h3.2v23.9H363v-1.1c-0.8,0.9-1.7,1.3-2.7,1.3C358.8,365.8,357.8,365.3,357.1,364.2z M363,362.7v-11.2c-0.7-0.5-1.4-0.7-2-0.7
			c-1.2,0-1.9,1.2-1.9,3.6v4.8c0,1.4,0.1,2.4,0.4,3.1s0.8,1.1,1.5,1.1C361.7,363.3,362.4,363.1,363,362.7z"/>
		<path class="st1" d="M369.7,341.7h3.2v23.9h-3.2V341.7z"/>
		<path class="st1" d="M375.9,367.4c1.2,0,2-0.1,2.4-0.3s0.7-0.5,0.7-1c0-0.2-0.2-1.3-0.6-3.1l-3.4-14.5h3.2l2.3,12.7l2.2-12.7h3.2
			l-4.1,18c-0.3,1.2-0.9,2.1-1.7,2.6s-2.1,0.8-3.7,0.8h-0.4V367.4z"/>
		<path class="st1" d="M395.7,364c-1.1-1.2-1.6-2.9-1.8-5.1l2.9-0.8c0.1,1.5,0.4,2.8,0.9,3.7c0.5,0.9,1.3,1.4,2.5,1.4
			c0.9,0,1.5-0.2,2-0.7s0.7-1.2,0.7-2.1c0-1-0.2-1.8-0.6-2.4c-0.4-0.6-1.1-1.4-2-2.2l-4-3.5c-0.8-0.7-1.4-1.5-1.8-2.3
			c-0.4-0.8-0.5-1.8-0.5-3c0-1.7,0.5-3.1,1.5-4.1c1-1,2.4-1.4,4.1-1.4c1.9,0,3.3,0.5,4.3,1.5c1,1,1.5,2.6,1.7,4.7l-2.8,0.8
			c-0.1-1.4-0.4-2.5-0.8-3.2s-1.2-1.1-2.4-1.1c-0.8,0-1.5,0.2-1.9,0.7c-0.5,0.4-0.7,1.1-0.7,2c0,0.7,0.1,1.3,0.4,1.8
			c0.2,0.5,0.6,1,1.2,1.5l4,3.5c1,0.9,1.9,1.9,2.5,3s0.9,2.3,0.9,3.7c0,1.7-0.5,3.1-1.6,4.2s-2.4,1.5-4.1,1.5
			C398.3,365.8,396.8,365.2,395.7,364z"/>
		<path class="st1" d="M408.8,364.8c-0.4-0.7-0.6-1.5-0.6-2.5v-13.8h3.2v12.8c0,0.6,0.1,1.1,0.3,1.5c0.2,0.3,0.5,0.5,1.1,0.5
			c0.6,0,1.4-0.4,2.2-1.1v-13.7h3.2v17H415v-1.7c-1.4,1.3-2.7,1.9-4.2,1.9C409.9,365.8,409.2,365.5,408.8,364.8z"/>
		<path class="st1" d="M421.3,348.5h3.2v1.4c0.9-1.1,2-1.6,3.2-1.6c1.6,0,2.6,0.7,3.1,2c0.5,1.3,0.8,2.8,0.8,4.4v4.1
			c0,2.1-0.3,3.8-1,5.1c-0.6,1.3-1.7,1.9-3.3,1.9c-1,0-2-0.5-2.9-1.5v6.9h-3.2V348.5z M428.1,362.2c0.2-0.7,0.3-1.9,0.3-3.4v-4.1
			c0-1.3-0.1-2.2-0.4-2.9c-0.2-0.7-0.7-1-1.5-1c-0.7,0-1.4,0.3-2.2,0.9v10.9c0.7,0.5,1.4,0.8,2.3,0.8
			C427.5,363.3,427.9,363,428.1,362.2z"/>
		<path class="st1" d="M434.5,348.5h3.2v1.4c0.9-1.1,2-1.6,3.2-1.6c1.6,0,2.6,0.7,3.1,2c0.5,1.3,0.8,2.8,0.8,4.4v4.1
			c0,2.1-0.3,3.8-1,5.1c-0.6,1.3-1.7,1.9-3.3,1.9c-1,0-2-0.5-2.9-1.5v6.9h-3.2V348.5z M441.3,362.2c0.2-0.7,0.3-1.9,0.3-3.4v-4.1
			c0-1.3-0.1-2.2-0.4-2.9c-0.2-0.7-0.7-1-1.5-1c-0.7,0-1.4,0.3-2.2,0.9v10.9c0.7,0.5,1.4,0.8,2.3,0.8
			C440.6,363.3,441.1,363,441.3,362.2z"/>
		<path class="st1" d="M448.4,364.2c-0.8-1.1-1.1-2.6-1.1-4.7v-4.9c0-2,0.4-3.6,1.1-4.7c0.8-1.1,2-1.6,3.8-1.6
			c1.8,0,3.1,0.5,3.8,1.6s1.1,2.6,1.1,4.7v4.9c0,2-0.4,3.6-1.1,4.7c-0.8,1.1-2,1.6-3.8,1.6C450.5,365.8,449.2,365.3,448.4,364.2z
			 M453.5,363c0.3-0.3,0.4-0.7,0.5-1.2c0.1-0.5,0.1-1.2,0.1-2v-5.3c0-0.8,0-1.5-0.1-2c-0.1-0.5-0.2-0.9-0.5-1.3
			c-0.3-0.3-0.7-0.5-1.2-0.5c-0.6,0-1,0.2-1.3,0.5c-0.3,0.3-0.4,0.8-0.5,1.3c-0.1,0.5-0.1,1.2-0.1,2v5.3c0,0.8,0,1.5,0.1,2
			c0.1,0.5,0.2,0.9,0.5,1.2c0.3,0.3,0.7,0.5,1.3,0.5C452.8,363.5,453.3,363.3,453.5,363z"/>
		<path class="st1" d="M460.2,348.5h3.2v2.4c0.6-1,1.2-1.6,1.8-2c0.6-0.4,1.3-0.6,2-0.6c0.2,0,0.3,0,0.5,0v3.5
			c-0.6-0.2-1.2-0.4-1.7-0.4c-0.5,0-1,0.1-1.4,0.4c-0.4,0.2-0.8,0.7-1.2,1.3v12.4h-3.2V348.5z"/>
		<path class="st1" d="M470.4,361.7v-11.1h-1.8v-2.1h1.8v-5h3.2v5h2.7v2.1h-2.7v10.9c0,0.7,0.1,1.2,0.3,1.4c0.2,0.3,0.6,0.4,1.2,0.4
			c0.4,0,0.8,0,1.1-0.1v2.3c-0.8,0.1-1.5,0.2-2.2,0.2C471.6,365.8,470.4,364.5,470.4,361.7z"/>
		<path class="st1" d="M480.3,365.1c-0.7-0.5-1.2-1.2-1.5-2.2c-0.3-1-0.4-2.3-0.4-3.8v-3.9c0-2.4,0.4-4.1,1.1-5.2
			c0.7-1.1,2-1.6,3.9-1.6c1.4,0,2.4,0.3,3.1,0.9c0.7,0.6,1.2,1.4,1.4,2.4s0.3,2.4,0.3,4.2v1.4h-6.7v3.4c0,1,0.2,1.8,0.5,2.3
			c0.3,0.5,0.8,0.7,1.5,0.7c0.7,0,1.1-0.2,1.4-0.7c0.2-0.5,0.4-1.2,0.4-2.1v-1h3.1v0.6c0,1.8-0.4,3.2-1.1,4.1
			c-0.8,0.9-2,1.4-3.7,1.4C482,365.8,481,365.6,480.3,365.1z M485.1,355.4v-1.5c0-1.2-0.1-2-0.3-2.5c-0.2-0.5-0.7-0.8-1.4-0.8
			c-0.5,0-0.9,0.1-1.2,0.4c-0.3,0.2-0.4,0.6-0.5,1.2c-0.1,0.5-0.1,1.3-0.1,2.3v0.9H485.1z"/>
		<path class="st1" d="M491.7,364.2c-0.7-1.1-1-2.8-1-5.3v-3.3c0-2.3,0.3-4,0.9-5.3c0.6-1.3,1.7-1.9,3.3-1.9c1,0,1.9,0.4,2.8,1.3
			v-7.9h3.2v23.9h-3.2v-1.1c-0.8,0.9-1.7,1.3-2.7,1.3C493.5,365.8,492.4,365.3,491.7,364.2z M497.7,362.7v-11.2
			c-0.7-0.5-1.4-0.7-2-0.7c-1.2,0-1.9,1.2-1.9,3.6v4.8c0,1.4,0.1,2.4,0.4,3.1s0.8,1.1,1.5,1.1C496.4,363.3,497.1,363.1,497.7,362.7z
			"/>
		<path class="st1" d="M511.1,341.7h5.5c2.2,0,3.8,0.5,4.8,1.5c1,1,1.6,2.5,1.6,4.5c0,3-1.1,4.7-3.4,5c1.4,0.3,2.4,1,3.1,2
			c0.6,1,1,2.3,1,4.1c0,2.1-0.5,3.8-1.5,5s-2.5,1.8-4.6,1.8h-6.4V341.7z M516.4,351.7c1.4,0,2.3-0.3,2.9-0.9
			c0.5-0.6,0.8-1.6,0.8-3.1c0-1.1-0.2-1.8-0.5-2.3s-0.8-0.8-1.5-1c-0.6-0.1-1.6-0.2-2.9-0.2h-0.8v7.5H516.4z M516.6,363.2
			c1,0,1.7-0.2,2.3-0.5c0.5-0.3,0.9-0.8,1.1-1.4c0.2-0.6,0.3-1.5,0.3-2.6c0-1.5-0.3-2.7-0.9-3.4c-0.6-0.8-1.7-1.1-3.1-1.1h-2v9
			H516.6z"/>
		<path class="st1" d="M526,367.4c1.2,0,2-0.1,2.4-0.3c0.4-0.2,0.7-0.5,0.7-1c0-0.2-0.2-1.3-0.6-3.1l-3.4-14.5h3.2l2.3,12.7
			l2.2-12.7h3.2l-4.1,18c-0.3,1.2-0.9,2.1-1.7,2.6s-2.1,0.8-3.7,0.8H526V367.4z"/>
	</g>
	<g id="layer1_1_" transform="translate(-94.862148,-428.21486)" inkscape:groupmode="layer" inkscape:label="Layer 1">
		<path id="path184_1_" class="st2" d="M473.1,985.5V830.9"/>
		<path class="st3" d="M334.8,830.8c-42.4,0-76.8,34.5-76.8,77.2c0,42.7,34.4,77.2,76.8,77.2c42.4,0,76.8-34.6,76.8-77.2
			C411.6,865.6,377.7,830.8,334.8,830.8z M379,944.3c0,0-3.5-16-9.3-25.5c-3.1-5.2-7.9-9.4-14.3-9.3c-4.5,0.1-8.4,2.6-13.3,9.5
			c-2.9,4.1-7.5,14.6-7.5,14.6s-4.5-10.5-7.4-14.6c-4.9-6.8-8.8-9.3-13.3-9.5c-6.4-0.1-11.2,4.1-14.3,9.3
			c-5.7,9.5-9.2,25.5-9.2,25.5h-5.2l27.8-91.7l21.5,71.6l0.2,0.2l0.2-0.2l21.5-71.6l27.8,91.7H379z"/>
		<g id="g3108_1_">
			<g id="text190_1_" transform="matrix(1,0,0,-1,50.398399,868.98102)">
				<path id="path3377_1_" class="st3" d="M505.7-1.3c0.8,2.1,2.1,3.8,3.9,4.9c1.7,1.1,3.7,1.6,6,1.6c2.3,0,4.2-0.8,5.6-2.5
					c1.4-1.6,2.1-4.5,2.1-8.8v-16.1h-2.2v16c0,3.7-0.5,6.2-1.5,7.5s-2.4,2-4.1,2c-2.4,0-4.6-0.8-6.5-2.3c-2-1.6-3.1-4.3-3.1-8.1
					v-15.1h-2.2v16c0,3.6-0.5,6-1.5,7.4s-2.4,2-4.1,2c-2.4,0-4.6-0.8-6.5-2.3c-2-1.6-3.1-4.3-3.1-8v-15.1h-2.2V4.5h2.2v-5
					c0.8,1.7,2,3.1,3.6,4.1c1.7,1,3.7,1.5,6.1,1.5c1.6,0,3.1-0.5,4.5-1.6C504,2.7,504.9,1.1,505.7-1.3z"/>
			</g>
			<g id="text194_1_" transform="matrix(1,0,0,-1,58.669399,868.98102)">
				<path id="path3380_1_" class="st3" d="M538.9-0.1c-1.6,2.2-3.7,3.3-6.4,3.3c-2.7,0-4.9-1.1-6.4-3.3c-1.6-2.2-2.4-5.1-2.4-8.8
					c0-3.8,0.8-6.8,2.4-8.9c1.6-2.2,3.7-3.3,6.5-3.3c2.7,0,4.9,1.1,6.4,3.3c1.6,2.2,2.4,5.2,2.4,8.9C541.3-5.2,540.5-2.3,538.9-0.1z
					 M532.5,5.1c3.4,0,6.1-1.3,8.1-3.8c2-2.6,3-6,3-10.2c0-4.4-1-7.8-3-10.3c-2-2.5-4.7-3.8-8.1-3.8c-3.4,0-6.1,1.3-8.1,3.8
					c-2,2.5-3,6-3,10.4c0,4.3,1,7.7,3,10.2C526.3,3.9,529,5.1,532.5,5.1z"/>
			</g>
			<g id="text198_1_" transform="matrix(1,0,0,-1,63.943401,868.98102)">
				<path id="path3383_1_" class="st3" d="M548.7,12.1V4.5h9V2.6h-9v-16c0-2,0.3-3.5,0.8-4.3c1.1-1.8,2.7-2.7,4.7-2.7h3.5v-1.9h-3.4
					c-2.2,0-4,0.6-5.6,1.9c-1.5,1.3-2.3,3.6-2.3,6.9v16h-3.2v1.9h3.2v7.6H548.7z"/>
			</g>
			<g id="text202_1_" transform="matrix(1,0,0,-1,67.210403,868.98102)">
				<path id="path3386_1_" class="st3" d="M576.7-0.1c-1.6,2.2-3.7,3.3-6.4,3.3c-2.7,0-4.9-1.1-6.4-3.3c-1.6-2.2-2.4-5.1-2.4-8.8
					c0-3.8,0.8-6.8,2.4-8.9c1.6-2.2,3.7-3.3,6.5-3.3c2.7,0,4.9,1.1,6.4,3.3c1.6,2.2,2.4,5.2,2.4,8.9C579.1-5.2,578.3-2.3,576.7-0.1z
					 M570.2,5.1c3.4,0,6.1-1.3,8.1-3.8c2-2.6,3-6,3-10.2c0-4.4-1-7.8-3-10.3c-2-2.5-4.7-3.8-8.1-3.8c-3.4,0-6.1,1.3-8.1,3.8
					c-2,2.5-3,6-3,10.4c0,4.3,1,7.7,3,10.2C564.1,3.9,566.8,5.1,570.2,5.1z"/>
			</g>
			<g id="text206_1_" transform="matrix(1,0,0,-1,72.484398,868.98102)">
				<path id="path3389_1_" class="st3" d="M598.6,2.6c-0.3,0.2-0.8,0.3-1.4,0.5c-0.5,0.1-1.2,0.1-2,0.1c-2.7,0-4.9-1-6.7-3
					c-1.4-1.6-2.1-4.4-2.1-8.3v-14.1h-2.1V4.5h2.1v-5c0.7,1.4,1.7,2.6,3,3.6c1.8,1.4,3.9,2,6.3,2c0.6,0,1.2,0,1.6-0.1
					c0.5,0,0.9-0.1,1.4-0.2V2.6L598.6,2.6z"/>
			</g>
			<g id="text210_1_" transform="matrix(1,0,0,-1,75.751389,868.98102)">
				<path id="path3392_1_" class="st3" d="M614.5-0.1c-1.6,2.2-3.7,3.3-6.4,3.3s-4.9-1.1-6.4-3.3c-1.6-2.2-2.4-5.1-2.4-8.8
					c0-3.8,0.8-6.8,2.4-8.9c1.6-2.2,3.7-3.3,6.5-3.3c2.7,0,4.9,1.1,6.4,3.3c1.6,2.2,2.4,5.2,2.4,8.9C616.9-5.2,616.1-2.3,614.5-0.1z
					 M608,5.1c3.4,0,6.1-1.3,8.1-3.8c2-2.6,3-6,3-10.2c0-4.4-1-7.8-3-10.3c-2-2.5-4.7-3.8-8.1-3.8c-3.4,0-6.1,1.3-8.1,3.8
					c-2,2.5-3,6-3,10.4c0,4.3,1,7.7,3,10.2C601.9,3.9,604.6,5.1,608,5.1z"/>
			</g>
			<g id="text214_1_" transform="matrix(1,0,0,-1,81.025398,868.98102)">
				<path id="path3395_1_" class="st3" d="M621.9,14.9h2.2v-37.1h-2.2V14.9z"/>
			</g>
			<g id="text218_1_" transform="matrix(1,0,0,-1,83.293388,868.98102)">
				<path id="path3398_1_" class="st3" d="M642.7-7.2c-3.5,0-6.1-0.6-7.6-1.9s-2.3-3.1-2.3-5.5c0-2.4,0.6-4,1.9-5
					c1.3-1,2.8-1.5,4.6-1.5c3.3,0,5.7,1.4,7.2,4.2c1.5,2.8,2.2,5.5,2.2,8v1.6H642.7z M650.8-7v-15.2h-2.2v7.2
					c-1.2-3.5-2.8-5.8-4.9-6.8c-1.6-0.8-3.2-1.2-4.8-1.2c-2.7,0-4.7,0.7-6.3,2.1c-1.5,1.4-2.3,3.5-2.3,6.3s1,5,3,6.6
					c2,1.7,5.2,2.5,9.7,2.5h5.4v0.4c0,2.4-0.7,4.3-2,5.8c-1.3,1.5-3.5,2.3-6.6,2.3c-1.5,0-3.1-0.3-4.7-0.9c-1-0.4-2.3-1.1-4-2.2v2.4
					c1.4,0.9,2.7,1.5,4,1.9c1.8,0.5,3.5,0.8,5.1,0.8c3.1,0,5.7-1,7.8-2.9C649.9,0.6,650.8-2.5,650.8-7z"/>
			</g>
			<g id="text222_1_" transform="matrix(1,0,0,-1,50.398399,858.48071)">
				<path id="path3401_1_" class="st3" d="M497.9-52.6v-1.9h-3.1c-1.6,0-2.9-0.4-3.7-1.3c-1-1-1.6-2.7-1.6-4.9V-63h7.2v-1.9h-7.2
					v-24.8h-2.2v24.8h-4.2v1.9h4.2v1.9c0,3,0.7,5.1,2,6.5c1.3,1.4,3.2,2,5.5,2H497.9z"/>
			</g>
			<g id="text226_1_" transform="matrix(1,0,0,-1,53.665401,858.48071)">
				<path id="path3404_1_" class="st3" d="M516.8-67.6c-1.6,2.2-3.7,3.3-6.4,3.3c-2.7,0-4.9-1.1-6.4-3.3c-1.6-2.2-2.4-5.1-2.4-8.8
					c0-3.8,0.8-6.8,2.4-8.9c1.6-2.2,3.7-3.3,6.5-3.3c2.7,0,4.9,1.1,6.4,3.3c1.6,2.2,2.4,5.2,2.4,8.9
					C519.2-72.7,518.4-69.7,516.8-67.6z M510.3-62.3c3.4,0,6.1-1.3,8.1-3.8c2-2.6,3-6,3-10.2c0-4.4-1-7.8-3-10.3
					c-2-2.5-4.7-3.8-8.1-3.8c-3.4,0-6.1,1.3-8.1,3.8c-2,2.5-3,6-3,10.4c0,4.3,1,7.7,3,10.2S506.9-62.3,510.3-62.3z"/>
			</g>
			<g id="text230_1_" transform="matrix(1,0,0,-1,58.9394,858.48071)">
				<path id="path3407_1_" class="st3" d="M524.2-79.1V-63h2.2v-16c0-3.5,0.6-5.9,1.7-7.3c1.1-1.4,2.7-2.1,4.9-2.1
					c2.5,0,4.7,0.8,6.5,2.3c1.8,1.5,2.7,4.2,2.7,8V-63h2.2v-26.7h-2.2v5c-0.8-1.6-1.8-2.9-3.1-3.7c-1.9-1.3-3.9-1.9-6.2-1.9
					c-2.6,0-4.7,0.9-6.3,2.7C525-85.8,524.2-83,524.2-79.1z"/>
			</g>
			<g id="text234_1_" transform="matrix(1,0,0,-1,64.213402,858.48071)">
				<path id="path3410_1_" class="st3" d="M567.7-73.6v-16.1h-2.2v16c0,3.5-0.6,5.9-1.7,7.3c-1.1,1.4-2.7,2.1-4.9,2.1
					c-2.5,0-4.7-0.8-6.5-2.3c-1.8-1.5-2.7-4.2-2.7-8v-15.1h-2.2V-63h2.2v-5c0.8,1.6,1.8,2.9,3.1,3.7c1.9,1.3,3.9,1.9,6.2,1.9
					c2.6,0,4.7-0.9,6.3-2.7C566.9-66.8,567.7-69.7,567.7-73.6z"/>
			</g>
			<g id="text238_1_" transform="matrix(1,0,0,-1,69.487411,858.48071)">
				<path id="path3413_1_" class="st3" d="M590.3-69.1v16.5h2.1v-37.1h-2.1v6.1c-1-2.3-2.1-3.9-3.3-4.8c-1.8-1.3-3.5-2-5.1-2
					c-3.2,0-5.8,1.3-7.9,3.9c-2.1,2.6-3.1,6-3.1,10.2s1,7.6,3.1,10.2c2.1,2.6,4.7,3.9,7.9,3.9c1.6,0,3.3-0.7,5.1-2
					C588.2-65.2,589.3-66.8,590.3-69.1z M576-67.1c-1.8-1.9-2.8-5-2.8-9.3s0.9-7.4,2.8-9.3c1.8-1.9,3.8-2.8,5.8-2.8
					c2,0,3.9,0.9,5.7,2.8c1.8,1.9,2.7,5,2.7,9.3s-0.9,7.4-2.7,9.3c-1.8,1.9-3.8,2.8-5.7,2.8C579.8-64.3,577.8-65.2,576-67.1z"/>
			</g>
			<g id="text242_1_" transform="matrix(1,0,0,-1,74.761406,858.48071)">
				<path id="path3416_1_" class="st3" d="M604.9-74.6c-3.5,0-6.1-0.6-7.6-1.9s-2.3-3.1-2.3-5.5c0-2.4,0.6-4,1.9-5s2.8-1.5,4.6-1.5
					c3.3,0,5.7,1.4,7.2,4.2c1.5,2.8,2.2,5.5,2.2,8v1.6H604.9z M613.1-74.4v-15.2h-2.2v7.2c-1.2-3.5-2.8-5.8-4.9-6.8
					c-1.6-0.8-3.2-1.2-4.8-1.2c-2.7,0-4.7,0.7-6.3,2.1c-1.5,1.4-2.3,3.5-2.3,6.3s1,5,3,6.6c2,1.7,5.2,2.5,9.7,2.5h5.4v0.4
					c0,2.4-0.7,4.3-2,5.8c-1.3,1.5-3.5,2.3-6.6,2.3c-1.5,0-3.1-0.3-4.7-0.9c-1-0.4-2.3-1.1-4-2.2v2.4c1.4,0.9,2.7,1.5,4,1.9
					c1.8,0.5,3.5,0.8,5.1,0.8c3.1,0,5.7-1,7.8-2.9C612.2-66.8,613.1-69.9,613.1-74.4z"/>
			</g>
			<g id="text246_1_" transform="matrix(1,0,0,-1,79.531403,858.48071)">
				<path id="path3419_1_" class="st3" d="M617.6-55.4V-63h9v-1.9h-9v-16c0-2,0.3-3.5,0.8-4.3c1.1-1.8,2.7-2.7,4.7-2.7h3.5v-1.9
					h-3.4c-2.2,0-4,0.6-5.6,1.9c-1.5,1.3-2.3,3.6-2.3,6.9v16h-3.2v1.9h3.2v7.6H617.6z"/>
			</g>
			<g id="text250_1_" transform="matrix(1,0,0,-1,82.798401,858.48071)">
				<path id="path3422_1_" class="st3" d="M629.7-63h2.2v-26.7h-2.2V-63z M629.7-52.6h2.2v-3h-2.2V-52.6z"/>
			</g>
			<g id="text254_1_" transform="matrix(1,0,0,-1,85.066399,858.48071)">
				<path id="path3425_1_" class="st3" d="M655.7-67.6c-1.6,2.2-3.7,3.3-6.4,3.3c-2.7,0-4.9-1.1-6.4-3.3c-1.6-2.2-2.4-5.1-2.4-8.8
					c0-3.8,0.8-6.8,2.4-8.9c1.6-2.2,3.7-3.3,6.5-3.3c2.7,0,4.9,1.1,6.4,3.3c1.6,2.2,2.4,5.2,2.4,8.9
					C658.1-72.7,657.3-69.7,655.7-67.6z M649.2-62.3c3.4,0,6.1-1.3,8.1-3.8c2-2.6,3-6,3-10.2c0-4.4-1-7.8-3-10.3
					c-2-2.5-4.7-3.8-8.1-3.8c-3.4,0-6.1,1.3-8.1,3.8c-2,2.5-3,6-3,10.4c0,4.3,1,7.7,3,10.2C643.1-63.6,645.8-62.3,649.2-62.3z"/>
			</g>
			<g id="text258_1_" transform="matrix(1,0,0,-1,90.340401,858.48071)">
				<path id="path3428_1_" class="st3" d="M683.3-73.6v-16.1h-2.2v16c0,3.5-0.6,5.9-1.7,7.3c-1.1,1.4-2.7,2.1-4.9,2.1
					c-2.5,0-4.7-0.8-6.5-2.3c-1.8-1.5-2.7-4.2-2.7-8v-15.1h-2.2V-63h2.2v-5c0.8,1.6,1.8,2.9,3.1,3.7c1.9,1.3,3.9,1.9,6.2,1.9
					c2.6,0,4.7-0.9,6.3-2.7C682.5-66.8,683.3-69.7,683.3-73.6z"/>
			</g>
		</g>
	</g>
	<g>
		<path class="st1" d="M177.8,678c5,2.5,8.7,4.5,11.1,5.9c2.4,1.5,4.5,3.5,6.4,6.1c1.8,2.6,2.7,6.2,2.7,10.8
			c0,6.3-2.4,11.5-7.3,15.6c-4.8,4.1-10.3,6.1-16.3,6.1c-4,0-7.3-0.5-10.1-1.5c-2.7-1-6-2.5-9.8-4.5l-0.3-16
			c1.5,4.8,3.8,8.9,6.9,12.3c3.1,3.4,7.3,5.1,12.5,5.1c5.1,0,8.8-1.5,11.1-4.5c2.3-3,3.4-6.3,3.4-9.8c0-4.5-1.1-7.7-3.4-9.4
			c-2.3-1.7-7.2-4.4-14.6-8.1c-5.4-2.7-9.4-5.5-11.9-8.5c-2.5-3-3.7-6.6-3.7-10.8c0-6,2.3-10.6,6.8-13.9c4.5-3.3,9.6-5,15.3-5
			c6.1,0,11.1,1.4,15.3,4.1l0.5,14.1c-0.8-3.3-2.7-6.4-5.8-9.4c-3.1-3-6.9-4.5-11.5-4.5c-4.1,0-7.1,1.2-9,3.6
			c-1.9,2.4-2.9,5-2.9,7.7c0,3.1,1,5.6,2.9,7.3C168.1,672.7,172,675.1,177.8,678L177.8,678z"/>
		<path class="st1" d="M225.7,671.2c5.1,0,9.4,1.2,12.9,3.7c3.6,2.5,6.2,5.7,7.9,9.6c1.7,3.9,2.5,8.1,2.5,12.5c0,4.1-1,8.2-3,12.3
			c-2,4.1-4.8,7.3-8.3,9.7c-3.6,2.4-7.6,3.6-12.2,3.6c-7.7,0-13.5-2.6-17.5-7.8c-3.9-5.2-5.9-11.2-5.9-17.8c0-4.3,1-8.4,2.9-12.4
			c1.9-4,4.7-7.3,8.3-9.7C216.9,672.4,221,671.2,225.7,671.2L225.7,671.2z M224.7,675.1c-4.4,0.2-7.7,2.5-9.9,6.8
			c-2.2,4.3-3.2,9.5-3,15.7c0.2,6,1.6,11.1,4.2,15.1c2.6,4,6,6,10.2,5.7c4.4-0.2,7.7-2.4,10-6.5c2.2-4.1,3.3-9.4,3-15.6
			c-0.2-4-0.9-7.6-2-10.8c-1.1-3.1-2.7-5.7-4.8-7.6C230.4,675.9,227.8,675,224.7,675.1L224.7,675.1z"/>
		<path class="st1" d="M314.5,662.6v9.8h14.7l-3.7,4.5h-11.2V707c0,7.4,3.2,11.1,9.7,11.1c1.8,0,3.2-0.2,4-0.6
			c0.8-0.4,1.7-1.1,2.9-2.1c0,1.5-1.1,3.1-3.3,4.8c-2.2,1.7-4.7,2.5-7.5,2.5c-4.4,0-8-1.4-10.7-4.1c-2.8-2.7-4.1-6.5-4.1-11.4v-30.2
			h-4.6L314.5,662.6L314.5,662.6z"/>
		<path class="st1" d="M362.9,671.2c4.5,0,8.3,1.3,11.4,3.9c3.1,2.6,4.6,6.2,4.6,10.9v31.6c0,1.1,0.2,1.9,0.5,2.3
			c0.4,0.4,1.1,1,2.2,1.7H367c1.9-1.1,2.9-2.4,2.9-4.1v-28.1c0-3.6-0.9-6.6-2.6-8.8c-1.8-2.2-4.7-3.3-8.8-3.3
			c-2.4,0-4.7,0.6-6.8,1.7c-2.1,1.1-3.7,2.4-4.9,3.9v34.7c0,0.9,0.2,1.7,0.6,2.2c0.4,0.6,1.2,1.2,2.3,1.8h-15.1
			c1.9-1,2.8-2.4,2.8-4.1v-62.7c0-1.4-0.3-2.3-0.9-2.8c-0.6-0.5-1.5-1-2.8-1.5l13.1-2.6v30.8C352.6,673.7,358,671.2,362.9,671.2
			L362.9,671.2z"/>
		<path class="st1" d="M490,671.2c4.1,0,7.7,1.3,10.9,3.8c3.2,2.6,4.9,6.2,4.9,10.8v31.8c0,0.9,0.2,1.7,0.7,2.3
			c0.5,0.6,1.2,1.2,2.1,1.8h-14.8c2-1.2,3-2.6,3-4.1V689c0-3.5-0.9-6.3-2.7-8.5c-1.8-2.2-4.6-3.3-8.5-3.3c-4.5,0-8.3,2.2-11.5,6.7
			c0.1,0.4,0.2,0.9,0.2,1.6v32c0,0.9,0.2,1.7,0.7,2.3c0.5,0.6,1.2,1.2,2.1,1.8h-14.9c1.9-1.1,2.8-2.4,2.8-4.1v-29.1
			c0-7.5-3.7-11.3-11.1-11.3c-4.2,0-7.8,1.8-10.8,5.4v34.9c0,1,0.2,1.7,0.6,2.2c0.4,0.5,1.2,1.1,2.4,1.8h-15
			c1.8-1.1,2.8-2.4,2.8-4.1V678c0-1.4-0.4-2.4-1.1-3c-0.7-0.6-1.6-1-2.8-1.3l13-2.6v7.3c2.3-2,4.8-3.7,7.2-5.1
			c2.5-1.4,5.3-2.2,8.4-2.2c3.1,0,6.1,0.8,8.9,2.4c2.8,1.6,4.7,3.9,5.7,6.9c2-2.6,4.5-4.8,7.5-6.6
			C483.7,672.1,486.8,671.2,490,671.2L490,671.2z"/>
		<path class="st1" d="M575.7,662.6v9.8h14.7l-3.7,4.5h-11.2V707c0,7.4,3.2,11.1,9.7,11.1c1.9,0,3.2-0.2,3.9-0.6
			c0.8-0.4,1.7-1.1,2.9-2.1c0,1.5-1.1,3.1-3.3,4.8c-2.2,1.7-4.7,2.5-7.5,2.5c-4.4,0-8-1.4-10.8-4.1c-2.8-2.7-4.1-6.5-4.1-11.4v-30.2
			h-4.6L575.7,662.6L575.7,662.6z"/>
		<path class="st1" d="M615.5,671.2c5.1,0,9.4,1.2,12.9,3.7c3.6,2.5,6.2,5.7,7.9,9.6c1.7,3.9,2.5,8.1,2.5,12.5c0,4.1-1,8.2-3,12.3
			c-2,4.1-4.8,7.3-8.3,9.7c-3.6,2.4-7.6,3.6-12.2,3.6c-7.7,0-13.5-2.6-17.5-7.8c-4-5.2-5.9-11.2-5.9-17.8c0-4.3,1-8.4,2.9-12.4
			c1.9-4,4.7-7.3,8.3-9.7C606.8,672.4,610.9,671.2,615.5,671.2L615.5,671.2z M614.6,675.1c-4.4,0.2-7.7,2.5-9.9,6.8
			c-2.2,4.3-3.2,9.5-3,15.7c0.2,6,1.6,11.1,4.2,15.1c2.6,4,6,6,10.2,5.7c4.4-0.2,7.7-2.4,10-6.5c2.2-4.1,3.3-9.4,3-15.6
			c-0.2-4-0.9-7.6-2-10.8c-1.1-3.1-2.7-5.7-4.8-7.6C620.3,675.9,617.7,675,614.6,675.1L614.6,675.1z"/>
		<path class="st1" d="M669.1,671.2c2.6,0,5.2,0.6,7.7,1.8c2.5,1.2,4.5,2.9,5.9,5.1c1.5,2.2,2.2,4.8,2.2,7.9v31.6
			c0,0.9,0.2,1.6,0.5,2c0.3,0.4,1.1,1.1,2.3,2H673c1.8-1,2.8-2.4,2.8-4.1v-27.8c0-8.3-3.8-12.4-11.3-12.4c-2,0-4,0.5-5.9,1.6
			c-2,1.1-3.6,2.4-4.9,4v34.7c0,0.9,0.2,1.7,0.7,2.3c0.5,0.6,1.1,1.2,2.1,1.8h-14.8c1.8-1,2.7-2.3,2.7-4.1V678
			c0-2.1-1.2-3.6-3.5-4.5l12.8-2.3v7.6c1.7-1.9,4-3.6,6.8-5.2C663.3,672,666.1,671.2,669.1,671.2L669.1,671.2z"/>
		<path class="st1" d="M557.2,685.3c-1.3-3.4-3-6.1-5-8.1c-2.1-2-4.3-3.5-6.6-4.5c-2.3-1-4.8-1.5-7.3-1.5c-3.1,0-6,0.7-8.6,2
			c-2.6,1.3-4.6,2.8-6,4.5v-6.5l-12.7,2.8c2.3,0.7,3.5,2.2,3.5,4.5V742c0,1.9-0.9,3.3-2.8,4.1h14.9c-1.9-0.9-2.8-2.2-2.8-4.1v-59.7
			c1.2-1.5,2.7-2.7,4.6-3.7c1.8-1,3.9-1.5,6.2-1.5c3.6,0,7,1.5,10,4.5c3,3,4.5,8.1,4.5,15.4c0,6.7-1.4,12-4.2,15.8
			c-2.8,3.8-6.6,5.6-11.4,5.6c-3.5,0-5.1-0.7-8.1-3.3l2.5,6.6c2.2,0.6,4.5,0.9,6.9,0.9c7.5,0,13.4-2.7,17.8-8.1
			c4.4-5.4,6.6-11.4,6.6-17.9C559.1,692.5,558.5,688.7,557.2,685.3L557.2,685.3z"/>
		<path class="st1" d="M280.9,715c-1.7,0.9-3.7,1.4-6.1,1.4c-3.1,0-5.8-1.2-7.9-3.6c-2.1-2.4-3.1-5.8-3.1-10.2v-31.4l-13,2.6
			c2.4,0.8,3.6,2.2,3.6,4.3v24.5c0,7,1.7,12.1,5.1,15.3c3.4,3.2,7.1,4.8,11.1,4.8c4.6,0,8.8-1.5,12.6-4.6l1.9-6.2
			C283.6,713.3,282.4,714.2,280.9,715L280.9,715z"/>
		<path class="st1" d="M295.2,713.1v-41.9l-12.8,2.6c1.1,0.3,2,0.7,2.7,1.3c0.7,0.6,1,1.6,1,3v32.6l0.2,4.6c0,0,0,0,0,0
			c0,2.1,0.3,3.7,0.9,4.7c0.6,1,1.6,1.9,3,2.8l9.3-3.4C296.6,718.8,295.2,716.7,295.2,713.1L295.2,713.1z"/>
		<path class="st1" d="M424.8,717.5c-0.3-0.7-0.5-1.8-0.5-3.4v-28.6c0-5.5-1.7-9.3-5.1-11.3c-3.4-2-7.3-3-11.7-3
			c-5.8,0-11.4,1.8-16.9,5.3l0.2,13.2c1.5-4.5,3.4-8,5.8-10.6c2.4-2.6,5.6-3.9,9.6-3.9c3.1,0,5.4,0.9,6.9,2.7c1.5,1.8,2.2,4,2.2,6.6
			c0,2.7-0.1,4.2-0.4,4.5c-0.9,1.1-2.3,1.9-4.1,2.5c-1.8,0.6-4.8,1.5-9,2.7c-4.2,1.2-7.1,2.4-8.7,3.4c-4.8,2.8-7.2,6.9-7.2,12.1
			c0,2.9,1.1,5.8,3.3,8.7c2.2,2.9,5.4,4.3,9.6,4.3c5,0,9.5-1.7,13.7-5.1l2-5.6c-3.3,3.1-7.1,4.6-11.2,4.6c-2.4,0-4.4-0.8-5.9-2.3
			c-1.5-1.5-2.2-3.7-2.2-6.5c0-2.5,0.8-4.5,2.2-5.9c1.5-1.5,3.7-2.8,6.6-3.9c6.1-1.9,9.9-3.3,11.4-4V711c0,0,0.1,3.7,0.1,3.7
			c0.1,2.5,0.4,4.2,0.9,5.1c0.5,0.9,1.5,1.8,2.9,2.9l8.2-3.7C426.1,718.8,425.1,718.3,424.8,717.5L424.8,717.5z"/>
		<path class="st1" d="M368.4,632.5v17.3c0,2.8,1,7.2,6.8,7.2c5.5,0,7.2-3.5,7.2-7.2l-0.2-17.3c0-0.9-0.4-1.5-1.1-1.8h4.5
			c-0.7,0.3-1.1,0.9-1.1,1.8l-0.1,17.2c0,6.7-4.3,9.2-9.5,9.2c-4.5,0-10.5-2.2-10.5-9.1v-17.3c0-0.9-0.7-1.5-1.3-1.8h6.6
			C369.1,631,368.4,631.6,368.4,632.5L368.4,632.5z"/>
		<path class="st1" d="M410.3,632.5c0-0.9-0.5-1.5-1.1-1.8h4.3c-0.7,0.3-1.1,0.9-1.1,1.8v26.8c0,0-19.6-23.7-19.6-24.1v21.5
			c0,0.9,0.4,1.5,1.1,1.8h-4.3c0.6-0.4,1.1-0.9,1.1-1.8v-22.6c0-1.2,0-1.3-0.5-1.9c-0.5-0.5-0.9-1.1-1.9-1.5h5.9l16.2,20V632.5
			L410.3,632.5z"/>
		<path class="st1" d="M423.6,630.7c-0.6,0.3-1.1,0.9-1.1,1.8v24.2c0,0.9,0.4,1.5,1.1,1.8h-6.1c0.7-0.4,1.1-0.9,1.1-1.8v-24.2
			c0-0.9-0.4-1.5-1.1-1.8H423.6L423.6,630.7z"/>
		<path class="st1" d="M447.1,632.6c0.4-1,0.3-1.6-0.7-2h4.5c-1.1,0.7-1,0.9-1.5,2c-0.7,1.6-10.2,27-10.2,27s-10.5-25.5-11.2-27
			c-0.4-0.8-0.8-1.5-2.1-2h7.5c-1.1,0.4-1.1,1.4-0.8,2.4c0.1,0.1,7.3,19,7.3,19S447.1,632.8,447.1,632.6L447.1,632.6z"/>
		<path class="st1" d="M468.1,634.3c-0.8-0.9-1.7-1.4-3.4-1.4c-0.8,0-7.1-0.1-7.1-0.1v9.3h6.7c0.6,0,1.2-0.7,1.4-1.2v4.4
			c-0.2-0.5-0.9-1.2-1.4-1.2h-6.7v12.1c0.9,0.1,2.8,0.3,4.8,0.2c4.4,0,6,0,7.5-2.6l-0.9,4.6h-16.5c0.7-0.4,1.2-0.9,1.2-1.8v-24.2
			c0-0.9-0.5-1.5-1.1-1.8H468L468.1,634.3L468.1,634.3z"/>
		<path class="st1" d="M483.1,644.4c2.2,0.5,3.4,2.2,4,3.1c0,0,4.3,7.5,6.2,9.4c0.9,1,2.6,1.6,2.6,1.6l-4.2,0.1
			c-1.6,0-2.8-1.1-3.4-1.9c-2.1-3.1-3.6-5.3-5-7.6c-1.1-1.6-1.9-3.4-4.1-3.4c-0.7,0-2.4,0-2.4,0v11c0,0.9,0.5,1.5,1.2,1.8h-6.1
			c0.6-0.4,1.1-0.9,1.1-1.8v-24.2c0-0.9-0.5-1.5-1.1-1.8h7.7c8.2,0,10,4.3,10,6.8C489.6,642,485.7,644.2,483.1,644.4L483.1,644.4z
			 M476.9,632.4v11.1c0,0,1.3,0.1,2.4,0.1c3.1,0,6.2-1.7,6.2-6c0-1.9-1.1-5.3-5.5-5.3C478.1,632.3,476.9,632.4,476.9,632.4
			L476.9,632.4z"/>
		<path class="st1" d="M512.7,650.6c0,5.1-4.7,8.4-9.1,8.4c-3.6,0-6.1-1.4-7.6-2.3l-0.1-6.1c0.9,3,3.1,6.7,7.5,6.7
			c4.4,0,5.6-3.5,5.6-5.5c0-3.9-3-4.7-6.9-6.7c-4-2-6-4.1-6-7.4c0-4.9,4.6-7.3,8.5-7.3c1.5,0,3.9,0.3,5.9,1.6l0.2,5.4
			c-0.5-2-2.8-5.3-6.6-5.3c-3.5,0-4.5,2.6-4.5,4.3c0,2.6,1.6,3.6,5.6,5.5C508.9,643.8,512.7,645.1,512.7,650.6L512.7,650.6z"/>
		<path class="st1" d="M521.4,630.7c-0.6,0.3-1.1,0.9-1.1,1.8v24.2c0,0.9,0.4,1.5,1.1,1.8h-6.1c0.7-0.4,1.1-0.9,1.1-1.8v-24.2
			c0-0.9-0.5-1.5-1.1-1.8H521.4L521.4,630.7z"/>
		<path class="st1" d="M536.6,632.6v24.1c0,0.9,0.4,1.5,1.1,1.8h-6.1c0.7-0.4,1.1-0.9,1.1-1.8v-24.1c-3.1,0-6.7,0.3-6.7,0.3
			c-1,0-1.8,0.9-2.1,1.6v-3.9h21.6l0,3.9c-0.4-0.7-1.1-1.5-2.1-1.6C543.2,632.9,539.6,632.6,536.6,632.6L536.6,632.6z"/>
		<path class="st1" d="M569.4,630.7c-1.2,0.5-1.9,1.3-2.4,2.3l-6.6,12.4v11.4c0,0.9,0.8,1.5,1.5,1.8h-7c0.7-0.4,1.5-0.9,1.5-1.8
			v-11.2l-7.8-12.9c-0.7-1-1.1-1.4-2.3-2h7.9c-0.9,0.4-1.7,0.6-0.7,2.5l5.7,10.1l5.6-10.7c0.6-1.1,0.3-1.6-0.9-2H569.4L569.4,630.7z
			"/>
		<path class="st1" d="M594.7,658.9c-6.8-0.2-12.9-6.3-12.7-14.7c0.2-6.6,5.1-14.2,13.4-13.9c5.8,0.1,12.7,5.2,12.5,14.6
			C607.7,654.2,600.6,659.1,594.7,658.9L594.7,658.9z M586.3,644c0,9,4.4,13,8.8,13c5.2,0,8.5-4.7,8.5-12.1c0.1-7.9-3.3-13-8.6-13
			C589.8,632,586.3,636.5,586.3,644L586.3,644z"/>
		<path class="st1" d="M616.8,658.6h-6.2c0.7-0.4,1.1-0.9,1.1-1.8v-24.2c0-0.9-0.5-1.5-1.1-1.8h16.4l0,3.7c-0.6-1-1.5-1.6-3.5-1.6
			c-1-0.1-7.8-0.2-7.8-0.2l0.1,9.4h6.8c0.6,0,1.2-0.7,1.4-1.2v4.4c-0.2-0.5-0.9-1.1-1.4-1.1h-6.8l-0.1,12.5
			C615.5,657.7,616,658.2,616.8,658.6L616.8,658.6z"/>
	</g>
	<g id="Symbol-and-Text---White">
		<path id="STUDENT-ROBOTICS" class="st1" d="M219.8,106.9c-3,0-5.6-0.4-7.9-1.1c-2.3-0.7-4.5-2-6.5-3.8c-1.1-1-1.7-2.1-1.7-3.3
			c0-0.9,0.4-1.8,1.1-2.5s1.5-1.1,2.5-1.1c0.8,0,1.5,0.2,2.1,0.7c1.6,1.4,3.3,2.4,4.8,3c1.6,0.6,3.4,0.9,5.6,0.9
			c2.3,0,4.3-0.5,6-1.5c1.7-1,2.5-2.3,2.5-3.8c0-1.9-0.8-3.3-2.5-4.4c-1.6-1.1-4.3-1.8-7.9-2.4c-9-1.3-13.5-5.5-13.5-12.6
			c0-2.6,0.7-4.9,2-6.8s3.2-3.4,5.6-4.4s5-1.5,7.9-1.5c2.6,0,5,0.4,7.3,1.2c2.3,0.8,4.2,1.8,5.7,3.1c1.2,0.9,1.8,2,1.8,3.3
			c0,0.9-0.4,1.8-1.1,2.5s-1.5,1.1-2.5,1.1c-0.6,0-1.2-0.2-1.7-0.6c-1.1-0.9-2.6-1.7-4.5-2.4c-1.9-0.7-3.6-1.1-5.2-1.1
			c-2.6,0-4.6,0.5-6,1.5c-1.4,1-2.1,2.2-2.1,3.8c0,1.8,0.7,3.1,2.2,4c1.5,0.9,3.8,1.6,6.9,2.2c3.5,0.6,6.4,1.4,8.5,2.4
			c2.1,1,3.7,2.3,4.8,4c1.1,1.7,1.6,3.9,1.6,6.6c0,2.6-0.7,4.9-2.2,6.8c-1.5,2-3.4,3.5-5.8,4.5S222.7,106.9,219.8,106.9z
			 M269.3,62.9c1.1,0,2,0.3,2.7,1c0.7,0.7,1.1,1.5,1.1,2.6s-0.4,1.9-1.1,2.6c-0.7,0.6-1.6,1-2.7,1h-9.7v32.4c0,1.1-0.4,2-1.2,2.7
			s-1.8,1.1-2.9,1.1c-1.2,0-2.1-0.4-2.8-1.1s-1.1-1.6-1.1-2.7V70.1h-9.7c-1.1,0-2-0.3-2.7-1c-0.7-0.7-1.1-1.5-1.1-2.6
			c0-1,0.4-1.9,1.1-2.5c0.7-0.7,1.6-1,2.7-1H269.3z M308.4,62.9c1.1,0,1.9,0.4,2.6,1.1c0.7,0.7,1,1.6,1,2.7V89
			c0,3.4-0.7,6.5-2.2,9.1c-1.4,2.6-3.5,4.7-6.1,6.2c-2.6,1.5-5.6,2.2-8.9,2.2s-6.3-0.7-8.9-2.2c-2.6-1.5-4.6-3.5-6.1-6.2
			c-1.4-2.6-2.2-5.7-2.2-9.1V66.6c0-1.1,0.4-2,1.1-2.7s1.7-1.1,2.8-1.1c1,0,1.9,0.4,2.6,1.1c0.7,0.7,1.1,1.6,1.1,2.7V89
			c0,2,0.4,3.7,1.3,5.3c0.9,1.5,2,2.7,3.5,3.6c1.5,0.8,3,1.2,4.7,1.2c1.8,0,3.4-0.4,5-1.2c1.5-0.8,2.8-2,3.7-3.6
			c0.9-1.5,1.4-3.3,1.4-5.3V66.6c0-1.1,0.3-2,0.9-2.7C306.4,63.2,307.3,62.9,308.4,62.9z M337.8,62.9c3.9,0,7.2,1,10,2.9
			c2.8,1.9,4.9,4.5,6.4,7.8c1.5,3.3,2.2,6.9,2.2,11c0,4-0.7,7.7-2.2,11c-1.5,3.3-3.6,5.9-6.4,7.8c-2.8,1.9-6.1,2.9-10,2.9H323
			c-1.1,0-2-0.4-2.7-1.1c-0.7-0.7-1.1-1.6-1.1-2.7V66.7c0-1.1,0.4-2,1.1-2.7c0.7-0.7,1.6-1.1,2.7-1.1H337.8z M337.2,99.1
			c3.7,0,6.5-1.4,8.3-4.1s2.8-6.2,2.8-10.4c0-4.2-0.9-7.7-2.8-10.4c-1.9-2.7-4.6-4.1-8.3-4.1H327v29.1H337.2z M386,99.1
			c1.1,0,2,0.4,2.7,1.1s1.1,1.6,1.1,2.5c0,1-0.4,1.9-1.1,2.5c-0.7,0.7-1.6,1-2.7,1h-20.7c-1.1,0-2-0.4-2.7-1.1
			c-0.7-0.7-1.1-1.6-1.1-2.7V66.7c0-1.1,0.4-2,1.1-2.7c0.7-0.7,1.6-1.1,2.7-1.1H386c1.1,0,2,0.3,2.7,1c0.7,0.7,1.1,1.6,1.1,2.6
			c0,1-0.4,1.9-1.1,2.5s-1.6,1-2.7,1h-16.8v10.5h14c1.1,0,2,0.3,2.7,1c0.7,0.7,1.1,1.6,1.1,2.6c0,1-0.4,1.9-1.1,2.5
			c-0.7,0.6-1.6,1-2.7,1h-14v11.4H386z M427.7,62.9c1,0,1.8,0.3,2.4,1s0.9,1.5,0.9,2.5v36.1c0,1.1-0.4,2-1.1,2.7
			c-0.7,0.7-1.6,1.1-2.7,1.1c-0.6,0-1.1-0.1-1.7-0.3c-0.6-0.2-1-0.4-1.2-0.8l-22.7-28.8v26.4c0,1-0.3,1.8-1,2.5
			c-0.6,0.7-1.5,1-2.5,1c-1,0-1.8-0.3-2.4-1c-0.6-0.7-0.9-1.5-0.9-2.5V66.7c0-1.1,0.4-2,1.1-2.7c0.7-0.7,1.6-1.1,2.7-1.1
			c0.6,0,1.2,0.1,1.8,0.4c0.6,0.2,1,0.6,1.3,1L424.3,93V66.4c0-1,0.3-1.8,1-2.5S426.7,62.9,427.7,62.9z M466.8,62.9
			c1.1,0,2,0.3,2.7,1s1.1,1.5,1.1,2.6s-0.4,1.9-1.1,2.6s-1.6,1-2.7,1h-9.7v32.4c0,1.1-0.4,2-1.2,2.7c-0.8,0.7-1.8,1.1-2.9,1.1
			c-1.2,0-2.1-0.4-2.8-1.1c-0.7-0.7-1.1-1.6-1.1-2.7V70.1h-9.7c-1.1,0-2-0.3-2.7-1c-0.7-0.7-1.1-1.5-1.1-2.6c0-1,0.4-1.9,1.1-2.5
			s1.6-1,2.7-1H466.8z M524.4,100.2c0.5,0.3,1,0.8,1.3,1.3c0.3,0.5,0.5,1.1,0.5,1.7c0,0.7-0.2,1.4-0.7,2c-0.6,0.7-1.6,1.1-2.8,1.1
			c-1,0-1.9-0.2-2.7-0.7c-3-1.7-4.5-5.1-4.5-10.3c0-1.5-0.5-2.7-1.5-3.5c-1-0.9-2.4-1.3-4.2-1.3h-11.6v12c0,1.1-0.3,2-0.9,2.7
			c-0.6,0.7-1.4,1.1-2.4,1.1c-1.2,0-2.2-0.4-3.1-1.1c-0.9-0.7-1.3-1.6-1.3-2.7V66.7c0-1.1,0.4-2,1.1-2.7c0.7-0.7,1.6-1.1,2.7-1.1
			H512c2.1,0,4.2,0.6,6.1,1.7c1.9,1.2,3.4,2.7,4.5,4.8c1.1,2,1.7,4.3,1.7,6.8c0,2.1-0.6,4.1-1.7,6c-1.1,2-2.6,3.5-4.3,4.7
			c2.6,1.8,4,4.2,4.3,7.3c0.1,0.7,0.2,1.3,0.2,1.9c0.2,1.3,0.3,2.2,0.5,2.8C523.4,99.5,523.8,99.9,524.4,100.2z M511.7,84.1
			c0.7,0,1.5-0.4,2.2-1.1c0.7-0.7,1.3-1.6,1.7-2.8c0.5-1.2,0.7-2.4,0.7-3.8c0-1.2-0.2-2.2-0.7-3.2c-0.5-1-1-1.7-1.7-2.3
			c-0.7-0.6-1.4-0.9-2.2-0.9h-13.5v14H511.7z M570.2,84.6c0,4.1-0.9,7.8-2.7,11.2c-1.8,3.4-4.3,6.1-7.5,8.1c-3.2,2-6.8,3-10.8,3
			s-7.6-1-10.8-3c-3.2-2-5.7-4.7-7.5-8.1c-1.8-3.4-2.7-7.1-2.7-11.2c0-4.1,0.9-7.8,2.7-11.2s4.3-6.1,7.5-8.1c3.2-2,6.8-3,10.8-3
			s7.6,1,10.8,3c3.2,2,5.7,4.7,7.5,8.1S570.2,80.5,570.2,84.6z M562.1,84.6c0-2.8-0.6-5.3-1.7-7.5c-1.1-2.2-2.7-4-4.6-5.3
			c-2-1.3-4.2-2-6.7-2c-2.5,0-4.8,0.6-6.7,1.9c-2,1.3-3.5,3.1-4.6,5.3s-1.6,4.8-1.6,7.5c0,2.8,0.5,5.3,1.6,7.5s2.6,4.1,4.6,5.3
			c2,1.3,4.2,1.9,6.7,1.9c2.5,0,4.7-0.7,6.7-2c2-1.3,3.5-3.1,4.6-5.3C561.6,89.9,562.1,87.3,562.1,84.6z M601.3,82.2
			c2.2,0.9,4,2.2,5.3,4c1.4,1.8,2.1,4.1,2.1,6.9c0,4.9-1.4,8.3-4.2,10.3s-6.1,2.9-10,2.9h-15.4c-1.1,0-2-0.4-2.7-1.1
			c-0.7-0.7-1.1-1.6-1.1-2.7V66.7c0-1.1,0.4-2,1.1-2.7c0.7-0.7,1.6-1.1,2.7-1.1h15.6c7.8,0,11.8,3.7,11.8,11c0,1.9-0.4,3.5-1.3,4.9
			C604.2,80.3,602.9,81.4,601.3,82.2z M598.4,75.3c0-1.7-0.4-3-1.3-3.8s-2-1.3-3.6-1.3h-10.2v9.6h10.4c1.2,0,2.3-0.4,3.2-1.2
			S598.4,76.7,598.4,75.3z M594.5,99.1c1.9,0,3.5-0.5,4.5-1.5c1.1-1,1.6-2.5,1.6-4.5c0-2.4-0.6-4-1.9-4.8c-1.3-0.7-2.8-1.1-4.7-1.1
			h-10.7v11.9H594.5z M653.6,84.6c0,4.1-0.9,7.8-2.7,11.2c-1.8,3.4-4.3,6.1-7.5,8.1c-3.2,2-6.8,3-10.8,3s-7.6-1-10.8-3
			c-3.2-2-5.7-4.7-7.5-8.1c-1.8-3.4-2.7-7.1-2.7-11.2c0-4.1,0.9-7.8,2.7-11.2s4.3-6.1,7.5-8.1c3.2-2,6.8-3,10.8-3s7.6,1,10.8,3
			c3.2,2,5.7,4.7,7.5,8.1S653.6,80.5,653.6,84.6z M645.6,84.6c0-2.8-0.6-5.3-1.7-7.5c-1.1-2.2-2.7-4-4.6-5.3c-2-1.3-4.2-2-6.7-2
			c-2.5,0-4.8,0.6-6.7,1.9c-2,1.3-3.5,3.1-4.6,5.3s-1.6,4.8-1.6,7.5c0,2.8,0.5,5.3,1.6,7.5s2.6,4.1,4.6,5.3c2,1.3,4.2,1.9,6.7,1.9
			c2.5,0,4.7-0.7,6.7-2c2-1.3,3.5-3.1,4.6-5.3C645.1,89.9,645.6,87.3,645.6,84.6z M686,62.9c1.1,0,2,0.3,2.7,1s1.1,1.5,1.1,2.6
			s-0.4,1.9-1.1,2.6s-1.6,1-2.7,1h-9.7v32.4c0,1.1-0.4,2-1.2,2.7s-1.8,1.1-2.9,1.1c-1.2,0-2.1-0.4-2.8-1.1c-0.7-0.7-1.1-1.6-1.1-2.7
			V70.1h-9.7c-1.1,0-2-0.3-2.7-1s-1.1-1.5-1.1-2.6c0-1,0.4-1.9,1.1-2.5c0.7-0.7,1.6-1,2.7-1H686z M702,102.5c0,1.1-0.4,2-1.2,2.7
			s-1.7,1.1-2.7,1.1c-1.1,0-2-0.4-2.8-1.1c-0.7-0.7-1.1-1.6-1.1-2.7V66.7c0-1.1,0.4-2,1.1-2.7c0.7-0.7,1.7-1.1,2.8-1.1
			c1,0,1.9,0.4,2.7,1.1c0.7,0.7,1.1,1.6,1.1,2.7V102.5z M739.6,65c1.3,0.7,1.9,1.7,1.9,3.2c0,0.9-0.3,1.7-0.9,2.5
			c-0.7,0.9-1.5,1.3-2.5,1.3c-0.7,0-1.4-0.2-2.1-0.6c-2-0.9-4.2-1.4-6.6-1.4c-2.9,0-5.4,0.6-7.5,1.8c-2.1,1.2-3.8,2.9-4.9,5.1
			c-1.2,2.2-1.7,4.7-1.7,7.6c0,4.9,1.3,8.6,3.9,11.1c2.6,2.5,6.1,3.8,10.3,3.8c2.5,0,4.7-0.5,6.6-1.4c0.7-0.3,1.4-0.5,2-0.5
			c1.1,0,2,0.5,2.7,1.4c0.6,0.8,0.9,1.6,0.9,2.5c0,0.7-0.2,1.3-0.5,1.8c-0.3,0.5-0.8,0.9-1.4,1.2c-3.2,1.6-6.6,2.4-10.3,2.4
			c-4,0-7.8-0.9-11.1-2.6c-3.4-1.7-6.1-4.2-8.1-7.6c-2-3.3-3-7.4-3-12.1c0-4.2,1-8,2.9-11.3c1.9-3.3,4.6-5.9,7.9-7.8
			c3.4-1.9,7.2-2.8,11.4-2.8C733.1,62.6,736.5,63.4,739.6,65z M760,106.9c-3,0-5.6-0.4-7.9-1.1c-2.3-0.7-4.5-2-6.5-3.8
			c-1.1-1-1.7-2.1-1.7-3.3c0-0.9,0.4-1.8,1.1-2.5s1.5-1.1,2.5-1.1c0.8,0,1.5,0.2,2.1,0.7c1.6,1.4,3.3,2.4,4.8,3
			c1.6,0.6,3.4,0.9,5.6,0.9c2.3,0,4.3-0.5,6-1.5c1.7-1,2.5-2.3,2.5-3.8c0-1.9-0.8-3.3-2.5-4.4s-4.3-1.8-7.9-2.4
			c-9-1.3-13.5-5.5-13.5-12.6c0-2.6,0.7-4.9,2-6.8s3.2-3.4,5.6-4.4s5-1.5,7.9-1.5c2.6,0,5,0.4,7.3,1.2c2.3,0.8,4.2,1.8,5.7,3.1
			c1.2,0.9,1.8,2,1.8,3.3c0,0.9-0.4,1.8-1.1,2.5s-1.5,1.1-2.5,1.1c-0.6,0-1.2-0.2-1.7-0.6c-1.1-0.9-2.6-1.7-4.5-2.4
			c-1.9-0.7-3.6-1.1-5.2-1.1c-2.6,0-4.6,0.5-6,1.5s-2.1,2.2-2.1,3.8c0,1.8,0.7,3.1,2.2,4c1.5,0.9,3.8,1.6,6.9,2.2
			c3.5,0.6,6.4,1.4,8.5,2.4c2.1,1,3.7,2.3,4.8,4c1.1,1.7,1.6,3.9,1.6,6.6c0,2.6-0.7,4.9-2.2,6.8c-1.5,2-3.4,3.5-5.8,4.5
			C765.4,106.3,762.8,106.9,760,106.9z"/>
		<path id="Combined-Shape_1_" class="st1" d="M171.7,122c-4.6,5.7-10.2,10.6-16.7,14.4c-18.4,10.6-41,10.6-59.4,0
			c-6.3-3.7-11.8-8.4-16.3-13.9c23.8-24.7,43.5-18.7,43.5-27.4c0-9.1-33.9-15.1-33.9-21.5c0-6.3,19.9-11.1,36.9-11.1
			c17,0,36.9,4.8,36.9,11.1c0,6.3-33.9,12.3-33.9,21.5C128.8,103.8,148.2,97.9,171.7,122L171.7,122z M176.7,114.8
			c-12.6-10.6-24.4-17.2-35.3-19.7c5.4-4.4,35.8-15.4,35.8-21.4c0-5.9-26.2-20-51.2-20.2v0c-0.1,0-0.1,0-0.2,0c-0.1,0-0.1,0-0.2,0v0
			c-25,0.2-51.2,14.3-51.2,20.2c0,5.9,30.4,17,35.8,21.4c-11.1,2.6-23,9.3-35.9,20.2c-5.4-9-8.3-19.5-8.3-30.3
			c0-21.2,11.3-40.8,29.7-51.4s41-10.6,59.4,0s29.7,30.2,29.7,51.4C184.7,95.6,181.9,105.9,176.7,114.8z"/>
	</g>
	<g>
		<path class="st1" d="M208.6,200.7c0.6,0.5,0.8,1.1,0.8,1.8c0,0.4-0.1,0.9-0.3,1.4l-25,59.7c-0.3,0.6-0.6,1-1.1,1.4
			c-0.5,0.3-1,0.5-1.6,0.5s-1.1-0.2-1.5-0.5c-0.5-0.3-0.8-0.7-1.1-1.3L154,204.1c-0.2-0.4-0.3-0.9-0.3-1.5c0-0.8,0.3-1.5,0.8-2
			c0.6-0.5,1.2-0.7,1.9-0.7c1.3,0,2.2,0.7,2.8,2.1l22.5,53.9l22.2-54.1c0.3-0.6,0.7-1,1.2-1.4c0.5-0.3,1-0.5,1.5-0.5
			C207.4,199.9,208,200.2,208.6,200.7z"/>
		<path class="st1" d="M274.8,250c-2.7,5.1-6.4,9.1-11.1,12c-4.7,2.9-10.1,4.4-16.2,4.4c-6.1,0-11.4-1.5-16.2-4.4
			c-4.7-2.9-8.5-6.9-11.1-12c-2.7-5.1-4-10.9-4-17.3c0-6.5,1.3-12.3,4-17.4c2.7-5.1,6.4-9.1,11.1-12c4.7-2.9,10.1-4.3,16.2-4.3
			c6,0,11.4,1.4,16.2,4.3c4.7,2.9,8.5,6.9,11.1,12c2.7,5.1,4,10.9,4,17.4C278.8,239.2,277.4,244.9,274.8,250z M269.6,218.2
			c-2.2-4.3-5.1-7.6-9-10c-3.8-2.4-8.2-3.6-13.1-3.6c-4.9,0-9.3,1.2-13.1,3.6c-3.8,2.4-6.8,5.7-9,10c-2.2,4.3-3.2,9.1-3.2,14.5
			c0,5.4,1.1,10.3,3.2,14.5c2.2,4.3,5.1,7.6,9,10c3.8,2.4,8.2,3.6,13.1,3.6c4.9,0,9.3-1.2,13.1-3.6c3.8-2.4,6.8-5.7,9-10
			c2.2-4.3,3.2-9.1,3.2-14.5C272.8,227.3,271.7,222.5,269.6,218.2z"/>
		<path class="st1" d="M330.3,260.7c0.5,0.5,0.8,1.2,0.8,2c0,0.8-0.3,1.5-0.8,2c-0.5,0.5-1.2,0.8-2,0.8h-33.4c-0.8,0-1.5-0.3-2-0.8
			c-0.5-0.5-0.8-1.2-0.8-2v-59.9c0-0.8,0.3-1.5,0.8-2c0.6-0.5,1.3-0.8,2.2-0.8c0.8,0,1.5,0.3,2.1,0.8c0.6,0.5,0.8,1.2,0.8,2V260
			h30.3C329.1,260,329.8,260.2,330.3,260.7z"/>
		<path class="st1" d="M388.3,200.8c0.5,0.5,0.8,1.2,0.8,2v38.7c0,4.6-1.1,8.7-3.3,12.5c-2.2,3.8-5.1,6.8-8.9,9
			c-3.7,2.2-7.9,3.3-12.4,3.3c-4.6,0-8.7-1.1-12.4-3.3c-3.7-2.2-6.7-5.2-8.9-9c-2.2-3.8-3.3-8-3.3-12.5v-38.7c0-0.8,0.3-1.5,0.8-2
			c0.5-0.5,1.3-0.8,2.2-0.8c0.7,0,1.4,0.3,2,0.8c0.6,0.5,0.8,1.2,0.8,2v38.7c0,3.5,0.8,6.7,2.5,9.6c1.7,2.9,4,5.3,6.9,7
			c2.9,1.7,6,2.6,9.4,2.6c3.4,0,6.6-0.9,9.5-2.6c2.9-1.7,5.2-4,6.9-7c1.7-2.9,2.6-6.1,2.6-9.6v-38.7c0-0.8,0.2-1.5,0.7-2
			c0.5-0.5,1.2-0.8,2-0.8C387.1,200,387.8,200.3,388.3,200.8z"/>
		<path class="st1" d="M456.5,200.7c0.5,0.5,0.7,1.1,0.7,1.9v59.9c0,0.9-0.3,1.7-0.8,2.2c-0.6,0.5-1.2,0.8-2.1,0.8
			c-0.4,0-0.9-0.1-1.3-0.3c-0.4-0.2-0.7-0.4-1-0.7l-40.1-54.1V263c0,0.7-0.3,1.3-0.8,1.8c-0.5,0.5-1.1,0.7-1.8,0.7
			c-0.7,0-1.4-0.2-1.9-0.7c-0.5-0.5-0.7-1.1-0.7-1.8v-60.2c0-0.9,0.3-1.6,0.8-2.1c0.5-0.5,1.2-0.7,1.9-0.7c1,0,1.7,0.3,2.2,1
			l40.3,54.4v-52.8c0-0.7,0.2-1.4,0.7-1.9c0.5-0.5,1.1-0.7,1.9-0.7C455.4,200,456,200.2,456.5,200.7z"/>
		<path class="st1" d="M518.5,200.7c0.5,0.5,0.8,1.2,0.8,2c0,0.8-0.3,1.5-0.8,1.9c-0.5,0.5-1.2,0.7-2,0.7h-19.4v57.4
			c0,0.8-0.3,1.5-0.8,2c-0.6,0.5-1.2,0.8-2.1,0.8c-0.9,0-1.6-0.3-2.1-0.8c-0.5-0.5-0.8-1.2-0.8-2v-57.4H472c-0.8,0-1.5-0.2-2-0.7
			c-0.5-0.5-0.8-1.2-0.8-2c0-0.7,0.3-1.4,0.8-1.9c0.5-0.5,1.2-0.7,2-0.7h44.5C517.3,200,518,200.2,518.5,200.7z"/>
		<path class="st1" d="M570.5,260.8c0.5,0.6,0.8,1.2,0.8,2c0,0.8-0.3,1.5-0.8,2c-0.5,0.5-1.2,0.7-2,0.7h-34.3c-0.8,0-1.5-0.3-2-0.8
			c-0.5-0.5-0.8-1.2-0.8-2v-59.9c0-0.8,0.3-1.5,0.8-2c0.5-0.5,1.2-0.8,2-0.8h34.3c0.8,0,1.5,0.3,2,0.8c0.5,0.5,0.8,1.2,0.8,2
			c0,0.8-0.3,1.5-0.8,2c-0.5,0.5-1.2,0.7-2,0.7h-31.3V229h27c0.8,0,1.5,0.3,2,0.8c0.5,0.5,0.8,1.2,0.8,2c0,0.8-0.3,1.5-0.8,2
			c-0.5,0.5-1.2,0.7-2,0.7h-27V260h31.3C569.3,260,569.9,260.2,570.5,260.8z"/>
		<path class="st1" d="M623.6,260.8c0.5,0.6,0.8,1.2,0.8,2c0,0.8-0.3,1.5-0.8,2c-0.5,0.5-1.2,0.7-2,0.7h-34.3c-0.8,0-1.5-0.3-2-0.8
			c-0.5-0.5-0.8-1.2-0.8-2v-59.9c0-0.8,0.3-1.5,0.8-2c0.5-0.5,1.2-0.8,2-0.8h34.3c0.8,0,1.5,0.3,2,0.8c0.5,0.5,0.8,1.2,0.8,2
			c0,0.8-0.3,1.5-0.8,2c-0.5,0.5-1.2,0.7-2,0.7h-31.3V229h27c0.8,0,1.5,0.3,2,0.8c0.5,0.5,0.8,1.2,0.8,2c0,0.8-0.3,1.5-0.8,2
			c-0.5,0.5-1.2,0.7-2,0.7h-27V260h31.3C622.4,260,623.1,260.2,623.6,260.8z"/>
		<path class="st1" d="M686.8,262.8c0,0.3-0.1,0.7-0.4,1.2c-0.3,0.4-0.6,0.8-1,1c-0.4,0.3-0.9,0.4-1.4,0.4c-0.6,0-1.2-0.1-1.6-0.4
			c-1.7-1-3.2-2.6-4.2-4.9c-1.1-2.2-1.6-5.8-1.6-10.8c0-4.4-1.2-7.4-3.6-9.2c-2.4-1.8-5.3-2.7-8.7-2.7h-20.8v25.2
			c0,0.8-0.3,1.5-0.7,2c-0.5,0.5-1.2,0.8-2,0.8c-0.9,0-1.6-0.3-2.2-0.8c-0.6-0.5-0.9-1.2-0.9-2v-59.9c0-0.8,0.3-1.5,0.8-2
			c0.5-0.5,1.2-0.8,2-0.8h25.3c3.6,0,6.7,0.8,9.5,2.3c2.8,1.5,5,3.6,6.6,6.3c1.6,2.7,2.4,5.7,2.4,9.1c0,4-1,7.5-3.1,10.5
			c-2.1,3-4.8,5.1-8.2,6.2c2.7,1.1,5,2.9,6.7,5.4c1.7,2.5,2.7,5.6,2.7,9.2c0.1,3.9,0.3,6.6,0.8,8.1c0.5,1.6,1.2,2.7,2.3,3.3
			C686.3,261.1,686.8,261.8,686.8,262.8z M665.9,232.4c2.2-0.2,4.2-0.9,6.1-2.2c1.9-1.2,3.4-2.9,4.5-5.1c1.1-2.1,1.7-4.6,1.7-7.3
			c0-3.6-1.2-6.5-3.6-8.8c-2.4-2.3-5.5-3.5-9.4-3.5h-21.7v26.9H665.9z"/>
	</g>
</g>
<g id="Front" class="st4">
	<path id="STUDENT-ROBOTICS_1_" class="st5" d="M670.9,162.5c-1.3,0-2.4-0.2-3.4-0.5c-1-0.3-1.9-0.8-2.8-1.6
		c-0.5-0.4-0.7-0.9-0.7-1.4c0-0.4,0.1-0.7,0.4-1s0.7-0.5,1.1-0.5c0.3,0,0.6,0.1,0.9,0.3c0.7,0.6,1.4,1,2.1,1.2
		c0.7,0.3,1.5,0.4,2.4,0.4c1,0,1.8-0.2,2.5-0.6c0.7-0.4,1.1-1,1.1-1.6c0-0.8-0.4-1.4-1.1-1.8c-0.7-0.4-1.8-0.8-3.3-1
		c-3.8-0.5-5.8-2.3-5.8-5.3c0-1.1,0.3-2,0.9-2.8s1.4-1.4,2.4-1.8s2.1-0.6,3.3-0.6c1.1,0,2.1,0.2,3.1,0.5c1,0.3,1.8,0.8,2.4,1.3
		c0.5,0.4,0.8,0.9,0.8,1.4c0,0.4-0.1,0.7-0.4,1c-0.3,0.3-0.7,0.5-1.1,0.5c-0.3,0-0.5-0.1-0.7-0.2c-0.5-0.4-1.1-0.7-1.9-1
		c-0.8-0.3-1.6-0.5-2.2-0.5c-1.1,0-2,0.2-2.6,0.6s-0.9,0.9-0.9,1.6c0,0.7,0.3,1.3,0.9,1.7c0.6,0.4,1.6,0.7,2.9,0.9
		c1.5,0.3,2.7,0.6,3.6,1s1.6,1,2,1.6c0.5,0.7,0.7,1.6,0.7,2.8c0,1.1-0.3,2-0.9,2.8c-0.6,0.8-1.5,1.4-2.5,1.9
		C673.2,162.3,672.1,162.5,670.9,162.5z M691.9,144.2c0.5,0,0.9,0.1,1.2,0.4c0.3,0.3,0.4,0.6,0.4,1.1c0,0.4-0.1,0.8-0.4,1.1
		c-0.3,0.3-0.7,0.4-1.2,0.4h-4.1v13.5c0,0.4-0.2,0.8-0.5,1.1c-0.3,0.3-0.7,0.5-1.2,0.5c-0.5,0-0.9-0.2-1.2-0.5
		c-0.3-0.3-0.5-0.7-0.5-1.1v-13.5h-4.1c-0.5,0-0.9-0.1-1.2-0.4s-0.4-0.6-0.4-1.1c0-0.4,0.2-0.8,0.5-1.1s0.7-0.4,1.1-0.4H691.9z
		 M708.6,144.2c0.5,0,0.8,0.1,1.1,0.4c0.3,0.3,0.4,0.7,0.4,1.1v9.3c0,1.4-0.3,2.7-0.9,3.8c-0.6,1.1-1.5,2-2.6,2.6
		c-1.1,0.6-2.4,0.9-3.8,0.9c-1.4,0-2.7-0.3-3.8-0.9c-1.1-0.6-2-1.5-2.6-2.6c-0.6-1.1-0.9-2.4-0.9-3.8v-9.3c0-0.4,0.2-0.8,0.5-1.1
		c0.3-0.3,0.7-0.5,1.2-0.5c0.4,0,0.8,0.2,1.1,0.5s0.5,0.7,0.5,1.1v9.3c0,0.8,0.2,1.6,0.6,2.2c0.4,0.6,0.9,1.1,1.5,1.5
		c0.6,0.3,1.3,0.5,2,0.5c0.8,0,1.5-0.2,2.1-0.5s1.2-0.8,1.6-1.5c0.4-0.6,0.6-1.4,0.6-2.2v-9.3c0-0.5,0.1-0.8,0.4-1.1
		C707.8,144.4,708.1,144.2,708.6,144.2z M721.1,144.2c1.7,0,3.1,0.4,4.3,1.2c1.2,0.8,2.1,1.9,2.7,3.2s0.9,2.9,0.9,4.6
		s-0.3,3.2-0.9,4.6s-1.5,2.4-2.7,3.2c-1.2,0.8-2.6,1.2-4.3,1.2h-6.3c-0.5,0-0.8-0.2-1.1-0.5c-0.3-0.3-0.5-0.7-0.5-1.1v-14.9
		c0-0.4,0.2-0.8,0.5-1.1s0.7-0.5,1.1-0.5H721.1z M720.9,159.3c1.6,0,2.8-0.6,3.6-1.7s1.2-2.6,1.2-4.3c0-1.8-0.4-3.2-1.2-4.3
		s-2-1.7-3.5-1.7h-4.3v12.1H720.9z M741.7,159.3c0.5,0,0.8,0.2,1.1,0.5s0.5,0.6,0.5,1c0,0.4-0.2,0.8-0.5,1.1s-0.7,0.4-1.1,0.4h-8.8
		c-0.5,0-0.8-0.2-1.1-0.5c-0.3-0.3-0.5-0.7-0.5-1.1v-14.9c0-0.4,0.2-0.8,0.5-1.1c0.3-0.3,0.7-0.5,1.1-0.5h8.8c0.5,0,0.8,0.1,1.1,0.4
		s0.5,0.6,0.5,1.1c0,0.4-0.1,0.8-0.4,1c-0.3,0.3-0.7,0.4-1.2,0.4h-7.1v4.4h6c0.5,0,0.8,0.1,1.1,0.4c0.3,0.3,0.5,0.6,0.5,1.1
		c0,0.4-0.1,0.8-0.4,1c-0.3,0.3-0.7,0.4-1.2,0.4h-6v4.8H741.7z M759.4,144.2c0.4,0,0.8,0.1,1,0.4c0.3,0.3,0.4,0.6,0.4,1v15
		c0,0.4-0.2,0.8-0.5,1.1c-0.3,0.3-0.7,0.5-1.1,0.5c-0.2,0-0.5,0-0.7-0.1c-0.2-0.1-0.4-0.2-0.5-0.3l-9.7-12v11c0,0.4-0.1,0.8-0.4,1
		s-0.6,0.4-1.1,0.4c-0.4,0-0.8-0.1-1-0.4c-0.3-0.3-0.4-0.6-0.4-1v-15c0-0.4,0.2-0.8,0.5-1.1s0.7-0.5,1.1-0.5c0.3,0,0.5,0.1,0.8,0.2
		c0.3,0.1,0.4,0.2,0.6,0.4l9.6,12v-11.1c0-0.4,0.1-0.8,0.4-1C758.7,144.4,759,144.2,759.4,144.2z M776.1,144.2
		c0.5,0,0.9,0.1,1.2,0.4c0.3,0.3,0.4,0.6,0.4,1.1c0,0.4-0.1,0.8-0.4,1.1c-0.3,0.3-0.7,0.4-1.2,0.4H772v13.5c0,0.4-0.2,0.8-0.5,1.1
		c-0.3,0.3-0.7,0.5-1.2,0.5c-0.5,0-0.9-0.2-1.2-0.5c-0.3-0.3-0.5-0.7-0.5-1.1v-13.5h-4.1c-0.5,0-0.9-0.1-1.2-0.4s-0.4-0.6-0.4-1.1
		c0-0.4,0.2-0.8,0.5-1.1s0.7-0.4,1.1-0.4H776.1z M674.8,182.2c0.2,0.1,0.4,0.3,0.5,0.5c0.1,0.2,0.2,0.5,0.2,0.7
		c0,0.3-0.1,0.6-0.3,0.9c-0.3,0.3-0.7,0.5-1.2,0.5c-0.4,0-0.8-0.1-1.2-0.3c-1.3-0.7-1.9-2.1-1.9-4.3c0-0.6-0.2-1.1-0.6-1.5
		c-0.4-0.4-1-0.5-1.8-0.5h-4.9v5c0,0.5-0.1,0.8-0.4,1.1s-0.6,0.4-1,0.4c-0.5,0-1-0.2-1.3-0.5c-0.4-0.3-0.6-0.7-0.6-1.1v-14.9
		c0-0.4,0.2-0.8,0.5-1.1c0.3-0.3,0.7-0.5,1.1-0.5h7.6c0.9,0,1.8,0.2,2.6,0.7c0.8,0.5,1.5,1.1,1.9,2c0.5,0.8,0.7,1.8,0.7,2.8
		c0,0.9-0.2,1.7-0.7,2.5c-0.5,0.8-1.1,1.5-1.8,1.9c1.1,0.8,1.7,1.8,1.8,3c0.1,0.3,0.1,0.5,0.1,0.8c0.1,0.5,0.1,0.9,0.2,1.1
		C674.4,181.9,674.5,182,674.8,182.2z M669.4,175.5c0.3,0,0.6-0.1,0.9-0.4c0.3-0.3,0.5-0.7,0.7-1.2c0.2-0.5,0.3-1,0.3-1.6
		c0-0.5-0.1-0.9-0.3-1.3c-0.2-0.4-0.4-0.7-0.7-1c-0.3-0.2-0.6-0.4-0.9-0.4h-5.8v5.8H669.4z M694.3,175.7c0,1.7-0.4,3.3-1.2,4.7
		c-0.8,1.4-1.8,2.5-3.2,3.4c-1.4,0.8-2.9,1.2-4.6,1.2s-3.2-0.4-4.6-1.2c-1.4-0.8-2.4-1.9-3.2-3.4s-1.1-3-1.1-4.7
		c0-1.7,0.4-3.3,1.1-4.7s1.8-2.5,3.2-3.4c1.4-0.8,2.9-1.2,4.6-1.2s3.2,0.4,4.6,1.2c1.4,0.8,2.4,1.9,3.2,3.4
		C693.9,172.4,694.3,174,694.3,175.7z M690.8,175.7c0-1.2-0.2-2.2-0.7-3.1c-0.5-0.9-1.1-1.7-2-2.2c-0.8-0.5-1.8-0.8-2.8-0.8
		c-1.1,0-2,0.3-2.9,0.8c-0.8,0.5-1.5,1.3-2,2.2c-0.5,0.9-0.7,2-0.7,3.1s0.2,2.2,0.7,3.1c0.5,0.9,1.1,1.7,2,2.2
		c0.8,0.5,1.8,0.8,2.9,0.8c1.1,0,2-0.3,2.8-0.8c0.8-0.5,1.5-1.3,2-2.2C690.6,177.9,690.8,176.8,690.8,175.7z M707.5,174.7
		c0.9,0.4,1.7,0.9,2.3,1.6c0.6,0.7,0.9,1.7,0.9,2.9c0,2-0.6,3.5-1.8,4.3s-2.6,1.2-4.3,1.2h-6.6c-0.5,0-0.8-0.2-1.1-0.5
		c-0.3-0.3-0.5-0.7-0.5-1.1v-14.9c0-0.4,0.2-0.8,0.5-1.1c0.3-0.3,0.7-0.5,1.1-0.5h6.6c3.3,0,5,1.5,5,4.6c0,0.8-0.2,1.5-0.6,2
		C708.8,173.9,708.2,174.3,707.5,174.7z M706.3,171.8c0-0.7-0.2-1.2-0.5-1.6s-0.9-0.5-1.5-0.5h-4.3v4h4.4c0.5,0,1-0.2,1.4-0.5
		C706.1,172.8,706.3,172.4,706.3,171.8z M704.6,181.7c0.8,0,1.5-0.2,1.9-0.6c0.5-0.4,0.7-1.1,0.7-1.9c0-1-0.3-1.7-0.8-2
		c-0.5-0.3-1.2-0.5-2-0.5h-4.6v5H704.6z M729.8,175.7c0,1.7-0.4,3.3-1.2,4.7s-1.8,2.5-3.2,3.4c-1.4,0.8-2.9,1.2-4.6,1.2
		c-1.7,0-3.2-0.4-4.6-1.2c-1.4-0.8-2.4-1.9-3.2-3.4s-1.1-3-1.1-4.7c0-1.7,0.4-3.3,1.1-4.7s1.8-2.5,3.2-3.4c1.4-0.8,2.9-1.2,4.6-1.2
		c1.7,0,3.2,0.4,4.6,1.2c1.4,0.8,2.4,1.9,3.2,3.4S729.8,174,729.8,175.7z M726.4,175.7c0-1.2-0.2-2.2-0.7-3.1
		c-0.5-0.9-1.1-1.7-2-2.2c-0.8-0.5-1.8-0.8-2.8-0.8c-1.1,0-2,0.3-2.9,0.8c-0.8,0.5-1.5,1.3-2,2.2c-0.5,0.9-0.7,2-0.7,3.1
		s0.2,2.2,0.7,3.1c0.5,0.9,1.1,1.7,2,2.2c0.8,0.5,1.8,0.8,2.9,0.8c1.1,0,2-0.3,2.8-0.8c0.8-0.5,1.5-1.3,2-2.2
		C726.2,177.9,726.4,176.8,726.4,175.7z M743.6,166.6c0.5,0,0.9,0.1,1.2,0.4c0.3,0.3,0.4,0.6,0.4,1.1s-0.1,0.8-0.4,1.1
		c-0.3,0.3-0.7,0.4-1.2,0.4h-4.1v13.5c0,0.4-0.2,0.8-0.5,1.1c-0.3,0.3-0.7,0.5-1.2,0.5s-0.9-0.2-1.2-0.5c-0.3-0.3-0.5-0.7-0.5-1.1
		v-13.5h-4.1c-0.5,0-0.9-0.1-1.2-0.4c-0.3-0.3-0.4-0.6-0.4-1.1c0-0.4,0.2-0.8,0.5-1.1c0.3-0.3,0.7-0.4,1.1-0.4H743.6z M750.5,183.1
		c0,0.4-0.2,0.8-0.5,1.1c-0.3,0.3-0.7,0.5-1.2,0.5c-0.5,0-0.9-0.2-1.2-0.5c-0.3-0.3-0.5-0.7-0.5-1.1v-14.9c0-0.4,0.2-0.8,0.5-1.1
		c0.3-0.3,0.7-0.5,1.2-0.5c0.4,0,0.8,0.2,1.1,0.5s0.5,0.7,0.5,1.1V183.1z M766.5,167.5c0.5,0.3,0.8,0.7,0.8,1.3
		c0,0.4-0.1,0.7-0.4,1.1c-0.3,0.4-0.6,0.5-1.1,0.5c-0.3,0-0.6-0.1-0.9-0.2c-0.9-0.4-1.8-0.6-2.8-0.6c-1.2,0-2.3,0.3-3.2,0.8
		s-1.6,1.2-2.1,2.1s-0.7,2-0.7,3.2c0,2,0.6,3.6,1.7,4.6c1.1,1,2.6,1.6,4.4,1.6c1.1,0,2-0.2,2.8-0.6c0.3-0.1,0.6-0.2,0.8-0.2
		c0.5,0,0.8,0.2,1.2,0.6c0.3,0.3,0.4,0.7,0.4,1.1c0,0.3-0.1,0.5-0.2,0.7c-0.1,0.2-0.3,0.4-0.6,0.5c-1.4,0.7-2.8,1-4.4,1
		c-1.7,0-3.3-0.4-4.7-1.1c-1.4-0.7-2.6-1.8-3.5-3.2c-0.9-1.4-1.3-3.1-1.3-5c0-1.8,0.4-3.3,1.2-4.7c0.8-1.4,1.9-2.5,3.4-3.3
		c1.4-0.8,3.1-1.2,4.9-1.2C763.7,166.5,765.1,166.8,766.5,167.5z M775.2,184.9c-1.3,0-2.4-0.2-3.4-0.5c-1-0.3-1.9-0.8-2.8-1.6
		c-0.5-0.4-0.7-0.9-0.7-1.4c0-0.4,0.1-0.7,0.4-1s0.7-0.5,1.1-0.5c0.3,0,0.6,0.1,0.9,0.3c0.7,0.6,1.4,1,2.1,1.2
		c0.7,0.3,1.5,0.4,2.4,0.4c1,0,1.8-0.2,2.5-0.6c0.7-0.4,1.1-1,1.1-1.6c0-0.8-0.4-1.4-1.1-1.8c-0.7-0.4-1.8-0.8-3.3-1
		c-3.8-0.5-5.8-2.3-5.8-5.3c0-1.1,0.3-2,0.9-2.8s1.4-1.4,2.4-1.8c1-0.4,2.1-0.6,3.3-0.6c1.1,0,2.1,0.2,3.1,0.5
		c1,0.3,1.8,0.8,2.4,1.3c0.5,0.4,0.8,0.9,0.8,1.4c0,0.4-0.1,0.7-0.4,1c-0.3,0.3-0.7,0.5-1.1,0.5c-0.3,0-0.5-0.1-0.7-0.2
		c-0.5-0.4-1.1-0.7-1.9-1s-1.6-0.5-2.2-0.5c-1.1,0-2,0.2-2.6,0.6c-0.6,0.4-0.9,0.9-0.9,1.6c0,0.7,0.3,1.3,0.9,1.7
		c0.6,0.4,1.6,0.7,2.9,0.9c1.5,0.3,2.7,0.6,3.6,1s1.6,1,2,1.6s0.7,1.6,0.7,2.8c0,1.1-0.3,2-0.9,2.8c-0.6,0.8-1.5,1.4-2.5,1.9
		C777.5,184.7,776.4,184.9,775.2,184.9z"/>
	<path id="Combined-Shape_2_" class="st5" d="M753.6,120c-3.2,4-7.1,7.4-11.7,10.1c-12.9,7.4-28.7,7.4-41.6,0
		c-4.4-2.6-8.3-5.9-11.4-9.7c16.7-17.3,30.4-13.1,30.4-19.2c0-6.4-23.8-10.6-23.8-15c0-4.4,14-7.8,25.8-7.8
		c11.9,0,25.8,3.4,25.8,7.8c0,4.4-23.8,8.6-23.8,15C723.5,107.3,737.1,103.2,753.6,120L753.6,120z M757.1,115
		c-8.8-7.4-17.1-12-24.7-13.8c3.8-3.1,25.1-10.8,25.1-15c0-4.1-18.3-14-35.8-14.1v0c-0.1,0-0.1,0-0.2,0c-0.1,0-0.1,0-0.2,0v0
		c-17.5,0.1-35.8,10-35.8,14.1c0,4.2,21.3,11.9,25.1,15c-7.7,1.8-16.1,6.5-25.1,14.1c-3.8-6.3-5.8-13.6-5.8-21.2
		c0-14.9,7.9-28.6,20.8-36s28.7-7.4,41.6,0s20.8,21.1,20.8,36C762.7,101.5,760.7,108.7,757.1,115z"/>
</g>
</svg>
