<?xml version="1.0" encoding="UTF-8"?>
<svg width="1085px" height="635px" viewBox="0 0 1085 635" version="1.1" xmlns="http://www.w3.org/2000/svg" xmlns:xlink="http://www.w3.org/1999/xlink">
    <!-- Generator: Sketch 53.1 (72631) - https://sketchapp.com -->
    <title>Business Card - Front - Version D</title>
    <desc>Created with Sketch.</desc>
    <g id="Business-Card---Front---Version-D" stroke="none" stroke-width="1" fill="none" fill-rule="evenodd">
        <rect fill="#FFFFFF" x="0" y="0" width="1085" height="635"></rect>
        <path d="M252.510986,369.797895 C246.137121,377.768741 238.25178,384.616733 229.121952,389.880109 C203.40393,404.706631 171.718021,404.706631 146,389.880109 C137.138202,384.771254 129.448893,378.169458 123.176232,370.496996 C156.482635,336.004834 184.017834,344.407834 184.017834,332.161471 C184.017834,319.403112 136.510678,311.005404 136.510678,302.153661 C136.510678,293.340431 164.417726,286.646115 188.183612,286.588031 C211.949498,286.646115 239.856546,293.340431 239.856546,302.153661 C239.856546,311.005404 192.34939,319.403112 192.34939,332.161471 C192.34939,344.324391 219.510636,336.118386 252.510983,369.797899 L252.510986,369.797895 Z M259.423411,359.7125 C241.733487,344.909272 225.26374,335.725595 210.014167,332.161471 C217.582007,326.068837 260.158398,310.569993 260.158398,302.273507 C260.158398,294.025866 223.54902,274.31113 188.49493,274.079276 L188.49493,274.077213 C188.391173,274.077213 188.287399,274.077385 188.183612,274.077729 C188.079824,274.077385 187.976051,274.077213 187.872294,274.077213 L187.872294,274.079276 C152.818204,274.31113 116.208826,294.025866 116.208826,302.273507 C116.208826,310.569993 158.785217,326.068837 166.353057,332.161471 C150.8644,335.781474 134.117009,345.198618 116.110882,360.412902 C108.59712,347.791662 104.439024,333.191424 104.439024,318 C104.439024,288.346956 120.281978,260.946414 146,246.119892 C171.718021,231.293369 203.40393,231.293369 229.121952,246.119892 C254.839973,260.946414 270.682928,288.346956 270.682927,318 C270.682927,332.91122 266.676807,347.252862 259.423411,359.7125 Z" id="Combined-Shape" fill="#3270ED" fill-rule="nonzero"></path>
        <path d="M374.621951,159 L374.621951,476.5" id="Line" stroke="#3270ED" stroke-width="6" stroke-linecap="round" stroke-linejoin="round"></path>
        <text id="Coreteam@studentrobo" font-family="OpenSans, Open Sans" font-size="35" font-weight="normal" letter-spacing="0.02916665" fill="#8D8D8D">
            <tspan x="478.560976" y="244">Coreteam</tspan>
            <tspan x="639.250852" y="244" font-family="OpenSans-Light, Open Sans" font-weight="300">@studentrobotics.org</tspan>
            <tspan x="478.560976" y="331">Teams</tspan>
            <tspan x="583.980246" y="331" font-family="OpenSans-Light, Open Sans" font-weight="300">@studentrobotics.org</tspan>
            <tspan x="924.412212" y="331"></tspan>
            <tspan x="478.560976" y="418">Trustees</tspan>
            <tspan x="617.204953" y="418" font-family="OpenSans-Light, Open Sans" font-weight="300">@studentrobotics.org</tspan>
        </text>
    </g>
</svg>