<?xml version="1.0" encoding="UTF-8"?>
<svg width="1085px" height="635px" viewBox="0 0 1085 635" version="1.1" xmlns="http://www.w3.org/2000/svg" xmlns:xlink="http://www.w3.org/1999/xlink">
    <!-- Generator: Sketch 53.1 (72631) - https://sketchapp.com -->
    <title>Business Card - Front - Version A</title>
    <desc>Created with Sketch.</desc>
    <g id="Business-Card---Front---Version-A" stroke="none" stroke-width="1" fill="none" fill-rule="evenodd">
        <rect fill="#FFFFFF" x="0" y="0" width="1085" height="635"></rect>
        <path d="M208.071962,369.797895 C201.698097,377.768741 193.812756,384.616733 184.682927,389.880109 C158.964906,404.706631 127.278997,404.706631 101.560975,389.880109 C92.6991776,384.771254 85.0098685,378.169458 78.7372074,370.496996 C112.04361,336.004834 139.57881,344.407834 139.57881,332.161471 C139.57881,319.403112 92.0716538,311.005404 92.0716538,302.153661 C92.0716538,293.340431 119.978701,286.646115 143.744588,286.588031 C167.510474,286.646115 195.417521,293.340431 195.417521,302.153661 C195.417521,311.005404 147.910365,319.403112 147.910365,332.161471 C147.910365,344.324391 175.071611,336.118386 208.071958,369.797899 L208.071962,369.797895 Z M214.984386,359.7125 C197.294463,344.909272 180.824715,335.725595 165.575143,332.161471 C173.142983,326.068837 215.719374,310.569993 215.719374,302.273507 C215.719374,294.025866 179.109995,274.31113 144.055906,274.079276 L144.055906,274.077213 C143.952148,274.077213 143.848375,274.077385 143.744588,274.077729 C143.6408,274.077385 143.537027,274.077213 143.433269,274.077213 L143.433269,274.079276 C108.37918,274.31113 71.7698015,294.025866 71.7698015,302.273507 C71.7698015,310.569993 114.346193,326.068837 121.914032,332.161471 C106.425376,335.781474 89.6779844,345.198618 71.6718572,360.412902 C64.1580961,347.791662 59.9999997,333.191424 60,318 C59.9999994,288.346956 75.8429536,260.946414 101.560975,246.119892 C127.278997,231.293369 158.964906,231.293369 184.682927,246.119892 C210.400949,260.946414 226.243903,288.346956 226.243902,318 C226.243903,332.91122 222.237783,347.252862 214.984386,359.7125 Z" id="Combined-Shape" fill="#3270ED" fill-rule="nonzero"></path>
        <path d="M285.5,159 L285.5,476.5" id="Line" stroke="#3270ED" stroke-width="6" stroke-linecap="round" stroke-linejoin="round"></path>
        <text id="Core:-coreteam@stude" font-family="OpenSans, Open Sans" font-size="35" font-weight="normal" letter-spacing="0.02916665" fill="#8D8D8D">
            <tspan x="345" y="244">Core: </tspan>
            <tspan x="440.023633" y="244" font-family="OpenSans-Light, Open Sans" font-weight="300">coreteam@studentrobotics.org</tspan>
            <tspan x="345" y="331">Teams: </tspan>
            <tspan x="468.883366" y="331" font-family="OpenSans-Light, Open Sans" font-weight="300">teams@studentrobotics.org</tspan>
            <tspan x="906.138411" y="331"></tspan>
            <tspan x="345" y="418">Trustees: </tspan>
            <tspan x="502.108073" y="418" font-family="OpenSans-Light, Open Sans" font-weight="300">trustees@studentrobotics.org</tspan>
        </text>
    </g>
</svg>