<?xml version="1.0" encoding="UTF-8" standalone="no"?>
<svg
   xmlns:dc="http://purl.org/dc/elements/1.1/"
   xmlns:cc="http://creativecommons.org/ns#"
   xmlns:rdf="http://www.w3.org/1999/02/22-rdf-syntax-ns#"
   xmlns:svg="http://www.w3.org/2000/svg"
   xmlns="http://www.w3.org/2000/svg"
   id="svg875"
   version="1.1"
   viewBox="0 0 321.25985 207.87401"
   height="55mm"
   width="85mm">
  <metadata
     id="metadata881">
    <rdf:RDF>
      <cc:Work
         rdf:about="">
        <dc:format>image/svg+xml</dc:format>
        <dc:type
           rdf:resource="http://purl.org/dc/dcmitype/StillImage" />
        <dc:title>Business Card - Front - Version D</dc:title>
      </cc:Work>
    </rdf:RDF>
  </metadata>
  <defs
     id="defs879" />
  <!-- Generator: Sketch 53.2 (72643) - https://sketchapp.com -->
  <title
     id="title849">Business Card - Front - Version D</title>
  <desc
     id="desc851">Created with Sketch.</desc>
  <g
     transform="matrix(0.29576117,0,0,0.29576117,-3.8582678e-8,10.031027)"
     style="fill:none;fill-rule:evenodd;stroke:none;stroke-width:1"
     id="Business-Card---Front---Version-D">
    <rect
       style="fill:#ffffff"
       id="rect853"
       height="779.51807"
       width="1162.8876"
       y="-72.252937"
       x="-38.336956" />
    <path
       style="fill:#3270ed;fill-rule:nonzero"
       id="Combined-Shape"
       d="m 252.51099,369.79789 c -6.37387,7.97085 -14.25921,14.81884 -23.38904,20.08222 -25.71802,14.82652 -57.40393,14.82652 -83.12195,0 -8.8618,-5.10886 -16.55111,-11.71065 -22.82377,-19.38311 33.3064,-34.49217 60.8416,-26.08917 60.8416,-38.33553 0,-12.75836 -47.50715,-21.15607 -47.50715,-30.00781 0,-8.81323 27.90705,-15.50755 51.67293,-15.56563 23.76589,0.0581 51.67294,6.7524 51.67294,15.56563 0,8.85174 -47.50716,17.24945 -47.50716,30.00781 0,12.16292 27.16125,3.95692 60.16159,37.63643 z m 6.91242,-10.08539 c -17.68992,-14.80323 -34.15967,-23.98691 -49.40924,-27.55103 7.56784,-6.09263 50.14423,-21.59148 50.14423,-29.88796 0,-8.24764 -36.60938,-27.96238 -71.66347,-28.19423 v -0.002 c -0.10376,0 -0.20753,1.7e-4 -0.31132,5.2e-4 -0.10379,-3.5e-4 -0.20756,-5.2e-4 -0.31132,-5.2e-4 v 0.002 c -35.05409,0.23185 -71.66346,19.94659 -71.66346,28.19423 0,8.29648 42.57639,23.79533 50.14423,29.88796 -15.48866,3.62 -32.23605,13.03715 -50.24218,28.25143 -7.51376,-12.62124 -11.67186,-27.22148 -11.67186,-42.4129 0,-29.65304 15.84296,-57.05359 41.56098,-71.88011 25.71802,-14.82652 57.40393,-14.82652 83.12195,0 25.71802,14.82652 41.56098,42.22707 41.56098,71.88011 0,14.91122 -4.00612,29.25286 -11.25952,41.7125 z" />
    <path
       style="stroke:#3270ed;stroke-width:6;stroke-linecap:round;stroke-linejoin:round"
       id="Line"
       d="M 374.62195,159 V 476.5" />
    <g
       id="Info@studentrobotics"
       style="font-weight:normal;font-size:35px;font-family:OpenSans, 'Open Sans';letter-spacing:0.02916665;fill:#8d8d8d"
       aria-label="Info@studentrobotics.orgTrustees@studentrobotics.orgCoreteam@studentrobotics.org">
      <path
         id="path1486"
         d="m 481.99603,244 v -24.98535 h 2.90528 V 244 Z" />
      <path
         id="path1488"
         d="m 504.19073,244 v -12.1167 q 0,-2.29004 -1.04248,-3.41797 -1.04248,-1.12793 -3.26416,-1.12793 -2.93946,0 -4.30664,1.58936 -1.36719,1.58935 -1.36719,5.24658 V 244 h -2.83692 v -18.73047 h 2.30713 l 0.46143,2.56348 h 0.13672 q 0.87158,-1.38428 2.44384,-2.13623 1.57227,-0.76905 3.50342,-0.76905 3.38379,0 5.09278,1.64063 1.70898,1.62353 1.70898,5.2124 V 244 Z" />
      <path
         id="path1490"
         d="m 521.30974,227.47412 h -4.76807 V 244 h -2.83691 v -16.52588 h -3.34961 v -1.28174 l 3.34961,-1.02539 v -1.04248 q 0,-6.9043 6.03271,-6.9043 1.48682,0 3.48633,0.59815 l -0.73486,2.27295 q -1.64063,-0.52979 -2.80274,-0.52979 -1.60644,0 -2.37549,1.07666 -0.76904,1.05957 -0.76904,3.41797 v 1.21338 h 4.76807 z" />
      <path
         id="path1492"
         d="m 540.95805,234.61768 q 0,4.58007 -2.30713,7.16064 -2.30713,2.56348 -6.37451,2.56348 -2.51221,0 -4.46045,-1.1792 -1.94825,-1.1792 -3.00782,-3.38379 -1.05957,-2.20459 -1.05957,-5.16113 0,-4.58008 2.29004,-7.12647 2.29004,-2.56348 6.35742,-2.56348 3.93067,0 6.2378,2.61475 2.32422,2.61475 2.32422,7.0752 z m -14.27002,0 q 0,3.58886 1.43554,5.46875 1.43555,1.87988 4.22119,1.87988 2.78565,0 4.2212,-1.86279 1.45263,-1.87989 1.45263,-5.48584 0,-3.57178 -1.45263,-5.41748 -1.43555,-1.8628 -4.25537,-1.8628 -2.78565,0 -4.20411,1.82862 -1.41845,1.82861 -1.41845,5.45166 z" />
      <path
         id="path1494"
         style="font-weight:300;font-family:OpenSans-Light, 'Open Sans'"
         d="m 572.31287,231.5415 q 0,2.42676 -0.75196,4.44336 -0.75195,2.0166 -2.11914,3.12744 -1.36719,1.11084 -3.14453,1.11084 -1.46973,0 -2.47803,-0.88867 -1.0083,-0.88867 -1.19629,-2.27295 h -0.13671 q -0.6836,1.48682 -1.96534,2.32422 -1.26464,0.8374 -3.00781,0.8374 -2.56348,0 -4.01611,-1.74316 -1.43555,-1.76025 -1.43555,-4.76807 0,-3.48632 2.0166,-5.65673 2.0166,-2.1875 5.29785,-2.1875 1.16211,0 2.63184,0.22216 1.46973,0.20508 2.64893,0.58106 l -0.42725,8.03222 v 0.37598 q 0,3.04199 2.27295,3.04199 1.55518,0 2.5293,-1.82861 0.97412,-1.8457 0.97412,-4.78516 0,-3.09326 -1.26465,-5.41748 -1.26465,-2.32422 -3.60596,-3.57177 -2.32422,-1.26465 -5.34912,-1.26465 -3.81103,0 -6.63086,1.58935 -2.81982,1.57227 -4.30664,4.51172 -1.48682,2.92237 -1.48682,6.76758 0,5.2124 2.75147,8.01514 2.75146,2.80273 7.92969,2.80273 3.58886,0 7.45117,-1.46973 v 2.27295 q -3.28125,1.43555 -7.45117,1.43555 -6.20362,0 -9.63868,-3.40088 -3.41796,-3.41797 -3.41796,-9.53613 0,-4.44336 1.82861,-7.9126 1.82861,-3.46924 5.2124,-5.36621 3.38379,-1.91406 7.75879,-1.91406 3.67432,0 6.52832,1.55517 2.87109,1.53809 4.42627,4.39209 1.57227,2.83692 1.57227,6.54541 z m -17.6709,2.23877 q 0,4.34082 3.33252,4.34082 3.53759,0 3.84521,-5.34912 l 0.23926,-4.46045 q -1.23047,-0.34179 -2.68311,-0.34179 -2.22168,0 -3.48632,1.53808 -1.24756,1.53809 -1.24756,4.27246 z" />
      <path
         id="path1496"
         style="font-weight:300;font-family:OpenSans-Light, 'Open Sans'"
         d="m 589.48315,238.89014 q 0,2.61474 -1.94825,4.0332 -1.94824,1.41846 -5.46875,1.41846 -3.72558,0 -5.81054,-1.1792 v -2.63184 q 1.3501,0.6836 2.88818,1.07666 1.55518,0.39307 2.99072,0.39307 2.22168,0 3.41797,-0.70069 1.19629,-0.71777 1.19629,-2.17041 0,-1.09375 -0.95703,-1.86279 -0.93994,-0.78613 -3.69141,-1.8457 -2.61474,-0.97412 -3.72558,-1.6919 -1.09375,-0.73486 -1.64063,-1.65771 -0.52978,-0.92285 -0.52978,-2.20459 0,-2.29004 1.86279,-3.60596 1.86279,-1.33301 5.10986,-1.33301 3.02491,0 5.91309,1.23047 l -1.0083,2.30713 q -2.81982,-1.16211 -5.10986,-1.16211 -2.01661,0 -3.042,0.63233 -1.02539,0.63232 -1.02539,1.74316 0,0.75195 0.37598,1.28174 0.39307,0.52978 1.24756,1.0083 0.85449,0.47852 3.28125,1.38428 3.33252,1.21338 4.49463,2.44384 1.1792,1.23047 1.1792,3.09327 z" />
      <path
         id="path1498"
         style="font-weight:300;font-family:OpenSans-Light, 'Open Sans'"
         d="m 600.15929,242.00049 q 0.75195,0 1.45263,-0.10254 0.70069,-0.11963 1.11084,-0.23926 v 2.17041 q -0.46142,0.22217 -1.36718,0.35889 -0.88868,0.15381 -1.60645,0.15381 -5.43457,0 -5.43457,-5.7251 v -11.14258 h -2.68311 v -1.36719 l 2.68311,-1.1792 1.19629,-3.99902 h 1.64062 v 4.34082 h 5.43457 v 2.20459 h -5.43457 v 11.02295 q 0,1.69189 0.80323,2.59766 0.80322,0.90576 2.20459,0.90576 z" />
      <path
         id="path1500"
         style="font-weight:300;font-family:OpenSans-Light, 'Open Sans'"
         d="m 609.17771,225.26953 v 12.15088 q 0,2.29004 1.04248,3.41797 1.04248,1.12793 3.26416,1.12793 2.93946,0 4.28955,-1.60645 1.36719,-1.60644 1.36719,-5.24658 v -9.84375 H 621.978 V 244 h -2.3413 l -0.41016,-2.51221 h -0.15381 q -0.87158,1.38428 -2.42676,2.11914 -1.53808,0.73487 -3.5205,0.73487 -3.41797,0 -5.12696,-1.62354 -1.69189,-1.62353 -1.69189,-5.19531 v -12.25342 z" />
      <path
         id="path1502"
         style="font-weight:300;font-family:OpenSans-Light, 'Open Sans'"
         d="m 640.75473,241.48779 h -0.15381 q -1.96533,2.85401 -5.8789,2.85401 -3.67432,0 -5.7251,-2.51221 -2.03369,-2.51221 -2.03369,-7.14355 0,-4.63135 2.05078,-7.19483 2.05078,-2.56348 5.70801,-2.56348 3.81103,0 5.84472,2.76856 h 0.22217 l -0.11963,-1.3501 -0.0684,-1.31592 v -7.62207 h 2.83692 V 244 h -2.30713 z m -5.67383,0.47852 q 2.90528,0 4.2041,-1.57227 1.31592,-1.58935 1.31592,-5.10986 v -0.59814 q 0,-3.98194 -1.33301,-5.67383 -1.31591,-1.70899 -4.22119,-1.70899 -2.49511,0 -3.82812,1.94824 -1.31592,1.93116 -1.31592,5.46875 0,3.58887 1.31592,5.41749 1.31592,1.82861 3.8623,1.82861 z" />
      <path
         id="path1504"
         style="font-weight:300;font-family:OpenSans-Light, 'Open Sans'"
         d="m 657.41232,244.3418 q -4.15284,0 -6.5625,-2.5293 -2.39258,-2.5293 -2.39258,-7.02393 0,-4.5288 2.22168,-7.19482 2.23877,-2.66602 5.99853,-2.66602 3.52051,0 5.57129,2.32422 2.05078,2.30713 2.05078,6.10108 v 1.79443 h -12.90283 q 0.0854,3.29834 1.65772,5.00733 1.58935,1.70898 4.46044,1.70898 3.02491,0 5.98145,-1.26465 v 2.5293 q -1.50391,0.64941 -2.854,0.92285 -1.33301,0.29053 -3.22998,0.29053 z m -0.76905,-17.03858 q -2.25586,0 -3.60595,1.46973 -1.33301,1.46973 -1.57227,4.06738 h 9.79248 q 0,-2.6831 -1.19629,-4.10156 -1.19629,-1.43555 -3.41797,-1.43555 z" />
      <path
         id="path1506"
         style="font-weight:300;font-family:OpenSans-Light, 'Open Sans'"
         d="m 681.96541,244 v -12.1167 q 0,-2.29004 -1.04248,-3.41797 -1.04248,-1.12793 -3.26416,-1.12793 -2.93946,0 -4.30664,1.58936 -1.36719,1.58935 -1.36719,5.24658 V 244 h -2.83691 v -18.73047 h 2.30712 l 0.46143,2.56348 h 0.13672 q 0.87158,-1.38428 2.44385,-2.13623 1.57226,-0.76905 3.50341,-0.76905 3.38379,0 5.09278,1.64063 1.70898,1.62353 1.70898,5.2124 V 244 Z" />
      <path
         id="path1508"
         style="font-weight:300;font-family:OpenSans-Light, 'Open Sans'"
         d="m 696.69183,242.00049 q 0.75196,0 1.45264,-0.10254 0.70068,-0.11963 1.11084,-0.23926 v 2.17041 q -0.46143,0.22217 -1.36719,0.35889 -0.88867,0.15381 -1.60644,0.15381 -5.43457,0 -5.43457,-5.7251 V 227.47412 H 688.164 v -1.36719 l 2.68311,-1.1792 1.19629,-3.99902 h 1.64062 v 4.34082 h 5.43457 v 2.20459 h -5.43457 v 11.02295 q 0,1.69189 0.80322,2.59766 0.80323,0.90576 2.20459,0.90576 z" />
      <path
         id="path1510"
         style="font-weight:300;font-family:OpenSans-Light, 'Open Sans'"
         d="m 711.58917,224.92773 q 1.24756,0 2.23877,0.20508 l -0.39306,2.63184 q -1.16211,-0.25635 -2.05079,-0.25635 -2.27294,0 -3.89648,1.8457 -1.60645,1.84571 -1.60645,4.59717 V 244 h -2.83691 v -18.73047 h 2.34131 l 0.32471,3.46924 h 0.13671 q 1.04249,-1.82861 2.51221,-2.81982 1.46973,-0.99122 3.22998,-0.99122 z" />
      <path
         id="path1512"
         style="font-weight:300;font-family:OpenSans-Light, 'Open Sans'"
         d="m 733.52751,234.61768 q 0,4.58007 -2.30713,7.16064 -2.30713,2.56348 -6.37451,2.56348 -2.51221,0 -4.46045,-1.1792 -1.94824,-1.1792 -3.00781,-3.38379 -1.05957,-2.20459 -1.05957,-5.16113 0,-4.58008 2.29004,-7.12647 2.29004,-2.56348 6.35742,-2.56348 3.93066,0 6.23779,2.61475 2.32422,2.61475 2.32422,7.0752 z m -14.27002,0 q 0,3.58886 1.43555,5.46875 1.43555,1.87988 4.22119,1.87988 2.78564,0 4.22119,-1.86279 1.45264,-1.87989 1.45264,-5.48584 0,-3.57178 -1.45264,-5.41748 -1.43555,-1.8628 -4.25537,-1.8628 -2.78564,0 -4.2041,1.82862 -1.41846,1.82861 -1.41846,5.45166 z" />
      <path
         id="path1514"
         style="font-weight:300;font-family:OpenSans-Light, 'Open Sans'"
         d="m 747.22856,224.96191 q 3.69141,0 5.7251,2.5293 2.05078,2.51221 2.05078,7.12647 0,4.61425 -2.06787,7.17773 -2.05078,2.54639 -5.70801,2.54639 -1.82861,0 -3.34961,-0.66651 -1.5039,-0.68359 -2.52929,-2.08496 h -0.20508 L 740.54643,244 h -2.03369 v -26.5918 h 2.83692 v 6.45996 q 0,2.17041 -0.13672,3.89649 h 0.13672 q 1.98242,-2.80274 5.8789,-2.80274 z m -0.41015,2.37549 q -2.90528,0 -4.18702,1.67481 -1.28173,1.65771 -1.28173,5.60547 0,3.94775 1.31591,5.65673 1.31592,1.6919 4.22119,1.6919 2.61475,0 3.89649,-1.89697 1.28174,-1.91407 1.28174,-5.48584 0,-3.65723 -1.28174,-5.45166 -1.28174,-1.79444 -3.96484,-1.79444 z" />
      <path
         id="path1516"
         style="font-weight:300;font-family:OpenSans-Light, 'Open Sans'"
         d="m 776.17374,234.61768 q 0,4.58007 -2.30713,7.16064 -2.30713,2.56348 -6.37451,2.56348 -2.51221,0 -4.46045,-1.1792 -1.94825,-1.1792 -3.00782,-3.38379 -1.05957,-2.20459 -1.05957,-5.16113 0,-4.58008 2.29004,-7.12647 2.29004,-2.56348 6.35742,-2.56348 3.93067,0 6.2378,2.61475 2.32422,2.61475 2.32422,7.0752 z m -14.27002,0 q 0,3.58886 1.43554,5.46875 1.43555,1.87988 4.2212,1.87988 2.78564,0 4.22119,-1.86279 1.45263,-1.87989 1.45263,-5.48584 0,-3.57178 -1.45263,-5.41748 -1.43555,-1.8628 -4.25537,-1.8628 -2.78565,0 -4.20411,1.82862 -1.41845,1.82861 -1.41845,5.45166 z" />
      <path
         id="path1518"
         style="font-weight:300;font-family:OpenSans-Light, 'Open Sans'"
         d="m 787.20877,242.00049 q 0.75195,0 1.45264,-0.10254 0.70068,-0.11963 1.11084,-0.23926 v 2.17041 q -0.46143,0.22217 -1.36719,0.35889 -0.88867,0.15381 -1.60645,0.15381 -5.43457,0 -5.43457,-5.7251 v -11.14258 h -2.6831 v -1.36719 l 2.6831,-1.1792 1.19629,-3.99902 h 1.64063 v 4.34082 h 5.43457 v 2.20459 h -5.43457 v 11.02295 q 0,1.69189 0.80322,2.59766 0.80322,0.90576 2.20459,0.90576 z" />
      <path
         id="path1520"
         style="font-weight:300;font-family:OpenSans-Light, 'Open Sans'"
         d="m 796.39809,244 h -2.83692 v -18.73047 h 2.83692 z m -3.07618,-23.80615 q 0,-0.97412 0.47852,-1.41846 0.47852,-0.46143 1.19629,-0.46143 0.68359,0 1.1792,0.46143 0.4956,0.46143 0.4956,1.41846 0,0.95703 -0.4956,1.43554 -0.49561,0.46143 -1.1792,0.46143 -0.71777,0 -1.19629,-0.46143 -0.47852,-0.47851 -0.47852,-1.43554 z" />
      <path
         id="path1522"
         style="font-weight:300;font-family:OpenSans-Light, 'Open Sans'"
         d="m 809.9624,244.3418 q -4.06738,0 -6.30615,-2.49512 -2.22168,-2.51221 -2.22168,-7.09229 0,-4.6997 2.25586,-7.26318 2.27295,-2.56348 6.45996,-2.56348 1.3501,0 2.7002,0.29053 1.35009,0.29053 2.11914,0.6836 l -0.87159,2.40966 q -0.93994,-0.37597 -2.05078,-0.61523 -1.11084,-0.25635 -1.96533,-0.25635 -5.70801,0 -5.70801,7.28027 0,3.45215 1.38428,5.29786 1.40137,1.8457 4.13574,1.8457 2.34131,0 4.80225,-1.0083 v 2.51221 q -1.87988,0.97412 -4.73389,0.97412 z" />
      <path
         id="path1524"
         style="font-weight:300;font-family:OpenSans-Light, 'Open Sans'"
         d="m 831.26843,238.89014 q 0,2.61474 -1.94824,4.0332 -1.94824,1.41846 -5.46875,1.41846 -3.72559,0 -5.81055,-1.1792 v -2.63184 q 1.3501,0.6836 2.88819,1.07666 1.55517,0.39307 2.99072,0.39307 2.22168,0 3.41797,-0.70069 1.19629,-0.71777 1.19629,-2.17041 0,-1.09375 -0.95703,-1.86279 -0.93995,-0.78613 -3.69141,-1.8457 -2.61475,-0.97412 -3.72559,-1.6919 -1.09375,-0.73486 -1.64062,-1.65771 -0.52979,-0.92285 -0.52979,-2.20459 0,-2.29004 1.8628,-3.60596 1.86279,-1.33301 5.10986,-1.33301 3.0249,0 5.91309,1.23047 l -1.0083,2.30713 q -2.81983,-1.16211 -5.10987,-1.16211 -2.0166,0 -3.04199,0.63233 -1.02539,0.63232 -1.02539,1.74316 0,0.75195 0.37598,1.28174 0.39306,0.52978 1.24755,1.0083 0.8545,0.47852 3.28125,1.38428 3.33252,1.21338 4.49463,2.44384 1.1792,1.23047 1.1792,3.09327 z" />
      <path
         id="path1526"
         style="font-weight:300;font-family:OpenSans-Light, 'Open Sans'"
         d="m 835.48462,242.18848 q 0,-1.14502 0.51269,-1.72608 0.52979,-0.59814 1.50391,-0.59814 0.99121,0 1.53809,0.59814 0.56396,0.58106 0.56396,1.72608 0,1.11084 -0.56396,1.70898 -0.56397,0.59815 -1.53809,0.59815 -0.87158,0 -1.45264,-0.52979 -0.56396,-0.54687 -0.56396,-1.77734 z" />
      <path
         id="path1528"
         style="font-weight:300;font-family:OpenSans-Light, 'Open Sans'"
         d="m 861.38779,234.61768 q 0,4.58007 -2.30713,7.16064 -2.30713,2.56348 -6.37451,2.56348 -2.51221,0 -4.46045,-1.1792 -1.94825,-1.1792 -3.00782,-3.38379 -1.05957,-2.20459 -1.05957,-5.16113 0,-4.58008 2.29004,-7.12647 2.29004,-2.56348 6.35743,-2.56348 3.93066,0 6.23779,2.61475 2.32422,2.61475 2.32422,7.0752 z m -14.27002,0 q 0,3.58886 1.43554,5.46875 1.43555,1.87988 4.2212,1.87988 2.78564,0 4.22119,-1.86279 1.45263,-1.87989 1.45263,-5.48584 0,-3.57178 -1.45263,-5.41748 -1.43555,-1.8628 -4.25537,-1.8628 -2.78565,0 -4.20411,1.82862 -1.41845,1.82861 -1.41845,5.45166 z" />
      <path
         id="path1530"
         style="font-weight:300;font-family:OpenSans-Light, 'Open Sans'"
         d="m 874.91794,224.92773 q 1.24756,0 2.23877,0.20508 l -0.39307,2.63184 q -1.16211,-0.25635 -2.05078,-0.25635 -2.27295,0 -3.89648,1.8457 -1.60645,1.84571 -1.60645,4.59717 V 244 h -2.83691 v -18.73047 h 2.3413 l 0.32471,3.46924 h 0.13672 q 1.04248,-1.82861 2.51221,-2.81982 1.46972,-0.99122 3.22998,-0.99122 z" />
      <path
         id="path1532"
         style="font-weight:300;font-family:OpenSans-Light, 'Open Sans'"
         d="m 896.01889,225.26953 v 1.79443 l -3.46924,0.41016 q 0.47852,0.59815 0.85449,1.57227 0.37598,0.95703 0.37598,2.17041 0,2.75146 -1.87988,4.39209 -1.87988,1.64062 -5.16113,1.64062 -0.83741,0 -1.57227,-0.13672 -1.81152,0.95703 -1.81152,2.40967 0,0.76904 0.63232,1.14502 0.63232,0.35889 2.17041,0.35889 h 3.31543 q 3.04199,0 4.66553,1.28174 1.64062,1.28173 1.64062,3.72558 0,3.11035 -2.49511,4.73389 -2.49512,1.64062 -7.28028,1.64062 -3.67431,0 -5.67383,-1.36718 -1.98242,-1.36719 -1.98242,-3.86231 0,-1.70898 1.09375,-2.95654 1.09375,-1.24756 3.07617,-1.6919 -0.71777,-0.3247 -1.21338,-1.0083 -0.47851,-0.68359 -0.47851,-1.58935 0,-1.02539 0.54687,-1.79444 0.54688,-0.76904 1.72608,-1.48681 -1.45264,-0.59815 -2.37549,-2.03369 -0.90576,-1.43555 -0.90576,-3.28125 0,-3.07618 1.8457,-4.73389 1.8457,-1.67481 5.22949,-1.67481 1.46973,0 2.64893,0.3418 z m -14.93652,21.875 q 0,1.521 1.28174,2.30713 1.28173,0.78613 3.67431,0.78613 3.57178,0 5.28076,-1.07666 1.72608,-1.05957 1.72608,-2.88818 0,-1.521 -0.93994,-2.11914 -0.93995,-0.58106 -3.5376,-0.58106 h -3.40088 q -1.93115,0 -3.00781,0.92286 -1.07666,0.92285 -1.07666,2.64892 z m 1.53808,-15.87646 q 0,1.96533 1.11084,2.97363 1.11084,1.0083 3.09326,1.0083 4.15284,0 4.15284,-4.0332 0,-4.22119 -4.20411,-4.22119 -1.99951,0 -3.07617,1.07666 -1.07666,1.07666 -1.07666,3.1958 z" />
      <path
         id="path1534"
         d="m 489.68646,331 h -2.90527 v -22.40479 h -7.9126 v -2.58056 h 18.73047 v 2.58056 h -7.9126 z" />
      <path
         id="path1536"
         d="m 509.48858,311.92773 q 1.24756,0 2.23877,0.20508 l -0.39307,2.63184 q -1.16211,-0.25635 -2.05078,-0.25635 -2.27295,0 -3.89648,1.8457 -1.60645,1.84571 -1.60645,4.59717 V 331 h -2.83691 v -18.73047 h 2.34131 l 0.3247,3.46924 h 0.13672 q 1.04248,-1.82861 2.51221,-2.81982 1.46972,-0.99122 3.22998,-0.99122 z" />
      <path
         id="path1538"
         d="m 517.92595,312.26953 v 12.15088 q 0,2.29004 1.04248,3.41797 1.04248,1.12793 3.26416,1.12793 2.93945,0 4.28955,-1.60645 1.36719,-1.60644 1.36719,-5.24658 v -9.84375 h 2.83691 V 331 h -2.34131 l -0.41015,-2.51221 h -0.15381 q -0.87158,1.38428 -2.42676,2.11914 -1.53809,0.73487 -3.52051,0.73487 -3.41797,0 -5.12695,-1.62354 -1.69189,-1.62353 -1.69189,-5.19531 v -12.25342 z" />
      <path
         id="path1540"
         d="m 548.83646,325.89014 q 0,2.61474 -1.94824,4.0332 -1.94824,1.41846 -5.46875,1.41846 -3.72558,0 -5.81055,-1.1792 v -2.63184 q 1.3501,0.6836 2.88819,1.07666 1.55517,0.39307 2.99072,0.39307 2.22168,0 3.41797,-0.70069 1.19629,-0.71777 1.19629,-2.17041 0,-1.09375 -0.95703,-1.86279 -0.93994,-0.78613 -3.69141,-1.8457 -2.61474,-0.97412 -3.72558,-1.6919 -1.09375,-0.73486 -1.64063,-1.65771 -0.52978,-0.92285 -0.52978,-2.20459 0,-2.29004 1.86279,-3.60596 1.86279,-1.33301 5.10986,-1.33301 3.0249,0 5.91309,1.23047 l -1.0083,2.30713 q -2.81983,-1.16211 -5.10987,-1.16211 -2.0166,0 -3.04199,0.63233 -1.02539,0.63232 -1.02539,1.74316 0,0.75195 0.37598,1.28174 0.39306,0.52978 1.24756,1.0083 0.85449,0.47852 3.28125,1.38428 3.33252,1.21338 4.49462,2.44384 1.1792,1.23047 1.1792,3.09327 z" />
      <path
         id="path1542"
         d="m 559.5126,329.00049 q 0.75196,0 1.45264,-0.10254 0.70068,-0.11963 1.11084,-0.23926 v 2.17041 q -0.46143,0.22217 -1.36719,0.35889 -0.88867,0.15381 -1.60644,0.15381 -5.43457,0 -5.43457,-5.7251 v -11.14258 h -2.68311 v -1.36719 l 2.68311,-1.1792 1.19629,-3.99902 h 1.64062 v 4.34082 h 5.43457 v 2.20459 h -5.43457 v 11.02295 q 0,1.69189 0.80322,2.59766 0.80323,0.90576 2.20459,0.90576 z" />
      <path
         id="path1544"
         d="m 573.77761,331.3418 q -4.15283,0 -6.5625,-2.5293 -2.39258,-2.5293 -2.39258,-7.02393 0,-4.5288 2.22168,-7.19482 2.23877,-2.66602 5.99854,-2.66602 3.52051,0 5.57129,2.32422 2.05078,2.30713 2.05078,6.10108 v 1.79443 h -12.90283 q 0.0854,3.29834 1.65771,5.00733 1.58936,1.70898 4.46045,1.70898 3.0249,0 5.98145,-1.26465 v 2.5293 q -1.50391,0.64941 -2.85401,0.92285 -1.33301,0.29053 -3.22998,0.29053 z m -0.76904,-17.03858 q -2.25586,0 -3.60596,1.46973 -1.33301,1.46973 -1.57226,4.06738 h 9.79248 q 0,-2.6831 -1.19629,-4.10156 -1.19629,-1.43555 -3.41797,-1.43555 z" />
      <path
         id="path1546"
         d="m 593.42592,331.3418 q -4.15283,0 -6.5625,-2.5293 -2.39258,-2.5293 -2.39258,-7.02393 0,-4.5288 2.22168,-7.19482 2.23877,-2.66602 5.99854,-2.66602 3.5205,0 5.57128,2.32422 2.05079,2.30713 2.05079,6.10108 v 1.79443 h -12.90284 q 0.0854,3.29834 1.65772,5.00733 1.58935,1.70898 4.46045,1.70898 3.0249,0 5.98144,-1.26465 v 2.5293 q -1.5039,0.64941 -2.854,0.92285 -1.33301,0.29053 -3.22998,0.29053 z m -0.76904,-17.03858 q -2.25586,0 -3.60596,1.46973 -1.33301,1.46973 -1.57227,4.06738 h 9.79248 q 0,-2.6831 -1.19629,-4.10156 -1.19628,-1.43555 -3.41796,-1.43555 z" />
      <path
         id="path1548"
         d="m 617.24415,325.89014 q 0,2.61474 -1.94824,4.0332 -1.94825,1.41846 -5.46875,1.41846 -3.72559,0 -5.81055,-1.1792 v -2.63184 q 1.3501,0.6836 2.88818,1.07666 1.55518,0.39307 2.99073,0.39307 2.22168,0 3.41796,-0.70069 1.19629,-0.71777 1.19629,-2.17041 0,-1.09375 -0.95703,-1.86279 -0.93994,-0.78613 -3.6914,-1.8457 -2.61475,-0.97412 -3.72559,-1.6919 -1.09375,-0.73486 -1.64063,-1.65771 -0.52978,-0.92285 -0.52978,-2.20459 0,-2.29004 1.86279,-3.60596 1.8628,-1.33301 5.10987,-1.33301 3.0249,0 5.91308,1.23047 l -1.0083,2.30713 q -2.81982,-1.16211 -5.10986,-1.16211 -2.0166,0 -3.04199,0.63233 -1.0254,0.63232 -1.0254,1.74316 0,0.75195 0.37598,1.28174 0.39307,0.52978 1.24756,1.0083 0.85449,0.47852 3.28125,1.38428 3.33252,1.21338 4.49463,2.44384 1.1792,1.23047 1.1792,3.09327 z" />
      <path
         id="path1550"
         style="font-weight:300;font-family:OpenSans-Light, 'Open Sans'"
         d="m 646.59949,318.5415 q 0,2.42676 -0.75196,4.44336 -0.75195,2.0166 -2.11914,3.12744 -1.36718,1.11084 -3.14453,1.11084 -1.46972,0 -2.47803,-0.88867 -1.0083,-0.88867 -1.19628,-2.27295 h -0.13672 q -0.6836,1.48682 -1.96533,2.32422 -1.26465,0.8374 -3.00782,0.8374 -2.56347,0 -4.01611,-1.74316 -1.43555,-1.76025 -1.43555,-4.76807 0,-3.48632 2.0166,-5.65673 2.01661,-2.1875 5.29786,-2.1875 1.1621,0 2.63183,0.22216 1.46973,0.20508 2.64893,0.58106 l -0.42725,8.03222 v 0.37598 q 0,3.04199 2.27295,3.04199 1.55518,0 2.5293,-1.82861 0.97412,-1.8457 0.97412,-4.78516 0,-3.09326 -1.26465,-5.41748 -1.26465,-2.32422 -3.60596,-3.57177 -2.32422,-1.26465 -5.34912,-1.26465 -3.81103,0 -6.63086,1.58935 -2.81982,1.57227 -4.30664,4.51172 -1.48681,2.92237 -1.48681,6.76758 0,5.2124 2.75146,8.01514 2.75147,2.80273 7.92969,2.80273 3.58886,0 7.45117,-1.46973 v 2.27295 q -3.28125,1.43555 -7.45117,1.43555 -6.20362,0 -9.63867,-3.40088 -3.41797,-3.41797 -3.41797,-9.53613 0,-4.44336 1.82861,-7.9126 1.82861,-3.46924 5.2124,-5.36621 3.38379,-1.91406 7.75879,-1.91406 3.67432,0 6.52832,1.55517 2.8711,1.53809 4.42627,4.39209 1.57227,2.83692 1.57227,6.54541 z m -17.6709,2.23877 q 0,4.34082 3.33252,4.34082 3.5376,0 3.84521,-5.34912 l 0.23926,-4.46045 q -1.23047,-0.34179 -2.6831,-0.34179 -2.22168,0 -3.48633,1.53808 -1.24756,1.53809 -1.24756,4.27246 z" />
      <path
         id="path1552"
         style="font-weight:300;font-family:OpenSans-Light, 'Open Sans'"
         d="m 663.76977,325.89014 q 0,2.61474 -1.94824,4.0332 -1.94825,1.41846 -5.46875,1.41846 -3.72559,0 -5.81055,-1.1792 v -2.63184 q 1.3501,0.6836 2.88818,1.07666 1.55518,0.39307 2.99072,0.39307 2.22168,0 3.41797,-0.70069 1.19629,-0.71777 1.19629,-2.17041 0,-1.09375 -0.95703,-1.86279 -0.93994,-0.78613 -3.6914,-1.8457 -2.61475,-0.97412 -3.72559,-1.6919 -1.09375,-0.73486 -1.64063,-1.65771 -0.52978,-0.92285 -0.52978,-2.20459 0,-2.29004 1.86279,-3.60596 1.8628,-1.33301 5.10987,-1.33301 3.0249,0 5.91308,1.23047 l -1.0083,2.30713 q -2.81982,-1.16211 -5.10986,-1.16211 -2.0166,0 -3.04199,0.63233 -1.0254,0.63232 -1.0254,1.74316 0,0.75195 0.37598,1.28174 0.39307,0.52978 1.24756,1.0083 0.85449,0.47852 3.28125,1.38428 3.33252,1.21338 4.49463,2.44384 1.1792,1.23047 1.1792,3.09327 z" />
      <path
         id="path1554"
         style="font-weight:300;font-family:OpenSans-Light, 'Open Sans'"
         d="m 674.44591,329.00049 q 0.75195,0 1.45263,-0.10254 0.70069,-0.11963 1.11084,-0.23926 v 2.17041 q -0.46142,0.22217 -1.36718,0.35889 -0.88868,0.15381 -1.60645,0.15381 -5.43457,0 -5.43457,-5.7251 v -11.14258 h -2.6831 v -1.36719 l 2.6831,-1.1792 1.19629,-3.99902 h 1.64063 v 4.34082 h 5.43457 v 2.20459 h -5.43457 v 11.02295 q 0,1.69189 0.80322,2.59766 0.80322,0.90576 2.20459,0.90576 z" />
      <path
         id="path1556"
         style="font-weight:300;font-family:OpenSans-Light, 'Open Sans'"
         d="m 683.46433,312.26953 v 12.15088 q 0,2.29004 1.04248,3.41797 1.04248,1.12793 3.26416,1.12793 2.93946,0 4.28955,-1.60645 1.36719,-1.60644 1.36719,-5.24658 v -9.84375 h 2.83692 V 331 h -2.34131 l -0.41016,-2.51221 h -0.15381 q -0.87158,1.38428 -2.42676,2.11914 -1.53808,0.73487 -3.5205,0.73487 -3.41797,0 -5.12696,-1.62354 -1.69189,-1.62353 -1.69189,-5.19531 v -12.25342 z" />
      <path
         id="path1558"
         style="font-weight:300;font-family:OpenSans-Light, 'Open Sans'"
         d="m 715.04135,328.48779 h -0.15381 q -1.96533,2.85401 -5.8789,2.85401 -3.67432,0 -5.7251,-2.51221 -2.03369,-2.51221 -2.03369,-7.14355 0,-4.63135 2.05078,-7.19483 2.05078,-2.56348 5.70801,-2.56348 3.81103,0 5.84472,2.76856 h 0.22217 l -0.11963,-1.3501 -0.0684,-1.31592 v -7.62207 h 2.83692 V 331 h -2.30713 z m -5.67383,0.47852 q 2.90528,0 4.2041,-1.57227 1.31592,-1.58935 1.31592,-5.10986 v -0.59814 q 0,-3.98194 -1.33301,-5.67383 -1.31591,-1.70899 -4.22119,-1.70899 -2.49511,0 -3.82812,1.94824 -1.31592,1.93116 -1.31592,5.46875 0,3.58887 1.31592,5.41749 1.31592,1.82861 3.8623,1.82861 z" />
      <path
         id="path1560"
         style="font-weight:300;font-family:OpenSans-Light, 'Open Sans'"
         d="m 731.69894,331.3418 q -4.15284,0 -6.5625,-2.5293 -2.39258,-2.5293 -2.39258,-7.02393 0,-4.5288 2.22168,-7.19482 2.23877,-2.66602 5.99853,-2.66602 3.52051,0 5.57129,2.32422 2.05078,2.30713 2.05078,6.10108 v 1.79443 h -12.90283 q 0.0855,3.29834 1.65772,5.00733 1.58935,1.70898 4.46045,1.70898 3.0249,0 5.98144,-1.26465 v 2.5293 q -1.50391,0.64941 -2.854,0.92285 -1.33301,0.29053 -3.22998,0.29053 z m -0.76905,-17.03858 q -2.25586,0 -3.60595,1.46973 -1.33301,1.46973 -1.57227,4.06738 h 9.79248 q 0,-2.6831 -1.19629,-4.10156 -1.19629,-1.43555 -3.41797,-1.43555 z" />
      <path
         id="path1562"
         style="font-weight:300;font-family:OpenSans-Light, 'Open Sans'"
         d="m 756.25203,331 v -12.1167 q 0,-2.29004 -1.04248,-3.41797 -1.04248,-1.12793 -3.26416,-1.12793 -2.93945,0 -4.30664,1.58936 -1.36719,1.58935 -1.36719,5.24658 V 331 h -2.83691 v -18.73047 h 2.30713 l 0.46142,2.56348 h 0.13672 q 0.87158,-1.38428 2.44385,-2.13623 1.57226,-0.76905 3.50342,-0.76905 3.38378,0 5.09277,1.64063 1.70898,1.62353 1.70898,5.2124 V 331 Z" />
      <path
         id="path1564"
         style="font-weight:300;font-family:OpenSans-Light, 'Open Sans'"
         d="m 770.97845,329.00049 q 0.75196,0 1.45264,-0.10254 0.70068,-0.11963 1.11084,-0.23926 v 2.17041 q -0.46142,0.22217 -1.36719,0.35889 -0.88867,0.15381 -1.60644,0.15381 -5.43457,0 -5.43457,-5.7251 v -11.14258 h -2.68311 v -1.36719 l 2.68311,-1.1792 1.19629,-3.99902 h 1.64062 v 4.34082 h 5.43457 v 2.20459 h -5.43457 v 11.02295 q 0,1.69189 0.80322,2.59766 0.80323,0.90576 2.20459,0.90576 z" />
      <path
         id="path1566"
         style="font-weight:300;font-family:OpenSans-Light, 'Open Sans'"
         d="m 785.87579,311.92773 q 1.24756,0 2.23877,0.20508 l -0.39306,2.63184 q -1.16211,-0.25635 -2.05078,-0.25635 -2.27295,0 -3.89649,1.8457 -1.60644,1.84571 -1.60644,4.59717 V 331 h -2.83692 v -18.73047 h 2.34131 l 0.32471,3.46924 h 0.13672 q 1.04248,-1.82861 2.5122,-2.81982 1.46973,-0.99122 3.22998,-0.99122 z" />
      <path
         id="path1568"
         style="font-weight:300;font-family:OpenSans-Light, 'Open Sans'"
         d="m 807.81413,321.61768 q 0,4.58007 -2.30713,7.16064 -2.30713,2.56348 -6.37451,2.56348 -2.5122,0 -4.46045,-1.1792 -1.94824,-1.1792 -3.00781,-3.38379 -1.05957,-2.20459 -1.05957,-5.16113 0,-4.58008 2.29004,-7.12647 2.29004,-2.56348 6.35742,-2.56348 3.93067,0 6.23779,2.61475 2.32422,2.61475 2.32422,7.0752 z m -14.27002,0 q 0,3.58886 1.43555,5.46875 1.43555,1.87988 4.22119,1.87988 2.78565,0 4.22119,-1.86279 1.45264,-1.87989 1.45264,-5.48584 0,-3.57178 -1.45264,-5.41748 -1.43554,-1.8628 -4.25537,-1.8628 -2.78564,0 -4.2041,1.82862 -1.41846,1.82861 -1.41846,5.45166 z" />
      <path
         id="path1570"
         style="font-weight:300;font-family:OpenSans-Light, 'Open Sans'"
         d="m 821.51518,311.96191 q 3.69141,0 5.7251,2.5293 2.05078,2.51221 2.05078,7.12647 0,4.61425 -2.06787,7.17773 -2.05078,2.54639 -5.70801,2.54639 -1.82861,0 -3.34961,-0.66651 -1.5039,-0.68359 -2.52929,-2.08496 H 815.4312 L 814.83305,331 h -2.03369 v -26.5918 h 2.83692 v 6.45996 q 0,2.17041 -0.13672,3.89649 h 0.13672 q 1.98242,-2.80274 5.8789,-2.80274 z m -0.41015,2.37549 q -2.90528,0 -4.18702,1.67481 -1.28173,1.65771 -1.28173,5.60547 0,3.94775 1.31591,5.65673 1.31592,1.6919 4.2212,1.6919 2.61474,0 3.89648,-1.89697 1.28174,-1.91407 1.28174,-5.48584 0,-3.65723 -1.28174,-5.45166 -1.28174,-1.79444 -3.96484,-1.79444 z" />
      <path
         id="path1572"
         style="font-weight:300;font-family:OpenSans-Light, 'Open Sans'"
         d="m 850.46036,321.61768 q 0,4.58007 -2.30713,7.16064 -2.30713,2.56348 -6.37451,2.56348 -2.51221,0 -4.46045,-1.1792 -1.94824,-1.1792 -3.00781,-3.38379 -1.05957,-2.20459 -1.05957,-5.16113 0,-4.58008 2.29003,-7.12647 2.29004,-2.56348 6.35743,-2.56348 3.93066,0 6.23779,2.61475 2.32422,2.61475 2.32422,7.0752 z m -14.27002,0 q 0,3.58886 1.43555,5.46875 1.43554,1.87988 4.22119,1.87988 2.78564,0 4.22119,-1.86279 1.45263,-1.87989 1.45263,-5.48584 0,-3.57178 -1.45263,-5.41748 -1.43555,-1.8628 -4.25537,-1.8628 -2.78565,0 -4.2041,1.82862 -1.41846,1.82861 -1.41846,5.45166 z" />
      <path
         id="path1574"
         style="font-weight:300;font-family:OpenSans-Light, 'Open Sans'"
         d="m 861.49539,329.00049 q 0.75195,0 1.45264,-0.10254 0.70068,-0.11963 1.11084,-0.23926 v 2.17041 q -0.46143,0.22217 -1.36719,0.35889 -0.88867,0.15381 -1.60644,0.15381 -5.43457,0 -5.43457,-5.7251 v -11.14258 h -2.68311 v -1.36719 l 2.68311,-1.1792 1.19628,-3.99902 h 1.64063 v 4.34082 h 5.43457 v 2.20459 h -5.43457 v 11.02295 q 0,1.69189 0.80322,2.59766 0.80322,0.90576 2.20459,0.90576 z" />
      <path
         id="path1576"
         style="font-weight:300;font-family:OpenSans-Light, 'Open Sans'"
         d="m 870.68471,331 h -2.83692 v -18.73047 h 2.83692 z m -3.07617,-23.80615 q 0,-0.97412 0.47851,-1.41846 0.47852,-0.46143 1.19629,-0.46143 0.68359,0 1.1792,0.46143 0.49561,0.46143 0.49561,1.41846 0,0.95703 -0.49561,1.43554 -0.49561,0.46143 -1.1792,0.46143 -0.71777,0 -1.19629,-0.46143 -0.47851,-0.47851 -0.47851,-1.43554 z" />
      <path
         id="path1578"
         style="font-weight:300;font-family:OpenSans-Light, 'Open Sans'"
         d="m 884.24902,331.3418 q -4.06738,0 -6.30615,-2.49512 -2.22168,-2.51221 -2.22168,-7.09229 0,-4.6997 2.25586,-7.26318 2.27295,-2.56348 6.45996,-2.56348 1.3501,0 2.7002,0.29053 1.35009,0.29053 2.11914,0.6836 l -0.87158,2.40966 q -0.93995,-0.37597 -2.05079,-0.61523 -1.11084,-0.25635 -1.96533,-0.25635 -5.70801,0 -5.70801,7.28027 0,3.45215 1.38428,5.29786 1.40137,1.8457 4.13574,1.8457 2.34131,0 4.80225,-1.0083 v 2.51221 q -1.87988,0.97412 -4.73389,0.97412 z" />
      <path
         id="path1580"
         style="font-weight:300;font-family:OpenSans-Light, 'Open Sans'"
         d="m 905.55505,325.89014 q 0,2.61474 -1.94824,4.0332 -1.94824,1.41846 -5.46875,1.41846 -3.72558,0 -5.81055,-1.1792 v -2.63184 q 1.3501,0.6836 2.88819,1.07666 1.55517,0.39307 2.99072,0.39307 2.22168,0 3.41797,-0.70069 1.19629,-0.71777 1.19629,-2.17041 0,-1.09375 -0.95703,-1.86279 -0.93994,-0.78613 -3.69141,-1.8457 -2.61474,-0.97412 -3.72558,-1.6919 -1.09375,-0.73486 -1.64063,-1.65771 -0.52978,-0.92285 -0.52978,-2.20459 0,-2.29004 1.86279,-3.60596 1.86279,-1.33301 5.10986,-1.33301 3.0249,0 5.91309,1.23047 l -1.0083,2.30713 q -2.81983,-1.16211 -5.10987,-1.16211 -2.0166,0 -3.04199,0.63233 -1.02539,0.63232 -1.02539,1.74316 0,0.75195 0.37598,1.28174 0.39306,0.52978 1.24756,1.0083 0.85449,0.47852 3.28125,1.38428 3.33252,1.21338 4.49462,2.44384 1.1792,1.23047 1.1792,3.09327 z" />
      <path
         id="path1582"
         style="font-weight:300;font-family:OpenSans-Light, 'Open Sans'"
         d="m 909.77124,329.18848 q 0,-1.14502 0.5127,-1.72608 0.52978,-0.59814 1.5039,-0.59814 0.99121,0 1.53809,0.59814 0.56396,0.58106 0.56396,1.72608 0,1.11084 -0.56396,1.70898 -0.56397,0.59815 -1.53809,0.59815 -0.87158,0 -1.45263,-0.52979 -0.56397,-0.54687 -0.56397,-1.77734 z" />
      <path
         id="path1584"
         style="font-weight:300;font-family:OpenSans-Light, 'Open Sans'"
         d="m 935.67441,321.61768 q 0,4.58007 -2.30713,7.16064 -2.30713,2.56348 -6.37451,2.56348 -2.51221,0 -4.46045,-1.1792 -1.94824,-1.1792 -3.00781,-3.38379 -1.05957,-2.20459 -1.05957,-5.16113 0,-4.58008 2.29003,-7.12647 2.29004,-2.56348 6.35743,-2.56348 3.93066,0 6.23779,2.61475 2.32422,2.61475 2.32422,7.0752 z m -14.27002,0 q 0,3.58886 1.43555,5.46875 1.43554,1.87988 4.22119,1.87988 2.78564,0 4.22119,-1.86279 1.45263,-1.87989 1.45263,-5.48584 0,-3.57178 -1.45263,-5.41748 -1.43555,-1.8628 -4.25537,-1.8628 -2.78565,0 -4.2041,1.82862 -1.41846,1.82861 -1.41846,5.45166 z" />
      <path
         id="path1586"
         style="font-weight:300;font-family:OpenSans-Light, 'Open Sans'"
         d="m 949.20456,311.92773 q 1.24756,0 2.23877,0.20508 l -0.39307,2.63184 q -1.16211,-0.25635 -2.05078,-0.25635 -2.27295,0 -3.89648,1.8457 -1.60645,1.84571 -1.60645,4.59717 V 331 h -2.83691 v -18.73047 h 2.34131 l 0.3247,3.46924 h 0.13672 q 1.04248,-1.82861 2.51221,-2.81982 1.46973,-0.99122 3.22998,-0.99122 z" />
      <path
         id="path1588"
         style="font-weight:300;font-family:OpenSans-Light, 'Open Sans'"
         d="m 970.30551,312.26953 v 1.79443 l -3.46924,0.41016 q 0.47852,0.59815 0.8545,1.57227 0.37597,0.95703 0.37597,2.17041 0,2.75146 -1.87988,4.39209 -1.87988,1.64062 -5.16113,1.64062 -0.83741,0 -1.57227,-0.13672 -1.81152,0.95703 -1.81152,2.40967 0,0.76904 0.63232,1.14502 0.63233,0.35889 2.17041,0.35889 h 3.31543 q 3.04199,0 4.66553,1.28174 1.64062,1.28173 1.64062,3.72558 0,3.11035 -2.49511,4.73389 -2.49512,1.64062 -7.28028,1.64062 -3.67431,0 -5.67383,-1.36718 -1.98242,-1.36719 -1.98242,-3.86231 0,-1.70898 1.09375,-2.95654 1.09375,-1.24756 3.07617,-1.6919 -0.71777,-0.3247 -1.21337,-1.0083 -0.47852,-0.68359 -0.47852,-1.58935 0,-1.02539 0.54688,-1.79444 0.54687,-0.76904 1.72607,-1.48681 -1.45264,-0.59815 -2.37549,-2.03369 -0.90576,-1.43555 -0.90576,-3.28125 0,-3.07618 1.8457,-4.73389 1.84571,-1.67481 5.22949,-1.67481 1.46973,0 2.64893,0.3418 z m -14.93652,21.875 q 0,1.521 1.28174,2.30713 1.28173,0.78613 3.67431,0.78613 3.57178,0 5.28076,-1.07666 1.72608,-1.05957 1.72608,-2.88818 0,-1.521 -0.93994,-2.11914 -0.93994,-0.58106 -3.5376,-0.58106 h -3.40088 q -1.93115,0 -3.00781,0.92286 -1.07666,0.92285 -1.07666,2.64892 z m 1.53808,-15.87646 q 0,1.96533 1.11084,2.97363 1.11084,1.0083 3.09327,1.0083 4.15283,0 4.15283,-4.0332 0,-4.22119 -4.2041,-4.22119 -1.99952,0 -3.07618,1.07666 -1.07666,1.07666 -1.07666,3.1958 z" />
      <path
         id="path1590"
         d="m 492.69427,395.25342 q -4.11865,0 -6.51123,2.75146 -2.37548,2.73438 -2.37548,7.50244 0,4.90479 2.29004,7.58789 2.30712,2.66602 6.5625,2.66602 2.61474,0 5.96435,-0.93994 v 2.54639 q -2.59766,0.97412 -6.40869,0.97412 -5.52002,0 -8.52783,-3.34961 -2.99073,-3.34961 -2.99073,-9.51905 0,-3.8623 1.43555,-6.76757 1.45264,-2.90528 4.16992,-4.47754 2.73438,-1.57227 6.42578,-1.57227 3.93067,0 6.87012,1.43555 l -1.23047,2.49512 q -2.83691,-1.33301 -5.67383,-1.33301 z" />
      <path
         id="path1592"
         d="m 519.84502,408.61768 q 0,4.58007 -2.30712,7.16064 -2.30713,2.56348 -6.37452,2.56348 -2.5122,0 -4.46045,-1.1792 -1.94824,-1.1792 -3.00781,-3.38379 -1.05957,-2.20459 -1.05957,-5.16113 0,-4.58008 2.29004,-7.12647 2.29004,-2.56348 6.35742,-2.56348 3.93067,0 6.2378,2.61475 2.32421,2.61475 2.32421,7.0752 z m -14.27002,0 q 0,3.58886 1.43555,5.46875 1.43555,1.87988 4.22119,1.87988 2.78565,0 4.22119,-1.86279 1.45264,-1.87989 1.45264,-5.48584 0,-3.57178 -1.45264,-5.41748 -1.43554,-1.8628 -4.25537,-1.8628 -2.78564,0 -4.2041,1.82862 -1.41846,1.82861 -1.41846,5.45166 z" />
      <path
         id="path1594"
         d="m 533.37517,398.92773 q 1.24756,0 2.23877,0.20508 l -0.39307,2.63184 q -1.16211,-0.25635 -2.05078,-0.25635 -2.27295,0 -3.89648,1.8457 -1.60645,1.84571 -1.60645,4.59717 V 418 h -2.83691 v -18.73047 h 2.3413 l 0.32471,3.46924 h 0.13672 q 1.04248,-1.82861 2.51221,-2.81982 1.46972,-0.99122 3.22998,-0.99122 z" />
      <path
         id="path1596"
         d="m 547.05912,418.3418 q -4.15283,0 -6.5625,-2.5293 -2.39258,-2.5293 -2.39258,-7.02393 0,-4.5288 2.22168,-7.19482 2.23877,-2.66602 5.99854,-2.66602 3.5205,0 5.57129,2.32422 2.05078,2.30713 2.05078,6.10108 v 1.79443 H 541.0435 q 0.0854,3.29834 1.65771,5.00733 1.58936,1.70898 4.46045,1.70898 3.0249,0 5.98144,-1.26465 v 2.5293 q -1.5039,0.64941 -2.854,0.92285 -1.33301,0.29053 -3.22998,0.29053 z m -0.76904,-17.03858 q -2.25586,0 -3.60596,1.46973 -1.33301,1.46973 -1.57227,4.06738 h 9.79249 q 0,-2.6831 -1.19629,-4.10156 -1.19629,-1.43555 -3.41797,-1.43555 z" />
      <path
         id="path1598"
         d="m 564.84464,416.00049 q 0.75195,0 1.45263,-0.10254 0.70069,-0.11963 1.11084,-0.23926 v 2.17041 q -0.46142,0.22217 -1.36719,0.35889 -0.88867,0.15381 -1.60644,0.15381 -5.43457,0 -5.43457,-5.7251 v -11.14258 h -2.68311 v -1.36719 l 2.68311,-1.1792 1.19629,-3.99902 h 1.64062 v 4.34082 h 5.43457 v 2.20459 h -5.43457 v 11.02295 q 0,1.69189 0.80323,2.59766 0.80322,0.90576 2.20459,0.90576 z" />
      <path
         id="path1600"
         d="m 579.10964,418.3418 q -4.15283,0 -6.5625,-2.5293 -2.39258,-2.5293 -2.39258,-7.02393 0,-4.5288 2.22168,-7.19482 2.23877,-2.66602 5.99854,-2.66602 3.52051,0 5.57129,2.32422 2.05078,2.30713 2.05078,6.10108 v 1.79443 h -12.90283 q 0.0855,3.29834 1.65771,5.00733 1.58936,1.70898 4.46045,1.70898 3.0249,0 5.98145,-1.26465 v 2.5293 q -1.50391,0.64941 -2.85401,0.92285 -1.33301,0.29053 -3.22998,0.29053 z m -0.76904,-17.03858 q -2.25586,0 -3.60596,1.46973 -1.33301,1.46973 -1.57226,4.06738 h 9.79248 q 0,-2.6831 -1.19629,-4.10156 -1.19629,-1.43555 -3.41797,-1.43555 z" />
      <path
         id="path1602"
         d="m 602.36391,418 -0.56397,-2.66602 h -0.13672 q -1.40136,1.76026 -2.80273,2.39258 -1.38428,0.61524 -3.46924,0.61524 -2.78564,0 -4.375,-1.43555 -1.57227,-1.43555 -1.57227,-4.08447 0,-5.67383 9.07471,-5.94727 l 3.17871,-0.10254 v -1.16211 q 0,-2.20459 -0.95703,-3.24707 -0.93994,-1.05957 -3.0249,-1.05957 -2.34131,0 -5.29785,1.43555 l -0.87158,-2.17041 q 1.38427,-0.75195 3.0249,-1.1792 1.65771,-0.42725 3.31543,-0.42725 3.34961,0 4.95605,1.48682 1.62354,1.48682 1.62354,4.76807 V 418 Z m -6.40869,-1.99951 q 2.64892,0 4.15283,-1.45264 1.52099,-1.45264 1.52099,-4.06738 v -1.6919 l -2.83691,0.11963 q -3.38379,0.11963 -4.8877,1.05957 -1.48681,0.92285 -1.48681,2.88819 0,1.53808 0.92285,2.34131 0.93994,0.80322 2.61475,0.80322 z" />
      <path
         id="path1604"
         d="m 634.23145,418 v -12.18506 q 0,-2.23877 -0.95704,-3.34961 -0.95703,-1.12793 -2.97363,-1.12793 -2.64892,0 -3.91357,1.521 -1.26465,1.52099 -1.26465,4.68262 V 418 h -2.83692 v -12.18506 q 0,-2.23877 -0.95703,-3.34961 -0.95703,-1.12793 -2.99072,-1.12793 -2.66602,0 -3.91357,1.60645 -1.23047,1.58935 -1.23047,5.22949 V 418 h -2.83692 v -18.73047 h 2.30713 l 0.46143,2.56348 h 0.13672 q 0.80322,-1.36719 2.25586,-2.13623 1.46972,-0.76905 3.28125,-0.76905 4.39209,0 5.74218,3.17872 h 0.13672 q 0.8374,-1.46973 2.42676,-2.32422 1.58936,-0.8545 3.62305,-0.8545 3.17871,0 4.75097,1.64063 1.58936,1.62353 1.58936,5.2124 V 418 Z" />
      <path
         id="path1606"
         style="font-weight:300;font-family:OpenSans-Light, 'Open Sans'"
         d="m 668.64539,405.5415 q 0,2.42676 -0.75196,4.44336 -0.75195,2.0166 -2.11914,3.12744 -1.36719,1.11084 -3.14453,1.11084 -1.46973,0 -2.47803,-0.88867 -1.0083,-0.88867 -1.19629,-2.27295 h -0.13671 q -0.6836,1.48682 -1.96534,2.32422 -1.26464,0.8374 -3.00781,0.8374 -2.56348,0 -4.01611,-1.74316 -1.43555,-1.76025 -1.43555,-4.76807 0,-3.48632 2.0166,-5.65673 2.0166,-2.1875 5.29785,-2.1875 1.16211,0 2.63184,0.22216 1.46973,0.20508 2.64893,0.58106 l -0.42725,8.03222 v 0.37598 q 0,3.04199 2.27295,3.04199 1.55517,0 2.5293,-1.82861 0.97412,-1.8457 0.97412,-4.78516 0,-3.09326 -1.26465,-5.41748 -1.26465,-2.32422 -3.60596,-3.57177 -2.32422,-1.26465 -5.34912,-1.26465 -3.81103,0 -6.63086,1.58935 -2.81982,1.57227 -4.30664,4.51172 -1.48682,2.92237 -1.48682,6.76758 0,5.2124 2.75147,8.01514 2.75146,2.80273 7.92969,2.80273 3.58886,0 7.45117,-1.46973 v 2.27295 q -3.28125,1.43555 -7.45117,1.43555 -6.20362,0 -9.63868,-3.40088 -3.41796,-3.41797 -3.41796,-9.53613 0,-4.44336 1.82861,-7.9126 1.82861,-3.46924 5.2124,-5.36621 3.38379,-1.91406 7.75879,-1.91406 3.67432,0 6.52832,1.55517 2.87109,1.53809 4.42627,4.39209 1.57227,2.83692 1.57227,6.54541 z m -17.6709,2.23877 q 0,4.34082 3.33252,4.34082 3.53759,0 3.84521,-5.34912 l 0.23926,-4.46045 q -1.23047,-0.34179 -2.68311,-0.34179 -2.22168,0 -3.48632,1.53808 -1.24756,1.53809 -1.24756,4.27246 z" />
      <path
         id="path1608"
         style="font-weight:300;font-family:OpenSans-Light, 'Open Sans'"
         d="m 685.81567,412.89014 q 0,2.61474 -1.94825,4.0332 -1.94824,1.41846 -5.46875,1.41846 -3.72558,0 -5.81054,-1.1792 v -2.63184 q 1.35009,0.6836 2.88818,1.07666 1.55518,0.39307 2.99072,0.39307 2.22168,0 3.41797,-0.70069 1.19629,-0.71777 1.19629,-2.17041 0,-1.09375 -0.95703,-1.86279 -0.93994,-0.78613 -3.69141,-1.8457 -2.61474,-0.97412 -3.72558,-1.6919 -1.09375,-0.73486 -1.64063,-1.65771 -0.52978,-0.92285 -0.52978,-2.20459 0,-2.29004 1.86279,-3.60596 1.86279,-1.33301 5.10986,-1.33301 3.02491,0 5.91309,1.23047 l -1.0083,2.30713 q -2.81983,-1.16211 -5.10986,-1.16211 -2.01661,0 -3.042,0.63233 -1.02539,0.63232 -1.02539,1.74316 0,0.75195 0.37598,1.28174 0.39307,0.52978 1.24756,1.0083 0.85449,0.47852 3.28125,1.38428 3.33252,1.21338 4.49463,2.44384 1.1792,1.23047 1.1792,3.09327 z" />
      <path
         id="path1610"
         style="font-weight:300;font-family:OpenSans-Light, 'Open Sans'"
         d="m 696.49181,416.00049 q 0.75195,0 1.45263,-0.10254 0.70069,-0.11963 1.11084,-0.23926 v 2.17041 q -0.46142,0.22217 -1.36718,0.35889 -0.88868,0.15381 -1.60645,0.15381 -5.43457,0 -5.43457,-5.7251 v -11.14258 h -2.68311 v -1.36719 l 2.68311,-1.1792 1.19629,-3.99902 h 1.64062 v 4.34082 h 5.43457 v 2.20459 h -5.43457 v 11.02295 q 0,1.69189 0.80323,2.59766 0.80322,0.90576 2.20459,0.90576 z" />
      <path
         id="path1612"
         style="font-weight:300;font-family:OpenSans-Light, 'Open Sans'"
         d="m 705.51023,399.26953 v 12.15088 q 0,2.29004 1.04248,3.41797 1.04248,1.12793 3.26416,1.12793 2.93945,0 4.28955,-1.60645 1.36719,-1.60644 1.36719,-5.24658 v -9.84375 h 2.83691 V 418 h -2.3413 l -0.41016,-2.51221 h -0.15381 q -0.87158,1.38428 -2.42676,2.11914 -1.53808,0.73487 -3.52051,0.73487 -3.41796,0 -5.12695,-1.62354 -1.69189,-1.62353 -1.69189,-5.19531 v -12.25342 z" />
      <path
         id="path1614"
         style="font-weight:300;font-family:OpenSans-Light, 'Open Sans'"
         d="m 737.08725,415.48779 h -0.15381 q -1.96533,2.85401 -5.87891,2.85401 -3.67431,0 -5.72509,-2.51221 -2.03369,-2.51221 -2.03369,-7.14355 0,-4.63135 2.05078,-7.19483 2.05078,-2.56348 5.708,-2.56348 3.81104,0 5.84473,2.76856 h 0.22217 l -0.11963,-1.3501 -0.0684,-1.31592 v -7.62207 h 2.83692 V 418 h -2.30713 z m -5.67383,0.47852 q 2.90528,0 4.2041,-1.57227 1.31592,-1.58935 1.31592,-5.10986 v -0.59814 q 0,-3.98194 -1.33301,-5.67383 -1.31591,-1.70899 -4.22119,-1.70899 -2.49512,0 -3.82812,1.94824 -1.31592,1.93116 -1.31592,5.46875 0,3.58887 1.31592,5.41749 1.31591,1.82861 3.8623,1.82861 z" />
      <path
         id="path1616"
         style="font-weight:300;font-family:OpenSans-Light, 'Open Sans'"
         d="m 753.74483,418.3418 q -4.15283,0 -6.5625,-2.5293 -2.39257,-2.5293 -2.39257,-7.02393 0,-4.5288 2.22168,-7.19482 2.23877,-2.66602 5.99853,-2.66602 3.52051,0 5.57129,2.32422 2.05078,2.30713 2.05078,6.10108 v 1.79443 h -12.90283 q 0.0855,3.29834 1.65771,5.00733 1.58936,1.70898 4.46045,1.70898 3.02491,0 5.98145,-1.26465 v 2.5293 q -1.50391,0.64941 -2.854,0.92285 -1.33301,0.29053 -3.22999,0.29053 z m -0.76904,-17.03858 q -2.25586,0 -3.60596,1.46973 -1.333,1.46973 -1.57226,4.06738 h 9.79248 q 0,-2.6831 -1.19629,-4.10156 -1.19629,-1.43555 -3.41797,-1.43555 z" />
      <path
         id="path1618"
         style="font-weight:300;font-family:OpenSans-Light, 'Open Sans'"
         d="m 778.29793,418 v -12.1167 q 0,-2.29004 -1.04248,-3.41797 -1.04248,-1.12793 -3.26416,-1.12793 -2.93946,0 -4.30664,1.58936 -1.36719,1.58935 -1.36719,5.24658 V 418 h -2.83691 v -18.73047 h 2.30712 l 0.46143,2.56348 h 0.13672 q 0.87158,-1.38428 2.44385,-2.13623 1.57226,-0.76905 3.50341,-0.76905 3.38379,0 5.09278,1.64063 1.70898,1.62353 1.70898,5.2124 V 418 Z" />
      <path
         id="path1620"
         style="font-weight:300;font-family:OpenSans-Light, 'Open Sans'"
         d="m 793.02435,416.00049 q 0.75196,0 1.45264,-0.10254 0.70068,-0.11963 1.11084,-0.23926 v 2.17041 q -0.46143,0.22217 -1.36719,0.35889 -0.88867,0.15381 -1.60644,0.15381 -5.43457,0 -5.43457,-5.7251 v -11.14258 h -2.68311 v -1.36719 l 2.68311,-1.1792 1.19629,-3.99902 h 1.64062 v 4.34082 h 5.43457 v 2.20459 h -5.43457 v 11.02295 q 0,1.69189 0.80322,2.59766 0.80323,0.90576 2.20459,0.90576 z" />
      <path
         id="path1622"
         style="font-weight:300;font-family:OpenSans-Light, 'Open Sans'"
         d="m 807.92169,398.92773 q 1.24756,0 2.23877,0.20508 l -0.39306,2.63184 q -1.16211,-0.25635 -2.05079,-0.25635 -2.27295,0 -3.89648,1.8457 -1.60645,1.84571 -1.60645,4.59717 V 418 h -2.83691 v -18.73047 h 2.34131 l 0.32471,3.46924 h 0.13671 q 1.04248,-1.82861 2.51221,-2.81982 1.46973,-0.99122 3.22998,-0.99122 z" />
      <path
         id="path1624"
         style="font-weight:300;font-family:OpenSans-Light, 'Open Sans'"
         d="m 829.86003,408.61768 q 0,4.58007 -2.30713,7.16064 -2.30713,2.56348 -6.37451,2.56348 -2.51221,0 -4.46045,-1.1792 -1.94824,-1.1792 -3.00781,-3.38379 -1.05957,-2.20459 -1.05957,-5.16113 0,-4.58008 2.29004,-7.12647 2.29004,-2.56348 6.35742,-2.56348 3.93066,0 6.23779,2.61475 2.32422,2.61475 2.32422,7.0752 z m -14.27002,0 q 0,3.58886 1.43555,5.46875 1.43555,1.87988 4.22119,1.87988 2.78564,0 4.22119,-1.86279 1.45264,-1.87989 1.45264,-5.48584 0,-3.57178 -1.45264,-5.41748 -1.43555,-1.8628 -4.25537,-1.8628 -2.78564,0 -4.2041,1.82862 -1.41846,1.82861 -1.41846,5.45166 z" />
      <path
         id="path1626"
         style="font-weight:300;font-family:OpenSans-Light, 'Open Sans'"
         d="m 843.56108,398.96191 q 3.69141,0 5.7251,2.5293 2.05078,2.51221 2.05078,7.12647 0,4.61425 -2.06787,7.17773 -2.05078,2.54639 -5.70801,2.54639 -1.82861,0 -3.34961,-0.66651 -1.5039,-0.68359 -2.5293,-2.08496 H 837.4771 L 836.87895,418 h -2.03369 v -26.5918 h 2.83691 v 6.45996 q 0,2.17041 -0.13671,3.89649 h 0.13671 q 1.98243,-2.80274 5.87891,-2.80274 z m -0.41016,2.37549 q -2.90527,0 -4.18701,1.67481 -1.28174,1.65771 -1.28174,5.60547 0,3.94775 1.31592,5.65673 1.31592,1.6919 4.22119,1.6919 2.61475,0 3.89649,-1.89697 1.28174,-1.91407 1.28174,-5.48584 0,-3.65723 -1.28174,-5.45166 -1.28174,-1.79444 -3.96485,-1.79444 z" />
      <path
         id="path1628"
         style="font-weight:300;font-family:OpenSans-Light, 'Open Sans'"
         d="m 872.50626,408.61768 q 0,4.58007 -2.30713,7.16064 -2.30713,2.56348 -6.37451,2.56348 -2.51221,0 -4.46045,-1.1792 -1.94825,-1.1792 -3.00782,-3.38379 -1.05957,-2.20459 -1.05957,-5.16113 0,-4.58008 2.29004,-7.12647 2.29004,-2.56348 6.35742,-2.56348 3.93067,0 6.2378,2.61475 2.32422,2.61475 2.32422,7.0752 z m -14.27002,0 q 0,3.58886 1.43554,5.46875 1.43555,1.87988 4.22119,1.87988 2.78565,0 4.2212,-1.86279 1.45263,-1.87989 1.45263,-5.48584 0,-3.57178 -1.45263,-5.41748 -1.43555,-1.8628 -4.25537,-1.8628 -2.78565,0 -4.20411,1.82862 -1.41845,1.82861 -1.41845,5.45166 z" />
      <path
         id="path1630"
         style="font-weight:300;font-family:OpenSans-Light, 'Open Sans'"
         d="m 883.54129,416.00049 q 0.75195,0 1.45264,-0.10254 0.70068,-0.11963 1.11084,-0.23926 v 2.17041 q -0.46143,0.22217 -1.36719,0.35889 -0.88867,0.15381 -1.60645,0.15381 -5.43457,0 -5.43457,-5.7251 v -11.14258 h -2.6831 v -1.36719 l 2.6831,-1.1792 1.19629,-3.99902 h 1.64063 v 4.34082 h 5.43457 v 2.20459 h -5.43457 v 11.02295 q 0,1.69189 0.80322,2.59766 0.80322,0.90576 2.20459,0.90576 z" />
      <path
         id="path1632"
         style="font-weight:300;font-family:OpenSans-Light, 'Open Sans'"
         d="m 892.73061,418 h -2.83692 v -18.73047 h 2.83692 z m -3.07618,-23.80615 q 0,-0.97412 0.47852,-1.41846 0.47852,-0.46143 1.19629,-0.46143 0.68359,0 1.1792,0.46143 0.4956,0.46143 0.4956,1.41846 0,0.95703 -0.4956,1.43554 -0.49561,0.46143 -1.1792,0.46143 -0.71777,0 -1.19629,-0.46143 -0.47852,-0.47851 -0.47852,-1.43554 z" />
      <path
         id="path1634"
         style="font-weight:300;font-family:OpenSans-Light, 'Open Sans'"
         d="m 906.29492,418.3418 q -4.06738,0 -6.30615,-2.49512 -2.22168,-2.51221 -2.22168,-7.09229 0,-4.6997 2.25586,-7.26318 2.27295,-2.56348 6.45996,-2.56348 1.3501,0 2.7002,0.29053 1.35009,0.29053 2.11914,0.6836 l -0.87159,2.40966 q -0.93994,-0.37597 -2.05078,-0.61523 -1.11084,-0.25635 -1.96533,-0.25635 -5.70801,0 -5.70801,7.28027 0,3.45215 1.38428,5.29786 1.40137,1.8457 4.13574,1.8457 2.34131,0 4.80225,-1.0083 v 2.51221 q -1.87988,0.97412 -4.73389,0.97412 z" />
      <path
         id="path1636"
         style="font-weight:300;font-family:OpenSans-Light, 'Open Sans'"
         d="m 927.60095,412.89014 q 0,2.61474 -1.94824,4.0332 -1.94824,1.41846 -5.46875,1.41846 -3.72559,0 -5.81055,-1.1792 v -2.63184 q 1.3501,0.6836 2.88819,1.07666 1.55517,0.39307 2.99072,0.39307 2.22168,0 3.41797,-0.70069 1.19629,-0.71777 1.19629,-2.17041 0,-1.09375 -0.95703,-1.86279 -0.93995,-0.78613 -3.69141,-1.8457 -2.61475,-0.97412 -3.72559,-1.6919 -1.09375,-0.73486 -1.64062,-1.65771 -0.52979,-0.92285 -0.52979,-2.20459 0,-2.29004 1.8628,-3.60596 1.86279,-1.33301 5.10986,-1.33301 3.0249,0 5.91309,1.23047 l -1.00831,2.30713 q -2.81982,-1.16211 -5.10986,-1.16211 -2.0166,0 -3.04199,0.63233 -1.02539,0.63232 -1.02539,1.74316 0,0.75195 0.37598,1.28174 0.39306,0.52978 1.24755,1.0083 0.8545,0.47852 3.28125,1.38428 3.33252,1.21338 4.49463,2.44384 1.1792,1.23047 1.1792,3.09327 z" />
      <path
         id="path1638"
         style="font-weight:300;font-family:OpenSans-Light, 'Open Sans'"
         d="m 931.81714,416.18848 q 0,-1.14502 0.51269,-1.72608 0.52979,-0.59814 1.50391,-0.59814 0.99121,0 1.53809,0.59814 0.56396,0.58106 0.56396,1.72608 0,1.11084 -0.56396,1.70898 -0.56397,0.59815 -1.53809,0.59815 -0.87158,0 -1.45264,-0.52979 -0.56396,-0.54687 -0.56396,-1.77734 z" />
      <path
         id="path1640"
         style="font-weight:300;font-family:OpenSans-Light, 'Open Sans'"
         d="m 957.72031,408.61768 q 0,4.58007 -2.30713,7.16064 -2.30713,2.56348 -6.37451,2.56348 -2.51221,0 -4.46045,-1.1792 -1.94825,-1.1792 -3.00782,-3.38379 -1.05957,-2.20459 -1.05957,-5.16113 0,-4.58008 2.29004,-7.12647 2.29004,-2.56348 6.35742,-2.56348 3.93067,0 6.2378,2.61475 2.32422,2.61475 2.32422,7.0752 z m -14.27002,0 q 0,3.58886 1.43554,5.46875 1.43555,1.87988 4.2212,1.87988 2.78564,0 4.22119,-1.86279 1.45263,-1.87989 1.45263,-5.48584 0,-3.57178 -1.45263,-5.41748 -1.43555,-1.8628 -4.25537,-1.8628 -2.78565,0 -4.20411,1.82862 -1.41845,1.82861 -1.41845,5.45166 z" />
      <path
         id="path1642"
         style="font-weight:300;font-family:OpenSans-Light, 'Open Sans'"
         d="m 971.25046,398.92773 q 1.24756,0 2.23877,0.20508 l -0.39307,2.63184 q -1.16211,-0.25635 -2.05078,-0.25635 -2.27295,0 -3.89648,1.8457 -1.60645,1.84571 -1.60645,4.59717 V 418 h -2.83691 v -18.73047 h 2.3413 l 0.32471,3.46924 h 0.13672 q 1.04248,-1.82861 2.51221,-2.81982 1.46972,-0.99122 3.22998,-0.99122 z" />
      <path
         id="path1644"
         style="font-weight:300;font-family:OpenSans-Light, 'Open Sans'"
         d="m 992.35141,399.26953 v 1.79443 l -3.46924,0.41016 q 0.47852,0.59815 0.85449,1.57227 0.37598,0.95703 0.37598,2.17041 0,2.75146 -1.87988,4.39209 -1.87989,1.64062 -5.16114,1.64062 -0.8374,0 -1.57226,-0.13672 -1.81152,0.95703 -1.81152,2.40967 0,0.76904 0.63232,1.14502 0.63232,0.35889 2.17041,0.35889 h 3.31543 q 3.04199,0 4.66553,1.28174 1.64062,1.28173 1.64062,3.72558 0,3.11035 -2.49512,4.73389 -2.49511,1.64062 -7.28027,1.64062 -3.67431,0 -5.67383,-1.36718 -1.98242,-1.36719 -1.98242,-3.86231 0,-1.70898 1.09375,-2.95654 1.09375,-1.24756 3.07617,-1.6919 -0.71777,-0.3247 -1.21338,-1.0083 -0.47851,-0.68359 -0.47851,-1.58935 0,-1.02539 0.54687,-1.79444 0.54688,-0.76904 1.72608,-1.48681 -1.45264,-0.59815 -2.37549,-2.03369 -0.90576,-1.43555 -0.90576,-3.28125 0,-3.07618 1.8457,-4.73389 1.8457,-1.67481 5.22949,-1.67481 1.46973,0 2.64893,0.3418 z m -14.93652,21.875 q 0,1.521 1.28173,2.30713 1.28174,0.78613 3.67432,0.78613 3.57178,0 5.28076,-1.07666 1.72608,-1.05957 1.72608,-2.88818 0,-1.521 -0.93994,-2.11914 -0.93995,-0.58106 -3.5376,-0.58106 h -3.40088 q -1.93115,0 -3.00781,0.92286 -1.07666,0.92285 -1.07666,2.64892 z m 1.53808,-15.87646 q 0,1.96533 1.11084,2.97363 1.11084,1.0083 3.09326,1.0083 4.15284,0 4.15284,-4.0332 0,-4.22119 -4.20411,-4.22119 -1.99951,0 -3.07617,1.07666 -1.07666,1.07666 -1.07666,3.1958 z" />
    </g>
  </g>
</svg>
