<?xml version="1.0" encoding="UTF-8" standalone="no"?>
<svg
   xmlns:dc="http://purl.org/dc/elements/1.1/"
   xmlns:cc="http://creativecommons.org/ns#"
   xmlns:rdf="http://www.w3.org/1999/02/22-rdf-syntax-ns#"
   xmlns:svg="http://www.w3.org/2000/svg"
   xmlns="http://www.w3.org/2000/svg"
   xmlns:sodipodi="http://sodipodi.sourceforge.net/DTD/sodipodi-0.dtd"
   xmlns:inkscape="http://www.inkscape.org/namespaces/inkscape"
   width="85mm"
   height="55mm"
   viewBox="0 0 321.25985 207.87401"
   version="1.1"
   id="svg925"
   sodipodi:docname="Business Card-Back.svg"
   inkscape:version="0.92.3 (2405546, 2018-03-11)"
   inkscape:export-filename="C:\Users\Tyler\Documents\srobo\Promotional-material\business-cards\Business Card-Back.png"
   inkscape:export-xdpi="600"
   inkscape:export-ydpi="600">
  <metadata
     id="metadata931">
    <rdf:RDF>
      <cc:Work
         rdf:about="">
        <dc:format>image/svg+xml</dc:format>
        <dc:type
           rdf:resource="http://purl.org/dc/dcmitype/StillImage" />
        <dc:title>Business Card - Back - Version B</dc:title>
      </cc:Work>
    </rdf:RDF>
  </metadata>
  <defs
     id="defs929" />
  <sodipodi:namedview
     pagecolor="#ffffff"
     bordercolor="#666666"
     borderopacity="1"
     objecttolerance="10"
     gridtolerance="10"
     guidetolerance="10"
     inkscape:pageopacity="0"
     inkscape:pageshadow="2"
     inkscape:window-width="1600"
     inkscape:window-height="837"
     id="namedview927"
     showgrid="true"
     units="mm"
     inkscape:zoom="2.116129"
     inkscape:cx="183.84731"
     inkscape:cy="125.07382"
     inkscape:window-x="-8"
     inkscape:window-y="-8"
     inkscape:window-maximized="1"
     inkscape:current-layer="svg925">
    <inkscape:grid
       type="xygrid"
       id="grid1484"
       units="mm"
       spacingx="3.7795275"
       spacingy="3.7795275" />
  </sodipodi:namedview>
  <!-- Generator: Sketch 53.2 (72643) - https://sketchapp.com -->
  <title
     id="title909">Business Card - Back - Version B</title>
  <desc
     id="desc911">Created with Sketch.</desc>
  <rect
     style="fill:#ffffff;fill-rule:evenodd;stroke:none;stroke-width:0.29557037"
     id="rect913"
     height="187.68718"
     width="320.69385"
     y="10.261035"
     x="0.69952363" />
  <rect
     style="fill:#3270ed;fill-rule:evenodd;stroke:none;stroke-width:0.29557037"
     height="230.55118"
     width="343.93701"
     y="-11.338587"
     x="-11.338582"
     id="Rectangle" />
  <g
     style="fill:#ffffff;fill-rule:nonzero;stroke:none;stroke-width:1"
     transform="matrix(0.29557037,0,0,0.29557037,14.295761,79.720071)"
     id="logo-text-white">
    <path
       inkscape:connector-curvature="0"
       id="STUDENT-ROBOTICS"
       d="m 215.51219,113.25 c -4.15611,0 -7.85039,-0.51874 -11.08292,-1.55625 -3.23254,-1.0375 -6.263,-2.79547 -9.09147,-5.27396 C 193.77926,105.03645 193,103.50904 193,101.8375 c 0,-1.3257 0.49065,-2.492877 1.47195,-3.501563 0.98131,-1.008685 2.16463,-1.51302 3.55,-1.51302 1.09675,0 2.07804,0.345829 2.9439,1.0375 2.30896,1.902092 4.56015,3.285413 6.75366,4.150003 2.19351,0.86458 4.79104,1.29687 7.79268,1.29687 3.23254,0 6.01768,-0.72048 8.35549,-2.16146 2.33782,-1.440976 3.50671,-3.227764 3.50671,-5.360413 0,-2.593763 -1.15446,-4.625514 -3.46341,-6.095313 -2.30896,-1.469799 -5.97437,-2.579337 -10.99635,-3.328646 -12.64152,-1.844453 -18.96219,-7.723561 -18.96219,-17.6375 0,-3.631268 0.95243,-6.786965 2.85732,-9.467187 1.90488,-2.680222 4.50242,-4.726382 7.79268,-6.138542 C 207.8927,51.706069 211.55811,51 215.59878,51 c 3.6366,0 7.05669,0.547564 10.26037,1.642708 3.20367,1.095145 5.87336,2.536102 8.00914,4.322917 1.67399,1.325701 2.51098,2.853116 2.51098,4.582292 0,1.325701 -0.49065,2.492877 -1.47195,3.501562 -0.98131,1.008686 -2.13577,1.513021 -3.46342,1.513021 -0.86586,0 -1.64512,-0.259372 -2.3378,-0.778125 -1.50082,-1.210423 -3.59328,-2.31996 -6.27744,-3.328646 -2.68416,-1.008685 -5.0941,-1.513021 -7.22988,-1.513021 -3.6366,0 -6.4506,0.677251 -8.44207,2.031771 -1.99148,1.354521 -2.9872,3.126899 -2.9872,5.317188 0,2.478484 1.02459,4.351729 3.07378,5.619791 2.0492,1.268062 5.26726,2.305552 9.65427,3.1125 4.96425,0.864588 8.93271,1.974126 11.90549,3.328646 2.97278,1.354521 5.20954,3.198947 6.71036,5.533333 1.50083,2.334387 2.25122,5.432447 2.25122,9.294271 0,3.631269 -1.02458,6.815782 -3.07378,9.553642 -2.04919,2.73787 -4.77661,4.84166 -8.18231,6.31146 -3.40571,1.4698 -7.07112,2.20469 -10.99635,2.20469 z m 69.2683,-61.385417 c 1.55854,0 2.82845,0.461107 3.80975,1.383334 0.98131,0.922227 1.47195,2.132631 1.47195,3.63125 0,1.498618 -0.49064,2.694613 -1.47195,3.588021 -0.9813,0.893407 -2.25121,1.340104 -3.80975,1.340104 h -13.59391 v 45.304168 c 0,1.49862 -0.54836,2.75225 -1.64512,3.76094 -1.09675,1.00868 -2.45324,1.51302 -4.06951,1.51302 -1.61627,0 -2.9439,-0.50434 -3.98293,-1.51302 -1.03903,-1.00869 -1.55853,-2.26232 -1.55853,-3.76094 V 61.807292 h -13.5939 c -1.55855,0 -2.82846,-0.461107 -3.80976,-1.383334 -0.98131,-0.922227 -1.47195,-2.132631 -1.47195,-3.63125 0,-1.440979 0.50507,-2.622564 1.51524,-3.544791 1.01017,-0.922227 2.26564,-1.383334 3.76647,-1.383334 z m 54.63536,-0.08646 c 1.50082,0 2.71301,0.489925 3.63659,1.469792 0.92358,0.979866 1.38537,2.247908 1.38537,3.804166 V 88.35 c 0,4.784052 -1.01016,9.020468 -3.03049,12.70938 -2.02034,3.6889 -4.84877,6.57082 -8.48537,8.64583 -3.6366,2.07501 -7.79266,3.1125 -12.46829,3.1125 -4.67563,0 -8.84612,-1.03749 -12.51159,-3.1125 -3.66546,-2.07501 -6.50832,-4.95693 -8.52866,-8.64583 -2.02033,-3.688912 -3.03048,-7.925328 -3.03048,-12.70938 V 57.052083 c 0,-1.498618 0.5195,-2.752252 1.55853,-3.760937 1.03903,-1.008686 2.36666,-1.513021 3.98293,-1.513021 1.38537,0 2.59756,0.504335 3.63659,1.513021 1.03902,1.008685 1.55853,2.262319 1.55853,3.760937 V 88.35 c 0,2.76668 0.60609,5.230718 1.8183,7.392187 1.2122,2.16147 2.84287,3.818571 4.89207,4.971353 2.04919,1.15279 4.2571,1.72917 6.62378,1.72917 2.48212,0 4.80548,-0.57638 6.97012,-1.72917 2.16464,-1.152782 3.89633,-2.809883 5.19512,-4.971353 1.29879,-2.161469 1.94817,-4.625507 1.94817,-7.392187 V 57.052083 c 0,-1.556258 0.43293,-2.8243 1.29878,-3.804166 0.86586,-0.979867 2.04918,-1.469792 3.55,-1.469792 z m 41.21464,0.08646 c 5.42604,0 10.08717,1.340091 13.98353,4.020313 3.89637,2.680222 6.8691,6.311435 8.9183,10.89375 2.0492,4.582314 3.07378,9.697715 3.07378,15.346354 0,5.648639 -1.02458,10.76404 -3.07378,15.346354 -2.0492,4.582316 -5.02193,8.213526 -8.9183,10.893746 -3.89636,2.68023 -8.55749,4.02032 -13.98353,4.02032 h -20.69391 c -1.50081,0 -2.75629,-0.50434 -3.76646,-1.51302 -1.01016,-1.00869 -1.51524,-2.26232 -1.51524,-3.76094 V 57.138542 c 0,-1.498619 0.50508,-2.752252 1.51524,-3.760938 1.01017,-1.008685 2.26565,-1.513021 3.76646,-1.513021 z m -0.86586,50.578127 c 5.19515,0 9.09145,-1.91647 11.68903,-5.749481 2.59757,-3.833005 3.89634,-8.689033 3.89634,-14.568229 0,-5.879196 -1.3132,-10.735224 -3.93963,-14.568229 -2.62644,-3.833006 -6.50831,-5.749479 -11.64574,-5.749479 h -14.28658 v 40.635418 z m 68.31586,0 c 1.50082,0 2.75629,0.50433 3.76646,1.51302 1.01017,1.00869 1.51524,2.17586 1.51524,3.50156 0,1.44098 -0.50507,2.62257 -1.51524,3.54479 -1.01017,0.92223 -2.26564,1.38334 -3.76646,1.38334 h -29.0061 c -1.50082,0 -2.7563,-0.50434 -3.76646,-1.51302 -1.01017,-1.00869 -1.51525,-2.26232 -1.51525,-3.76094 V 57.138542 c 0,-1.498619 0.50508,-2.752252 1.51525,-3.760938 1.01016,-1.008685 2.26564,-1.513021 3.76646,-1.513021 h 29.0061 c 1.50082,0 2.75629,0.475516 3.76646,1.426563 1.01017,0.951046 1.51524,2.17586 1.51524,3.674479 0,1.44098 -0.49064,2.608155 -1.47195,3.501563 -0.9813,0.893407 -2.25121,1.340104 -3.80975,1.340104 h -23.46464 v 14.697916 h 19.5683 c 1.50081,0 2.75629,0.475516 3.76646,1.426563 1.01017,0.951046 1.51524,2.17586 1.51524,3.674479 0,1.440979 -0.49064,2.608155 -1.47195,3.501562 -0.9813,0.893408 -2.25121,1.340105 -3.80975,1.340105 h -19.5683 v 15.994793 z m 58.44512,-50.578127 c 1.38537,0 2.51097,0.461107 3.37683,1.383334 0.86586,0.922227 1.29878,2.074993 1.29878,3.458333 v 50.40521 c 0,1.49862 -0.50508,2.75225 -1.51524,3.76094 -1.01017,1.00868 -2.26565,1.51302 -3.76647,1.51302 -0.80813,0 -1.60182,-0.12969 -2.3811,-0.38907 -0.77927,-0.25937 -1.34207,-0.61961 -1.68841,-1.08072 L 470.07317,70.626042 v 36.917708 c 0,1.38334 -0.44735,2.53611 -1.34207,3.45833 -0.89472,0.92223 -2.06361,1.38334 -3.50671,1.38334 -1.38537,0 -2.51097,-0.46111 -3.37683,-1.38334 -0.86586,-0.92222 -1.29878,-2.07499 -1.29878,-3.45833 V 57.138542 c 0,-1.498619 0.50508,-2.752252 1.51524,-3.760938 1.01017,-1.008685 2.26565,-1.513021 3.76647,-1.513021 0.86585,0 1.71727,0.172915 2.55427,0.51875 0.83699,0.345835 1.45751,0.806942 1.86158,1.383334 l 31.51707,40.116666 V 56.70625 c 0,-1.38334 0.44736,-2.536106 1.34208,-3.458333 0.89472,-0.922227 2.03475,-1.383334 3.42012,-1.383334 z m 54.72195,0 c 1.55854,0 2.82845,0.461107 3.80976,1.383334 0.9813,0.922227 1.47195,2.132631 1.47195,3.63125 0,1.498618 -0.49065,2.694613 -1.47195,3.588021 -0.98131,0.893407 -2.25122,1.340104 -3.80976,1.340104 h -13.5939 v 45.304168 c 0,1.49862 -0.54837,2.75225 -1.64512,3.76094 -1.09676,1.00868 -2.45325,1.51302 -4.06952,1.51302 -1.61626,0 -2.94389,-0.50434 -3.98292,-1.51302 -1.03903,-1.00869 -1.55854,-2.26232 -1.55854,-3.76094 V 61.807292 h -13.5939 c -1.55854,0 -2.82845,-0.461107 -3.80976,-1.383334 -0.9813,-0.922227 -1.47195,-2.132631 -1.47195,-3.63125 0,-1.440979 0.50508,-2.622564 1.51524,-3.544791 1.01017,-0.922227 2.26565,-1.383334 3.76647,-1.383334 z m 80.61098,52.047917 c 0.75041,0.46111 1.34207,1.06632 1.775,1.81563 0.43293,0.7493 0.64939,1.52742 0.64939,2.33437 0,1.0375 -0.34634,1.98854 -1.03903,2.85313 -0.86585,1.0375 -2.19348,1.55624 -3.98292,1.55624 -1.38538,0 -2.65528,-0.31701 -3.80976,-0.95104 -4.15612,-2.3632 -6.23415,-7.176 -6.23415,-14.438538 0,-2.075011 -0.67824,-3.717702 -2.03475,-4.928125 -1.35652,-1.210423 -3.30467,-1.815625 -5.84452,-1.815625 h -16.19146 v 16.772918 c 0,1.55626 -0.41849,2.8243 -1.25549,3.80417 -0.83699,0.97986 -1.94816,1.46979 -3.33353,1.46979 -1.674,0 -3.1315,-0.50434 -4.37256,-1.51302 -1.24107,-1.00869 -1.86159,-2.26232 -1.86159,-3.76094 V 57.138542 c 0,-1.498619 0.50508,-2.752252 1.51525,-3.760938 1.01016,-1.008685 2.26564,-1.513021 3.76646,-1.513021 h 24.93658 c 3.00164,0 5.83007,0.806937 8.48537,2.420834 2.6553,1.613897 4.77662,3.832972 6.36402,6.657291 1.58741,2.82432 2.3811,5.994427 2.3811,9.510417 0,2.881959 -0.77926,5.691827 -2.3378,8.429687 -1.55855,2.737861 -3.57885,4.913708 -6.06098,6.527605 3.6366,2.536123 5.62805,5.936784 5.97439,10.202083 0.17317,0.922227 0.25976,1.815621 0.25976,2.680208 0.23089,1.786812 0.46179,3.069272 0.69268,3.847392 0.23089,0.77813 0.7504,1.36893 1.55854,1.7724 z m -17.75,-22.479167 c 1.03903,0 2.04918,-0.489925 3.03048,-1.469791 0.98131,-0.979866 1.78943,-2.291138 2.42439,-3.933855 0.63497,-1.642716 0.95244,-3.415094 0.95244,-5.317187 0,-1.613897 -0.31747,-3.098084 -0.95244,-4.452604 -0.63496,-1.354521 -1.44308,-2.435239 -2.42439,-3.242188 -0.9813,-0.806948 -1.99145,-1.210416 -3.03048,-1.210416 h -18.9622 V 81.433333 Z M 705.93171,82.125 c 0,5.706278 -1.26991,10.936955 -3.80976,15.692188 -2.53985,4.755232 -6.04652,8.516132 -10.52012,11.282812 -4.4736,2.76668 -9.50993,4.15 -15.10915,4.15 -5.59921,0 -10.63554,-1.38332 -15.10914,-4.15 -4.4736,-2.76668 -7.96584,-6.52758 -10.47683,-11.282812 -2.51099,-4.755233 -3.76647,-9.98591 -3.76647,-15.692188 0,-5.706278 1.25548,-10.936955 3.76647,-15.692188 2.51099,-4.755232 6.00323,-8.516132 10.47683,-11.282812 4.4736,-2.766681 9.50993,-4.15 15.10914,-4.15 5.59922,0 10.63555,1.383319 15.10915,4.15 4.4736,2.76668 7.98027,6.52758 10.52012,11.282812 2.53985,4.755233 3.80976,9.98591 3.80976,15.692188 z m -11.2561,0 c 0,-3.861825 -0.77926,-7.363352 -2.33781,-10.504688 -1.55854,-3.141335 -3.72315,-5.634192 -6.4939,-7.478645 -2.77074,-1.844454 -5.88779,-2.766667 -9.35122,-2.766667 -3.52115,0 -6.65262,0.907803 -9.39451,2.723438 -2.74188,1.815634 -4.87763,4.308491 -6.40732,7.478645 -1.52968,3.170155 -2.29451,6.686092 -2.29451,10.547917 0,3.861825 0.76483,7.377762 2.29451,10.547917 1.52969,3.170155 3.66544,5.663011 6.40732,7.478643 2.74189,1.81564 5.87336,2.72344 9.39451,2.72344 3.46343,0 6.58048,-0.92221 9.35122,-2.76667 2.77075,-1.84445 4.93536,-4.337307 6.4939,-7.478642 1.55855,-3.141336 2.33781,-6.642863 2.33781,-10.504688 z m 54.80854,-3.285417 c 3.05936,1.210423 5.55588,3.054849 7.48963,5.533334 1.93375,2.478484 2.90061,5.677411 2.90061,9.596875 0,6.859058 -1.96258,11.643038 -5.88781,14.352088 -3.92522,2.70904 -8.60078,4.06354 -14.02682,4.06354 H 718.4 c -1.50082,0 -2.7563,-0.50434 -3.76646,-1.51302 -1.01017,-1.00869 -1.51525,-2.26232 -1.51525,-3.76094 V 57.138542 c 0,-1.498619 0.50508,-2.752252 1.51525,-3.760938 1.01016,-1.008685 2.26564,-1.513021 3.76646,-1.513021 h 21.81951 c 10.96754,0 16.45122,5.12981 16.45122,15.389584 0,2.593763 -0.62052,4.884886 -1.86158,6.873437 -1.24107,1.988552 -3.01605,3.559196 -5.325,4.711979 z m -4.06952,-9.683333 c 0,-2.363206 -0.59166,-4.135584 -1.775,-5.317188 -1.18333,-1.181603 -2.84287,-1.772395 -4.97865,-1.772395 h -14.28659 v 13.4875 h 14.54634 c 1.73172,0 3.24695,-0.576384 4.54573,-1.729167 1.29879,-1.152783 1.94817,-2.709018 1.94817,-4.66875 z m -5.45487,33.28646 c 2.71302,0 4.83434,-0.72048 6.36402,-2.16146 1.52968,-1.440979 2.29451,-3.544778 2.29451,-6.311458 0,-3.400712 -0.89471,-5.619787 -2.68414,-6.657292 -1.78944,-1.037505 -3.98292,-1.55625 -6.58049,-1.55625 h -14.97927 v 16.68646 z M 822.82195,82.125 c 0,5.706278 -1.2699,10.936955 -3.80975,15.692188 -2.53985,4.755232 -6.04653,8.516132 -10.52013,11.282812 -4.4736,2.76668 -9.50993,4.15 -15.10914,4.15 -5.59922,0 -10.63555,-1.38332 -15.10915,-4.15 -4.4736,-2.76668 -7.96584,-6.52758 -10.47683,-11.282812 -2.51099,-4.755233 -3.76646,-9.98591 -3.76646,-15.692188 0,-5.706278 1.25547,-10.936955 3.76646,-15.692188 2.51099,-4.755232 6.00323,-8.516132 10.47683,-11.282812 4.4736,-2.766681 9.50993,-4.15 15.10915,-4.15 5.59921,0 10.63554,1.383319 15.10914,4.15 4.4736,2.76668 7.98028,6.52758 10.52013,11.282812 2.53985,4.755233 3.80975,9.98591 3.80975,15.692188 z m -11.2561,0 c 0,-3.861825 -0.77926,-7.363352 -2.3378,-10.504688 -1.55855,-3.141335 -3.72316,-5.634192 -6.4939,-7.478645 -2.77075,-1.844454 -5.88779,-2.766667 -9.35122,-2.766667 -3.52116,0 -6.65263,0.907803 -9.39451,2.723438 -2.74189,1.815634 -4.87764,4.308491 -6.40732,7.478645 -1.52968,3.170155 -2.29452,6.686092 -2.29452,10.547917 0,3.861825 0.76484,7.377762 2.29452,10.547917 1.52968,3.170155 3.66543,5.663011 6.40732,7.478643 2.74188,1.81564 5.87335,2.72344 9.39451,2.72344 3.46343,0 6.58047,-0.92221 9.35122,-2.76667 2.77074,-1.84445 4.93535,-4.337307 6.4939,-7.478642 1.55854,-3.141336 2.3378,-6.642863 2.3378,-10.504688 z M 868.1061,51.864583 c 1.55854,0 2.82845,0.461107 3.80975,1.383334 0.98131,0.922227 1.47195,2.132631 1.47195,3.63125 0,1.498618 -0.49064,2.694613 -1.47195,3.588021 -0.9813,0.893407 -2.25121,1.340104 -3.80975,1.340104 h -13.5939 v 45.304168 c 0,1.49862 -0.54837,2.75225 -1.64513,3.76094 -1.09675,1.00868 -2.45324,1.51302 -4.06951,1.51302 -1.61627,0 -2.9439,-0.50434 -3.98293,-1.51302 -1.03902,-1.00869 -1.55853,-2.26232 -1.55853,-3.76094 V 61.807292 h -13.59391 c -1.55854,0 -2.82844,-0.461107 -3.80975,-1.383334 -0.98131,-0.922227 -1.47195,-2.132631 -1.47195,-3.63125 0,-1.440979 0.50507,-2.622564 1.51524,-3.544791 1.01017,-0.922227 2.26565,-1.383334 3.76646,-1.383334 z m 22.42561,55.246877 c 0,1.49862 -0.54837,2.75225 -1.64513,3.76094 -1.09675,1.00868 -2.36665,1.51302 -3.80975,1.51302 -1.55854,0 -2.84288,-0.50434 -3.85305,-1.51302 -1.01017,-1.00869 -1.51524,-2.26232 -1.51524,-3.76094 V 57.138542 c 0,-1.498619 0.5195,-2.752252 1.55853,-3.760938 1.03903,-1.008685 2.36666,-1.513021 3.98293,-1.513021 1.4431,0 2.68414,0.504336 3.72317,1.513021 1.03903,1.008686 1.55854,2.262319 1.55854,3.760938 z m 52.6439,-52.307293 c 1.78944,0.922226 2.68415,2.392004 2.68415,4.409375 0,1.210422 -0.43293,2.392008 -1.29878,3.544791 -0.92359,1.210423 -2.10691,1.815625 -3.55,1.815625 -0.98131,0 -1.9626,-0.259372 -2.94391,-0.778125 -2.82847,-1.325701 -5.88778,-1.988541 -9.17805,-1.988541 -4.04067,0 -7.56177,0.850165 -10.56341,2.55052 -3.00164,1.700356 -5.31056,4.092346 -6.92683,7.176042 -1.61627,3.083696 -2.42439,6.614043 -2.42439,10.591146 0,6.801423 1.8327,11.960052 5.49817,15.476042 3.66547,3.515988 8.47091,5.273958 14.41646,5.273958 3.52116,0 6.58048,-0.66284 9.17805,-1.98854 1.03903,-0.46112 1.9626,-0.69167 2.77073,-0.69167 1.50083,0 2.77073,0.63402 3.80976,1.90208 0.86586,1.09515 1.29878,2.27673 1.29878,3.5448 0,0.92222 -0.23089,1.75798 -0.69268,2.50729 -0.46179,0.74931 -1.12561,1.32569 -1.99146,1.72916 -4.50247,2.24793 -9.29348,3.37188 -14.37318,3.37188 -5.65694,0 -10.85201,-1.19599 -15.58536,-3.58802 -4.73336,-2.39203 -8.51421,-5.92237 -11.34268,-10.591147 -2.82847,-4.668773 -4.24269,-10.317327 -4.24269,-16.945833 0,-5.879196 1.34206,-11.153102 4.02622,-15.821875 2.68416,-4.668774 6.39287,-8.314397 11.12622,-10.936979 4.73336,-2.622583 10.07274,-3.933854 16.01829,-3.933854 5.13743,0 9.89958,1.123947 14.28659,3.371875 z M 971.74878,113.25 c -4.15612,0 -7.85039,-0.51874 -11.08293,-1.55625 -3.23253,-1.0375 -6.26299,-2.79547 -9.09146,-5.27396 -1.55854,-1.38334 -2.33781,-2.91075 -2.33781,-4.58229 0,-1.3257 0.49065,-2.492877 1.47196,-3.501563 0.9813,-1.008685 2.16462,-1.51302 3.55,-1.51302 1.09675,0 2.07804,0.345829 2.9439,1.0375 2.30895,1.902092 4.56015,3.285413 6.75366,4.150003 2.1935,0.86458 4.79104,1.29687 7.79268,1.29687 3.23254,0 6.01767,-0.72048 8.35549,-2.16146 2.33781,-1.440976 3.50671,-3.227764 3.50671,-5.360413 0,-2.593763 -1.15446,-4.625514 -3.46342,-6.095313 -2.30895,-1.469799 -5.97437,-2.579337 -10.99634,-3.328646 -12.64153,-1.844453 -18.9622,-7.723561 -18.9622,-17.6375 0,-3.631268 0.95243,-6.786965 2.85732,-9.467187 1.90489,-2.680222 4.50242,-4.726382 7.79268,-6.138542 C 964.12929,51.706069 967.79469,51 971.83537,51 c 3.6366,0 7.05669,0.547564 10.26036,1.642708 3.20368,1.095145 5.87336,2.536102 8.00915,4.322917 1.67399,1.325701 2.51097,2.853116 2.51097,4.582292 0,1.325701 -0.49064,2.492877 -1.47195,3.501562 -0.9813,1.008686 -2.13576,1.513021 -3.46341,1.513021 -0.86586,0 -1.64512,-0.259372 -2.33781,-0.778125 -1.50082,-1.210423 -3.59328,-2.31996 -6.27744,-3.328646 -2.68416,-1.008685 -5.09409,-1.513021 -7.22987,-1.513021 -3.63661,0 -6.4506,0.677251 -8.44208,2.031771 -1.99147,1.354521 -2.98719,3.126899 -2.98719,5.317188 0,2.478484 1.02458,4.351729 3.07378,5.619791 2.0492,1.268062 5.26725,2.305552 9.65427,3.1125 4.96425,0.864588 8.9327,1.974126 11.90548,3.328646 2.97279,1.354521 5.20955,3.198947 6.71037,5.533333 1.50082,2.334387 2.25122,5.432447 2.25122,9.294271 0,3.631269 -1.02458,6.815782 -3.07378,9.553642 -2.0492,2.73787 -4.77661,4.84166 -8.18232,6.31146 -3.4057,1.4698 -7.07112,2.20469 -10.99634,2.20469 z" />
    <path
       inkscape:connector-curvature="0"
       id="Combined-Shape"
       d="m 148.07196,134.79789 c -6.37386,7.97085 -14.2592,14.81884 -23.38903,20.08222 -25.718024,14.82652 -57.403933,14.82652 -83.121955,0 C 32.699178,149.77125 25.009868,143.16946 18.737207,135.497 52.04361,101.00483 79.57881,109.40783 79.57881,97.161471 c 0,-12.758359 -47.507156,-21.156067 -47.507156,-30.00781 0,-8.81323 27.907047,-15.507546 51.672934,-15.56563 23.765882,0.05808 51.672932,6.7524 51.672932,15.56563 0,8.851743 -47.507155,17.249451 -47.507155,30.00781 0,12.162919 27.161245,3.956919 60.161595,37.636429 z m 6.91243,-10.08539 c -17.68993,-14.80323 -34.15968,-23.9869 -49.40925,-27.551029 7.56784,-6.092634 50.14423,-21.591478 50.14423,-29.887965 0,-8.24764 -36.60938,-27.962376 -71.663464,-28.19423 v -0.0021 c -0.103758,0 -0.207531,1.72e-4 -0.311318,5.16e-4 -0.103788,-3.44e-4 -0.207561,-5.16e-4 -0.311319,-5.16e-4 v 0.0021 c -35.054089,0.231854 -71.663467,19.94659 -71.663467,28.19423 0,8.296487 42.576391,23.795331 50.14423,29.887965 C 46.425376,100.78147 29.677984,110.19862 11.671857,125.4129 4.1580961,112.79166 -3.206057e-7,98.191424 0,83 -6.2580933e-7,53.346956 15.842954,25.946414 41.560975,11.119892 c 25.718022,-14.8265225 57.403931,-14.8265225 83.121955,0 C 150.40095,25.946414 166.2439,53.346956 166.2439,83 c 0,14.91122 -4.00612,29.25286 -11.25951,41.7125 z" />
  </g>
  <text
     style="font-weight:normal;font-size:9.45825195px;font-family:OpenSans, 'Open Sans';letter-spacing:0.00788187;fill:#ffffff;fill-rule:evenodd;stroke:none;stroke-width:0.29557037"
     letter-spacing="0.02666665"
     font-weight="normal"
     font-size="32"
     id="studentrobotics.org"
     x="0.69952363"
     y="10.261035">
    <tspan
       id="tspan919"
       y="184.05641"
       x="117.74539"
       style="stroke-width:0.29557037">studentrobotics.org</tspan>
  </text>
  <path
     style="fill:#ffffff;fill-opacity:0.1843586;fill-rule:nonzero;stroke:none;stroke-width:0.29557037"
     inkscape:connector-curvature="0"
     id="path922"
     d="m 444.64622,295.43642 c -20.4219,25.5338 -45.68661,47.47065 -74.93868,64.33134 -82.40075,47.4953 -183.92267,47.4953 -266.32343,0 C 74.990832,343.40206 50.35422,322.25388 30.256561,297.67592 136.97056,187.18374 225.19358,214.1019 225.19358,174.87191 c 0,-40.87012 -152.213339,-67.77134 -152.213339,-96.127008 0,-28.2323 89.414419,-49.676867 165.560519,-49.862935 76.14609,0.186068 165.56053,21.630635 165.56053,49.862935 0,28.355668 -152.21334,55.256888 -152.21334,96.127008 0,38.96269 87.02486,12.67558 192.75827,120.56452 z m 21.83816,-32.04753 c -56.70701,-47.44757 -109.50265,-76.88326 -158.38685,-88.30705 24.25956,-19.52823 160.74293,-69.2054 160.74293,-95.797449 0,-26.435488 -117.35545,-89.625515 -229.72524,-90.36866 v -0.0066 c -0.33261,0 -0.66526,5.62e-4 -0.99797,0.0017 -0.3327,-0.0011 -0.66535,-0.0017 -0.99796,-0.0017 v 0.0066 C 124.74949,-10.341124 7.3940467,52.848903 7.3940467,79.284391 7.3940467,105.87644 143.87742,155.55361 168.13697,175.08184 118.48636,186.68473 64.800724,216.86873 7.0800747,265.63383 -17.006124,225.18001 -30.335365,178.38306 -30.335365,129.69123 c -3e-6,-95.044471 6.678414,-194.898625 89.120403,-242.42086 82.441992,-47.52224 228.122642,-35.4928 310.564632,12.02944 82.44199,47.522234 133.22834,135.346949 133.22834,230.39142 0,47.79372 -12.84206,93.76181 -36.09363,133.69766 z"
     sodipodi:nodetypes="csscsscssccccscccccsccssssc" />
</svg>
