<?xml version="1.0" encoding="UTF-8" standalone="no"?>
<!-- Created with Inkscape (http://www.inkscape.org/) -->

<svg
   xmlns:dc="http://purl.org/dc/elements/1.1/"
   xmlns:cc="http://creativecommons.org/ns#"
   xmlns:rdf="http://www.w3.org/1999/02/22-rdf-syntax-ns#"
   xmlns:svg="http://www.w3.org/2000/svg"
   xmlns="http://www.w3.org/2000/svg"
   xmlns:sodipodi="http://sodipodi.sourceforge.net/DTD/sodipodi-0.dtd"
   xmlns:inkscape="http://www.inkscape.org/namespaces/inkscape"
   width="330"
   height="330"
   id="svg3078"
   version="1.1"
   inkscape:version="0.47 r22583"
   sodipodi:docname="cog.svg">
  <defs
     id="defs3080">
    <inkscape:perspective
       sodipodi:type="inkscape:persp3d"
       inkscape:vp_x="0 : 526.18109 : 1"
       inkscape:vp_y="0 : 1000 : 0"
       inkscape:vp_z="744.09448 : 526.18109 : 1"
       inkscape:persp3d-origin="372.04724 : 350.78739 : 1"
       id="perspective3086" />
    <inkscape:perspective
       id="perspective3129"
       inkscape:persp3d-origin="0.5 : 0.33333333 : 1"
       inkscape:vp_z="1 : 0.5 : 1"
       inkscape:vp_y="0 : 1000 : 0"
       inkscape:vp_x="0 : 0.5 : 1"
       sodipodi:type="inkscape:persp3d" />
  </defs>
  <sodipodi:namedview
     id="base"
     pagecolor="#ffffff"
     bordercolor="#666666"
     borderopacity="1.0"
     inkscape:pageopacity="0.0"
     inkscape:pageshadow="2"
     inkscape:zoom="1.979899"
     inkscape:cx="192.28353"
     inkscape:cy="161.4346"
     inkscape:document-units="px"
     inkscape:current-layer="layer1"
     showgrid="true"
     inkscape:window-width="1280"
     inkscape:window-height="999"
     inkscape:window-x="1280"
     inkscape:window-y="0"
     inkscape:window-maximized="1">
    <inkscape:grid
       type="xygrid"
       id="grid3090"
       empspacing="5"
       visible="true"
       enabled="true"
       snapvisiblegridlinesonly="true" />
  </sodipodi:namedview>
  <metadata
     id="metadata3083">
    <rdf:RDF>
      <cc:Work
         rdf:about="">
        <dc:format>image/svg+xml</dc:format>
        <dc:type
           rdf:resource="http://purl.org/dc/dcmitype/StillImage" />
        <dc:title />
      </cc:Work>
    </rdf:RDF>
  </metadata>
  <g
     inkscape:label="Layer 1"
     inkscape:groupmode="layer"
     id="layer1"
     transform="translate(-160,-132.36218)">
    <path
       style="fill:#000000;fill-opacity:1;fill-rule:nonzero;stroke:none"
       d="M 165 50 C 101.48725 50 50 101.48725 50 165 C 50 228.51275 101.48725 280 165 280 C 228.51275 280 280 228.51275 280 165 C 280 101.48725 228.51275 50 165 50 z M 165 120 C 189.85281 120 210 140.14719 210 165 C 210 189.85281 189.85281 210 165 210 C 140.14719 210 120 189.85281 120 165 C 120 140.14719 140.14719 120 165 120 z "
       transform="translate(160,132.36218)"
       id="path3092" />
    <g
       id="g2835">
      <path
         style="fill:#000000;fill-opacity:1;fill-rule:nonzero;stroke:none"
         d="m 295,187.36218 60,0 -15,-55 -30,0 -15,55 z"
         id="path3147"
         sodipodi:nodetypes="ccccc" />
      <path
         sodipodi:nodetypes="ccccc"
         id="path3170"
         d="m 295,407.36218 60,0 -15,55 -30,0 -15,-55 z"
         style="fill:#000000;fill-opacity:1;fill-rule:nonzero;stroke:none" />
      <path
         sodipodi:nodetypes="ccccc"
         id="path3172"
         d="m 226.00505,240.79364 42.42641,-42.42641 -49.49748,-28.28427 -21.2132,21.2132 28.28427,49.49748 z"
         style="fill:#000000;fill-opacity:1;fill-rule:nonzero;stroke:none" />
      <path
         style="fill:#000000;fill-opacity:1;fill-rule:nonzero;stroke:none"
         d="m 381.56854,396.35713 42.42641,-42.42641 28.28427,49.49748 -21.2132,21.2132 -49.49748,-28.28427 z"
         id="path3174"
         sodipodi:nodetypes="ccccc" />
      <path
         style="fill:#000000;fill-opacity:1;fill-rule:nonzero;stroke:none"
         d="m 215,327.36218 0,-60 -55,15 0,30 55,15 z"
         id="path3180"
         sodipodi:nodetypes="ccccc" />
      <path
         sodipodi:nodetypes="ccccc"
         id="path3182"
         d="m 435,327.36218 0,-60 55,15 0,30 -55,15 z"
         style="fill:#000000;fill-opacity:1;fill-rule:nonzero;stroke:none" />
      <path
         sodipodi:nodetypes="ccccc"
         id="path3184"
         d="m 268.43146,396.35713 -42.42641,-42.42641 -28.28427,49.49748 21.2132,21.2132 49.49748,-28.28427 z"
         style="fill:#000000;fill-opacity:1;fill-rule:nonzero;stroke:none" />
      <path
         style="fill:#000000;fill-opacity:1;fill-rule:nonzero;stroke:none"
         d="m 423.99495,240.79364 -42.42641,-42.42641 49.49748,-28.28427 21.2132,21.2132 -28.28427,49.49748 z"
         id="path3186"
         sodipodi:nodetypes="ccccc" />
    </g>
  </g>
</svg>
